<?xml version="1.0" standalone="no"?>
<!DOCTYPE svg PUBLIC "-//W3C//DTD SVG 1.1//EN" "http://www.w3.org/Graphics/SVG/1.1/DTD/svg11.dtd" >
<svg xmlns="http://www.w3.org/2000/svg" xmlns:xlink="http://www.w3.org/1999/xlink" version="1.1">
<metadata>
Created by FontForge 20170731 at Wed Feb 19 04:59:11 2014
 By Aleksey,,,
Copyright (c) 2014 by Rene' Bieder. All rights reserved.
</metadata>
<defs>
<font id="Campton-ThinItalic" horiz-adv-x="600" >
  <font-face 
    font-family="Campton Thin"
    font-weight="250"
    font-style="italic"
    font-stretch="normal"
    units-per-em="1000"
    panose-1="0 0 3 0 0 0 0 0 0 0"
    ascent="800"
    descent="-200"
    x-height="450"
    cap-height="680"
    bbox="-90 -260 1476 949"
    underline-thickness="50"
    underline-position="-200"
    slope="-10"
    unicode-range="U+0020-FB02"
  />
<missing-glyph horiz-adv-x="870" 
d="M770 680v-680h-670v680h670zM700 610h-481l481 -481v481zM170 70h477l-477 477v-477z" />
    <glyph glyph-name="fi" unicode="fi" horiz-adv-x="590" 
d="M530 450l-79 -450h-21l75 430h-305l-76 -430h-21l76 430h-138l4 20h137l28 159q11 66 56 106t107 40q53 0 142 -33l-9 -18q-84 31 -137 31t-90.5 -34.5t-47.5 -91.5l-28 -159h327z" />
    <glyph glyph-name="fl" unicode="fl" horiz-adv-x="579" 
d="M203 450h177l-4 -20h-176l-76 -430h-21l76 430h-138l4 20h137l28 159q11 66 56 106t107 40q34 0 79 -12l-9 -18q-42 10 -74 10q-52 0 -90 -35.5t-48 -92.5zM565 710l-126 -710h-21l126 710h21z" />
    <glyph glyph-name=".notdef" horiz-adv-x="870" 
d="M770 680v-680h-670v680h670zM700 610h-481l481 -481v481zM170 70h477l-477 477v-477z" />
    <glyph glyph-name=".null" horiz-adv-x="0" 
 />
    <glyph glyph-name="nonmarkingreturn" horiz-adv-x="333" 
 />
    <glyph glyph-name="space" unicode=" " horiz-adv-x="280" 
 />
    <glyph glyph-name="exclam" unicode="!" horiz-adv-x="246" 
d="M122 160h-22l92 520h22zM86 -8q-10 0 -16.5 6.5t-6.5 16.5t6.5 16.5t16.5 6.5t16.5 -6.5t6.5 -16.5t-6.5 -16.5t-16.5 -6.5z" />
    <glyph glyph-name="quotedbl" unicode="&#x22;" horiz-adv-x="305" 
d="M164 680l-46 -259h-21l46 259h21zM308 680l-46 -259h-21l46 259h21z" />
    <glyph glyph-name="numbersign" unicode="#" horiz-adv-x="710" 
d="M469 242h138l-2 -16h-144l-110 -226h-21l110 226h-254l-110 -226h-21l110 226h-115l2 16h121l98 200h-128l2 16h134l109 223h21l-109 -223h254l109 223h21l-109 -223h125l-2 -16h-131zM292 442l-98 -200h254l98 200h-254z" />
    <glyph glyph-name="dollar" unicode="$" horiz-adv-x="653" 
d="M401 695h2q111 0 167 -49.5t55 -132.5h-22q-2 77 -53 119.5t-150 42.5q-103 0 -169.5 -50.5t-66.5 -127.5q0 -46 37.5 -78.5t107.5 -45.5l117 -23q71 -13 109 -50.5t38 -92.5q0 -96 -80 -159t-202 -63h-15l-22 -126h-21l22 127q-101 9 -151.5 66t-46.5 160h22
q-2 -101 52 -154t164 -53t182.5 56t72.5 141q0 50 -34.5 83t-98.5 45l-120 24q-75 14 -115.5 51t-40.5 91q0 82 67 137t172 61l24 135h21z" />
    <glyph glyph-name="percent" unicode="%" horiz-adv-x="1125" 
d="M353 695q66 0 107.5 -44t41.5 -111q0 -88 -64 -150.5t-150 -62.5q-67 0 -108.5 44t-41.5 111q0 88 64.5 150.5t150.5 62.5zM360 0h-24l444 680h24zM292 349q75 0 132 55t57 132q0 60 -37 99t-95 39q-75 0 -132.5 -55.5t-57.5 -132.5q0 -59 37.5 -98t95.5 -39zM877 353
q66 0 108 -44t42 -111q0 -88 -64 -150.5t-151 -62.5q-66 0 -107.5 44t-41.5 111q0 88 64 150.5t150 62.5zM816 7q75 0 132.5 55t57.5 132q0 60 -37 99t-95 39q-75 0 -132.5 -55t-57.5 -133q0 -59 37 -98t95 -39z" />
    <glyph glyph-name="ampersand" unicode="&#x26;" horiz-adv-x="736" 
d="M535 125l126 -125h-32l-110 110q-118 -121 -259 -121q-91 0 -144 44.5t-53 115.5q0 84 60.5 142t140.5 82q-58 73 -58 134q0 80 60 134t149 54q73 0 115.5 -42t36.5 -120h-20q3 69 -34 105.5t-101 36.5q-79 0 -131.5 -48t-52.5 -119q0 -24 9 -48t19 -42t38 -49.5
t45.5 -49l60.5 -60.5l121 -121l159 171h23zM265 9q128 0 241 114l-122 122q-65 65 -107 113q-85 -26 -138.5 -78.5t-53.5 -126.5q0 -65 48 -104.5t132 -39.5z" />
    <glyph glyph-name="quotesingle" unicode="'" horiz-adv-x="161" 
d="M169 680l-46 -259h-21l46 259h21z" />
    <glyph glyph-name="parenleft" unicode="(" horiz-adv-x="356" 
d="M348 723l9 -17q-105 -73 -166.5 -170t-84.5 -230q-24 -121 4.5 -225.5t105.5 -176.5l-15 -15q-82 71 -112 183.5t-5 236.5q46 270 264 414z" />
    <glyph glyph-name="parenright" unicode=")" horiz-adv-x="356" 
d="M168 708l15 15q82 -71 112 -183.5t5 -236.5q-46 -270 -264 -414l-9 17q105 73 166.5 170t84.5 230q24 121 -4.5 225.5t-105.5 176.5z" />
    <glyph glyph-name="asterisk" unicode="*" horiz-adv-x="395" 
d="M405 586l4 -17l-134 -35l91 -91l-13 -13l-91 91l-35 -133l-17 4l35 135l-134 -35l-5 17l133 35l-88 88l13 13l89 -89l35 135l17 -5l-35 -134z" />
    <glyph glyph-name="plus" unicode="+" horiz-adv-x="683" 
d="M367 305l-37 -211h-23l37 211h-210l4 21h210l37 211h23l-37 -211h210l-4 -21h-210z" />
    <glyph glyph-name="comma" unicode="," horiz-adv-x="178" 
d="M-28 -160l80 155q-18 3 -18 20q0 10 6.5 16.5t16.5 6.5t16.5 -6.5t6.5 -16.5q0 -9 -17 -41l-73 -134h-18z" />
    <glyph glyph-name="hyphen" unicode="-" horiz-adv-x="554" 
d="M446 291l-4 -21h-314l4 21h314z" />
    <glyph glyph-name="period" unicode="." horiz-adv-x="146" 
d="M36 -8q-10 0 -16.5 6.5t-6.5 16.5t6.5 16.5t16.5 6.5t16.5 -6.5t6.5 -16.5t-6.5 -16.5t-16.5 -6.5z" />
    <glyph glyph-name="slash" unicode="/" horiz-adv-x="400" 
d="M-6 -160h-22l434 890h22z" />
    <glyph glyph-name="zero" unicode="0" horiz-adv-x="714" 
d="M440 695q110 0 169.5 -74.5t59.5 -200.5q0 -188 -98.5 -311.5t-256.5 -123.5q-110 0 -169.5 74.5t-59.5 200.5q0 188 98.5 311.5t256.5 123.5zM318 5q146 0 237 117.5t91 294.5q0 119 -54.5 188.5t-155.5 69.5q-146 0 -237 -117.5t-91 -294.5q0 -119 54.5 -188.5
t155.5 -69.5z" />
    <glyph glyph-name="one" unicode="1" horiz-adv-x="496" 
d="M425 20l-4 -20h-421l4 20h210l111 634l-208 -77l4 23l220 80h10l-116 -660h190z" />
    <glyph glyph-name="two" unicode="2" horiz-adv-x="557" 
d="M68 20h395l-4 -20h-438l3 13l267 217q63 51 96.5 81t65.5 66.5t44.5 70t12.5 73.5q0 69 -45 111.5t-123 42.5q-82 0 -145.5 -44.5t-85.5 -117.5h-21q21 82 91.5 132t162.5 50q87 0 138 -47.5t51 -123.5q0 -79 -48 -140.5t-178 -167.5z" />
    <glyph glyph-name="three" unicode="3" horiz-adv-x="564" 
d="M388 345q52 -16 81 -54t29 -91q0 -93 -72 -152t-186 -59q-100 0 -158 44.5t-51 116.5h22q-4 -64 47.5 -102.5t139.5 -38.5q103 0 169.5 52.5t66.5 135.5q0 63 -43.5 100.5t-118.5 37.5h-59l3 20h59q86 0 142.5 51.5t56.5 131.5q0 62 -43.5 99.5t-120.5 37.5t-133.5 -37.5
t-76.5 -100.5h-23q20 72 83.5 115t150.5 43t136 -41.5t49 -112.5q0 -70 -41 -122.5t-109 -73.5z" />
    <glyph glyph-name="four" unicode="4" horiz-adv-x="646" 
d="M564 162h-124l-29 -162h-21l29 162h-381l3 13l309 505h23l-303 -498h352l42 238h21l-42 -238h125z" />
    <glyph glyph-name="five" unicode="5" horiz-adv-x="580" 
d="M205 660l-49 -278h-21l53 298h385l-3 -20h-365zM511 232q0 69 -47.5 110t-132.5 41l-175 -1l4 21h176q92 0 144.5 -45.5t52.5 -122.5q0 -103 -81.5 -176.5t-198.5 -73.5q-104 0 -160 51t-58 141h23q2 -81 53 -126.5t145 -45.5q106 0 180.5 67.5t74.5 159.5z" />
    <glyph glyph-name="six" unicode="6" horiz-adv-x="612" 
d="M346 445q92 0 148.5 -52.5t56.5 -138.5q0 -116 -83.5 -192.5t-202.5 -76.5q-92 0 -148 53.5t-56 140.5q0 97 78 183l298 318h31l-250 -263q63 28 128 28zM269 5q107 0 183 70t76 175q0 79 -51 127t-134 48q-105 0 -177 -63l-12 -13q-70 -70 -70 -167q0 -80 51 -128.5
t134 -48.5z" />
    <glyph glyph-name="seven" unicode="7" horiz-adv-x="501" 
d="M563 680l-2 -14l-463 -666h-28l461 660h-427l3 20h456z" />
    <glyph glyph-name="eight" unicode="8" horiz-adv-x="618" 
d="M402 359q66 -14 103 -54t37 -96q0 -97 -80 -160.5t-202 -63.5q-98 0 -155 46.5t-57 123.5q0 78 55 132.5t147 72.5q-53 15 -82.5 49t-29.5 84q0 84 73 143t174 59q82 0 133.5 -44t51.5 -111q0 -69 -46 -116.5t-122 -64.5zM159 495q0 -60 46 -94t122 -34q95 0 158 46
t63 124q0 60 -46 99.5t-120 39.5q-91 0 -157 -53t-66 -128zM263 5q111 0 183.5 57t72.5 145q0 65 -53 104.5t-142 39.5q-111 0 -182.5 -53.5t-71.5 -139.5q0 -69 52 -111t141 -42z" />
    <glyph glyph-name="nine" unicode="9" horiz-adv-x="612" 
d="M391 695q92 0 148 -53.5t56 -140.5q0 -97 -78 -183l-298 -318h-31l250 263q-63 -28 -128 -28q-92 0 -148.5 52.5t-56.5 138.5q0 116 83.5 192.5t202.5 76.5zM490 318l12 13q70 70 70 167q0 80 -51 128.5t-134 48.5q-107 0 -183 -70t-76 -175q0 -79 51 -127t134 -48
q105 0 177 63z" />
    <glyph glyph-name="colon" unicode=":" horiz-adv-x="146" 
d="M115 414q-10 0 -16.5 6.5t-6.5 16.5t6.5 16.5t16.5 6.5t16.5 -6.5t6.5 -16.5t-6.5 -16.5t-16.5 -6.5zM39 -8q-10 0 -16.5 6.5t-6.5 16.5t6.5 16.5t16.5 6.5t16.5 -6.5t6.5 -16.5t-6.5 -16.5t-16.5 -6.5z" />
    <glyph glyph-name="semicolon" unicode=";" horiz-adv-x="158" 
d="M115 414q-10 0 -16.5 6.5t-6.5 16.5t6.5 16.5t16.5 6.5t16.5 -6.5t6.5 -16.5t-6.5 -16.5t-16.5 -6.5zM-47 -160l80 155q-18 3 -18 20q0 10 6.5 16.5t16.5 6.5t16.5 -6.5t6.5 -16.5q0 -9 -17 -41l-73 -134h-18z" />
    <glyph glyph-name="less" unicode="&#x3c;" horiz-adv-x="543" 
d="M40 311l459 210l-4 -25l-433 -199l363 -196l-4 -23l-385 210z" />
    <glyph glyph-name="equal" unicode="=" horiz-adv-x="723" 
d="M636 413h-482l3 21h482zM602 223h-482l4 21h482z" />
    <glyph glyph-name="greater" unicode="&#x3e;" horiz-adv-x="543" 
d="M524 288l-459 -210l4 25l433 199l-363 196l4 23l385 -210z" />
    <glyph glyph-name="question" unicode="?" 
d="M364 695q83 0 133 -50t50 -125q0 -96 -75 -165.5t-183 -69.5l-20 -114h-20l20 134h23q96 0 164.5 63t68.5 148q0 68 -45.5 113.5t-119.5 45.5q-62 0 -119 -37t-81 -96h-22q27 69 91 111t135 42zM231 38q10 0 16.5 -6.5t6.5 -16.5t-6.5 -16.5t-16.5 -6.5t-16.5 6.5
t-6.5 16.5t6.5 16.5t16.5 6.5z" />
    <glyph glyph-name="at" unicode="@" horiz-adv-x="946" 
d="M542 625q146 0 243.5 -96t97.5 -235q0 -102 -52 -176.5t-139 -74.5q-76 0 -85 72q-72 -79 -169 -79q-69 0 -113.5 44t-44.5 115q0 93 67.5 155.5t156.5 62.5q88 0 134 -67l9 48h21l-36 -204q-11 -62 2.5 -94.5t60.5 -32.5q72 0 118.5 66t46.5 160q0 132 -92 223.5
t-229 91.5q-111 0 -214 -56t-168.5 -154.5t-65.5 -211.5q0 -136 91 -227t227 -91q140 0 262 89l11 -18q-128 -92 -276 -92q-146 0 -242.5 95t-96.5 239q0 122 69 226.5t178 163t228 58.5zM443 56q93 0 163 80q0 22 5 54l23 129q-43 74 -131 74q-81 0 -141 -55.5t-60 -139.5
q0 -63 39.5 -102.5t101.5 -39.5z" />
    <glyph glyph-name="A" unicode="A" horiz-adv-x="741" 
d="M566 244h-385l-156 -244h-26l439 685h23l199 -685h-23zM560 264l-114 394l-252 -394h366z" />
    <glyph glyph-name="B" unicode="B" horiz-adv-x="709" 
d="M472 353q150 -27 150 -142q0 -93 -81 -152t-208 -59h-258l120 680h258q86 0 136.5 -39t50.5 -103q0 -69 -43 -117t-125 -68zM161 360h206q114 0 181.5 47t67.5 128q0 57 -44.5 91t-121.5 34h-237zM101 20h236q114 0 187.5 52.5t73.5 135.5q0 63 -53 97.5t-152 34.5h-236z
" />
    <glyph glyph-name="C" unicode="C" horiz-adv-x="809" 
d="M502 673q-138 0 -251.5 -97.5t-138.5 -235.5q-24 -138 55 -235.5t217 -97.5q110 0 199.5 57.5t129.5 149.5h24q-43 -101 -140 -164.5t-216 -63.5q-147 0 -232 103.5t-59 250.5t147.5 250.5t268.5 103.5q119 0 193 -63.5t82 -164.5h-24q-8 92 -76.5 149.5t-178.5 57.5z
" />
    <glyph glyph-name="D" unicode="D" horiz-adv-x="760" 
d="M195 680h218q139 0 220 -76t81 -202q0 -174 -120 -288t-301 -114h-218zM101 20h196q169 0 281 107.5t112 271.5q0 118 -75.5 189.5t-204.5 71.5h-197z" />
    <glyph glyph-name="E" unicode="E" horiz-adv-x="667" 
d="M213 660l-54 -310h390l-4 -20h-390l-54 -310h430l-4 -20h-452l120 680h452l-4 -20h-430z" />
    <glyph glyph-name="F" unicode="F" horiz-adv-x="637" 
d="M213 660l-57 -325h380l-3 -20h-380l-56 -315h-22l120 680h442l-4 -20h-420z" />
    <glyph glyph-name="G" unicode="G" horiz-adv-x="827" 
d="M503 673q-138 0 -252 -97.5t-139 -235.5q-24 -139 53.5 -236t214.5 -97q129 0 225 89t125 224h-297l3 20h320v-3l-60 -337h-22l35 201q-50 -98 -137.5 -156.5t-194.5 -58.5q-146 0 -229.5 103t-57.5 251q26 147 148 250.5t269 103.5q113 0 189.5 -64t84.5 -164h-22
q-7 91 -79.5 149t-176.5 58z" />
    <glyph glyph-name="H" unicode="H" horiz-adv-x="759" 
d="M724 680l-120 -680h-22l58 331h-485l-58 -331h-22l120 680h22l-58 -330h485l58 330h22z" />
    <glyph glyph-name="I" unicode="I" horiz-adv-x="252" 
d="M97 0h-22l120 680h22z" />
    <glyph glyph-name="J" unicode="J" horiz-adv-x="619" 
d="M589 680l-79 -444q-20 -115 -94.5 -183t-177.5 -68q-91 0 -143 51t-54 136h22q3 -77 49.5 -122t130.5 -45q93 0 159.5 62t85.5 169l79 444h22z" />
    <glyph glyph-name="K" unicode="K" horiz-adv-x="717" 
d="M328 363l295 -363h-30l-283 347l-178 -151l-35 -196h-22l120 680h22l-80 -452l533 452h31z" />
    <glyph glyph-name="L" unicode="L" horiz-adv-x="597" 
d="M501 20l-4 -20h-422l120 680h22l-116 -660h400z" />
    <glyph glyph-name="M" unicode="M" horiz-adv-x="850" 
d="M815 680l-120 -680h-22l114 640l-362 -480h-24l-192 481l-112 -641h-22l120 680h24l197 -496l374 496h25z" />
    <glyph glyph-name="N" unicode="N" horiz-adv-x="782" 
d="M747 680l-120 -680h-26l-389 651l-115 -651h-22l120 680h25l390 -651l115 651h22z" />
    <glyph glyph-name="O" unicode="O" horiz-adv-x="852" 
d="M508 694q130 0 214 -87t84 -216q0 -107 -60 -201t-157.5 -149t-204.5 -55q-130 0 -214 87t-84 216q0 107 60 201t157.5 149t204.5 55zM387 7q101 0 192.5 51.5t147.5 140.5t56 189q0 121 -78.5 203t-199.5 82q-101 0 -192.5 -51.5t-147.5 -140.5t-56 -189
q0 -121 78.5 -203t199.5 -82z" />
    <glyph glyph-name="P" unicode="P" horiz-adv-x="668" 
d="M195 680h218q101 0 160 -50t59 -132q0 -109 -83.5 -178.5t-211.5 -69.5h-196l-44 -250h-22zM145 270h196q116 0 191.5 63t75.5 162q0 75 -53 120t-145 45h-197z" />
    <glyph glyph-name="Q" unicode="Q" horiz-adv-x="852" 
d="M806 391q0 -117 -70.5 -216.5t-180.5 -149.5l146 -185l-18 -16l-150 191q-72 -29 -149 -29q-130 0 -214 87t-84 216q0 107 60 201t157.5 149t204.5 55q130 0 214 -87t84 -216zM109 292q0 -121 78.5 -203t199.5 -82q101 0 192.5 51.5t147.5 140.5t56 189q0 121 -78.5 203
t-199.5 82q-101 0 -192.5 -51.5t-147.5 -140.5t-56 -189z" />
    <glyph glyph-name="R" unicode="R" horiz-adv-x="695" 
d="M643 507q0 -101 -72.5 -164.5t-191.5 -71.5l196 -271h-29l-194 270h-2h-205l-48 -270h-22l120 680h228q102 0 161 -46t59 -127zM148 290h206q118 0 192 58t74 156q0 73 -54 114.5t-147 41.5h-206z" />
    <glyph glyph-name="S" unicode="S" horiz-adv-x="653" 
d="M403 695q111 0 167 -49.5t55 -132.5h-22q-2 77 -53 119.5t-150 42.5q-103 0 -169.5 -50.5t-66.5 -127.5q0 -46 37.5 -78.5t107.5 -45.5l117 -23q71 -13 109 -50.5t38 -92.5q0 -96 -80 -159t-202 -63q-119 0 -178.5 58t-55.5 169h22q-2 -101 52 -154t164 -53t182.5 56
t72.5 141q0 50 -34.5 83t-98.5 45l-120 24q-75 14 -115.5 51t-40.5 91q0 86 74 142.5t188 56.5z" />
    <glyph glyph-name="T" unicode="T" horiz-adv-x="622" 
d="M668 660h-270l-116 -660h-22l116 660h-270l4 20h562z" />
    <glyph glyph-name="U" unicode="U" horiz-adv-x="771" 
d="M741 680l-71 -404q-22 -125 -113.5 -208t-214.5 -83t-186.5 83.5t-41.5 207.5l71 404h22l-71 -404q-21 -115 36.5 -193t170.5 -78q114 0 199 78t106 193l71 404h22z" />
    <glyph glyph-name="V" unicode="V" horiz-adv-x="721" 
d="M769 680l-440 -685h-23l-198 685h24l190 -656l421 656h26z" />
    <glyph glyph-name="W" unicode="W" horiz-adv-x="1054" 
d="M1080 680l-360 -685h-21l-101 653l-333 -653h-21l-118 685h22l111 -652l333 652h22l101 -651l341 651h24z" />
    <glyph glyph-name="X" unicode="X" horiz-adv-x="652" 
d="M361 339l218 -339h-27l-207 322l-321 -322h-32l340 339l-205 341h28l193 -324l306 324h33z" />
    <glyph glyph-name="Y" unicode="Y" horiz-adv-x="640" 
d="M332 257l-45 -257h-22l45 257l-214 423h25l202 -400l346 400h27z" />
    <glyph glyph-name="Z" unicode="Z" horiz-adv-x="655" 
d="M651 663l-581 -643h468l-4 -20h-500l3 17l584 643h-461l4 20h490z" />
    <glyph glyph-name="bracketleft" unicode="[" horiz-adv-x="341" 
d="M80 -90h131l-3 -20h-152l148 840h152l-4 -20h-131z" />
    <glyph glyph-name="backslash" unicode="\" horiz-adv-x="400" 
d="M72 730l278 -890h-22l-278 890h22z" />
    <glyph glyph-name="bracketright" unicode="]" horiz-adv-x="341" 
d="M291 710h-131l3 20h152l-148 -840h-152l4 20h131z" />
    <glyph glyph-name="asciicircum" unicode="^" horiz-adv-x="374" 
d="M364 450h-22l-88 210l-162 -210h-22l178 230h20z" />
    <glyph glyph-name="underscore" unicode="_" horiz-adv-x="679" 
d="M-12 -158h568l-4 -19h-568z" />
    <glyph glyph-name="grave" unicode="`" 
d="M334 570h-24l-88 136h25z" />
    <glyph glyph-name="a" unicode="a" horiz-adv-x="625" 
d="M565 450l-80 -450h-21l13 75q-90 -90 -205 -90q-88 0 -145 59t-57 146q0 110 87 192t199 82q116 0 174 -90l14 76h21zM275 5q120 0 208 104l41 231q-51 104 -171 104q-101 0 -180.5 -75.5t-79.5 -175.5q0 -80 51 -134t131 -54z" />
    <glyph glyph-name="b" unicode="b" horiz-adv-x="624" 
d="M346 465q88 0 144.5 -59t56.5 -146q0 -110 -87 -192t-199 -82q-115 0 -174 90l-13 -76h-21l125 710h21l-59 -335q90 90 206 90zM265 6q101 0 180.5 75.5t79.5 175.5q0 80 -51.5 134t-131.5 54q-118 0 -208 -103l-41 -232q53 -104 172 -104z" />
    <glyph glyph-name="c" unicode="c" horiz-adv-x="579" 
d="M344 444q-93 0 -162.5 -63.5t-86.5 -155.5q-16 -92 31.5 -155.5t140.5 -63.5q67 0 121 34.5t78 91.5h23q-27 -66 -88.5 -106t-137.5 -40q-102 0 -155 69t-35 170t95.5 170t179.5 69q76 0 122.5 -39.5t51.5 -106.5h-23q-5 57 -46.5 91.5t-108.5 34.5z" />
    <glyph glyph-name="d" unicode="d" horiz-adv-x="625" 
d="M611 710l-126 -710h-21l14 76q-92 -90 -206 -90q-88 0 -145 59t-57 146q0 110 87 192t199 82q116 0 175 -90l59 335h21zM275 6q119 0 209 104l41 231q-53 104 -172 104q-101 0 -180.5 -75.5t-79.5 -175.5q0 -79 51.5 -133.5t130.5 -54.5z" />
    <glyph glyph-name="e" unicode="e" horiz-adv-x="596" 
d="M345 464q97 0 145 -69t31 -174q0 -3 -1 -4h-426q-13 -88 35 -149.5t135 -61.5q61 0 112 26t77 70h24q-29 -53 -87 -84.5t-129 -31.5q-99 0 -152 69.5t-36 169.5t95 169.5t177 69.5zM97 237h404q11 90 -32.5 148.5t-127.5 58.5q-86 0 -155 -59.5t-89 -147.5z" />
    <glyph glyph-name="f" unicode="f" horiz-adv-x="358" 
d="M369 735q-52 0 -90 -35.5t-48 -92.5l-28 -157h187l-4 -20h-186l-76 -430h-21l76 430h-138l4 20h137l28 159q11 66 56 106t107 40q34 0 79 -12l-9 -18q-42 10 -74 10z" />
    <glyph glyph-name="g" unicode="g" horiz-adv-x="625" 
d="M565 450l-85 -480q-17 -99 -87 -159t-170 -60q-81 0 -131.5 40t-55.5 106h23q5 -57 50 -91.5t117 -34.5q90 0 153.5 54.5t79.5 144.5l19 106q-93 -91 -216 -91q-86 0 -139 57.5t-53 144.5q0 112 82 194.5t194 82.5q123 0 184 -90l14 76h21zM265 5q60 0 118 27.5t101 76.5
l40 231q-25 49 -73 76.5t-108 27.5q-102 0 -176.5 -76t-74.5 -178q0 -79 47.5 -132t125.5 -53z" />
    <glyph glyph-name="h" unicode="h" horiz-adv-x="572" 
d="M351 465q83 0 125.5 -51.5t26.5 -141.5l-48 -272h-21l48 272q15 81 -23 127t-111 46q-61 0 -119 -27.5t-95 -74.5l-60 -343h-21l125 710h21l-59 -333q39 41 94.5 64.5t116.5 23.5z" />
    <glyph glyph-name="i" unicode="i" horiz-adv-x="247" 
d="M195 606q-10 0 -16.5 6.5t-6.5 16.5t6.5 16.5t16.5 6.5t16.5 -6.5t6.5 -16.5t-6.5 -16.5t-16.5 -6.5zM173 450l-79 -450h-21l79 450h21z" />
    <glyph glyph-name="j" unicode="j" horiz-adv-x="254" 
d="M203 606q-10 0 -16.5 6.5t-6.5 16.5t6.5 16.5t16.5 6.5t16.5 -6.5t6.5 -16.5t-6.5 -16.5t-16.5 -6.5zM187 450l-81 -460q-16 -90 -54 -128t-112 -38l3 20q63 0 96 33.5t46 112.5l81 460h21z" />
    <glyph glyph-name="k" unicode="k" horiz-adv-x="552" 
d="M249 260l218 -260h-28l-207 247l-130 -99l-26 -148h-21l125 710h21l-94 -532l358 272h32z" />
    <glyph glyph-name="l" unicode="l" horiz-adv-x="221" 
d="M207 710l-126 -710h-21l126 710h21z" />
    <glyph glyph-name="m" unicode="m" horiz-adv-x="898" 
d="M691 465q80 0 117 -51t21 -142l-48 -272h-21l48 272q15 82 -17.5 127.5t-102.5 45.5q-62 0 -116.5 -29.5t-90.5 -81.5q0 -34 -5 -62l-48 -272h-21l48 272q15 82 -18 127.5t-103 45.5q-58 0 -110.5 -26.5t-88.5 -74.5l-61 -344h-21l80 450h21l-13 -71q78 86 196 86
q58 0 94.5 -27.5t46.5 -78.5q82 106 213 106z" />
    <glyph glyph-name="n" unicode="n" horiz-adv-x="572" 
d="M351 465q83 0 125.5 -51.5t26.5 -141.5l-48 -272h-21l48 272q15 81 -23 127t-111 46q-61 0 -118.5 -27t-94.5 -74l-61 -344h-21l80 450h21l-13 -72q39 41 94.5 64t115.5 23z" />
    <glyph glyph-name="o" unicode="o" horiz-adv-x="629" 
d="M356 464q88 0 144.5 -59t56.5 -146q0 -110 -87 -192t-198 -82q-88 0 -145 59t-57 146q0 110 87 192t199 82zM275 5q101 0 180 75.5t79 175.5q0 79 -51 133.5t-130 54.5q-101 0 -180.5 -75.5t-79.5 -175.5q0 -80 51 -134t131 -54z" />
    <glyph glyph-name="p" unicode="p" horiz-adv-x="620" 
d="M346 464q88 0 145 -59t57 -146q0 -110 -87 -192t-199 -82q-116 0 -175 90l-59 -335h-21l126 710h21l-14 -76q92 90 206 90zM265 5q101 0 180.5 75.5t79.5 175.5q0 79 -51.5 133.5t-130.5 54.5q-119 0 -209 -104l-41 -231q53 -104 172 -104z" />
    <glyph glyph-name="q" unicode="q" horiz-adv-x="625" 
d="M565 450l-125 -710h-21l59 336q-89 -91 -206 -91q-88 0 -145 59t-57 146q0 110 87 192t199 82q116 0 175 -90l13 76h21zM275 5q119 0 209 105l41 230q-53 104 -172 104q-101 0 -180.5 -75.5t-79.5 -175.5q0 -80 51 -134t131 -54z" />
    <glyph glyph-name="r" unicode="r" horiz-adv-x="328" 
d="M154 450l-18 -103q39 54 95.5 86t114.5 32l-3 -20q-59 0 -117.5 -38.5t-97.5 -102.5l-54 -304h-21l80 450h21z" />
    <glyph glyph-name="s" unicode="s" horiz-adv-x="545" 
d="M57 126h22q5 -56 48.5 -88.5t121.5 -32.5q80 0 128.5 33t48.5 89q0 72 -88 87l-104 17q-58 10 -87 32.5t-29 65.5q0 61 54 98.5t137 37.5t130.5 -37.5t41.5 -98.5h-20q3 55 -36 85.5t-116 30.5q-78 0 -124 -30.5t-46 -81.5q0 -34 23 -53t76 -29l95 -16q52 -9 83 -31.5
t31 -73.5q0 -67 -55.5 -106t-142.5 -39q-86 0 -137 38t-55 103z" />
    <glyph glyph-name="t" unicode="t" horiz-adv-x="413" 
d="M204 430l-49 -279q-12 -66 12.5 -106t77.5 -40q33 0 78 10l1 -18q-48 -12 -83 -12q-62 0 -91 45.5t-16 120.5l49 279h-140l3 20h140l30 170h21l-30 -170h174l-3 -20h-174z" />
    <glyph glyph-name="u" unicode="u" horiz-adv-x="584" 
d="M519 450l-79 -450h-21l13 72q-39 -41 -95 -64t-116 -23q-83 0 -125 51.5t-27 141.5l48 272h21l-48 -272q-14 -81 24 -127t111 -46q61 0 118.5 27t94.5 74l60 344h21z" />
    <glyph glyph-name="v" unicode="v" horiz-adv-x="567" 
d="M555 450l-300 -450h-25l-142 450h23l135 -425l285 425h24z" />
    <glyph glyph-name="w" unicode="w" horiz-adv-x="767" 
d="M757 450l-250 -450h-23l-67 415l-212 -415h-23l-92 450h22l85 -418l215 418h21l67 -420l234 420h23z" />
    <glyph glyph-name="x" unicode="x" horiz-adv-x="518" 
d="M276 224l158 -224h-26l-149 208l-224 -208h-30l242 225l-153 225h25l144 -209l220 209h30z" />
    <glyph glyph-name="y" unicode="y" horiz-adv-x="561" 
d="M564 450l-462 -710h-27l150 230l-152 480h24l144 -455l296 455h27z" />
    <glyph glyph-name="z" unicode="z" horiz-adv-x="489" 
d="M466 433l-413 -413h340l-4 -20h-369l3 17l412 413h-325l4 20h355z" />
    <glyph glyph-name="braceleft" unicode="{" horiz-adv-x="358" 
d="M242 579l-20 -109q-22 -129 -98 -156q35 -14 45 -51.5t-2 -104.5l-19 -109q-11 -66 13.5 -106t76.5 -40l-3 -20q-62 0 -91.5 45.5t-16.5 120.5l19 109q14 79 -6.5 112.5t-83.5 33.5l4 20q63 0 95 33.5t46 112.5l20 109q13 75 58.5 120.5t107.5 45.5l-4 -20
q-51 0 -90.5 -43t-50.5 -103z" />
    <glyph glyph-name="bar" unicode="|" horiz-adv-x="252" 
d="M226 730l-157 -890h-22l157 890h22z" />
    <glyph glyph-name="braceright" unicode="}" horiz-adv-x="358" 
d="M147 49l20 109q22 129 98 156q-35 14 -45 51.5t2 104.5l19 109q11 66 -13.5 106t-76.5 40l3 20q62 0 91.5 -45.5t16.5 -120.5l-19 -109q-14 -79 6.5 -112.5t83.5 -33.5l-4 -20q-63 0 -95 -33.5t-46 -112.5l-20 -109q-13 -75 -58.5 -120.5t-107.5 -45.5l4 20q51 0 90.5 43
t50.5 103z" />
    <glyph glyph-name="asciitilde" unicode="~" horiz-adv-x="472" 
d="M399 386h20q0 -31 -14.5 -51t-35.5 -26.5t-43.5 -3.5t-39.5 15l-72 51q-19 13 -42 13.5t-41 -15.5t-18 -46h-20q0 41 25 62.5t54.5 19t53.5 -15.5l72 -51q19 -13 42.5 -13.5t41 15.5t17.5 46z" />
    <glyph glyph-name="exclamdown" unicode="&#xa1;" horiz-adv-x="245" 
d="M161 466q10 0 16.5 -6.5t6.5 -16.5t-6.5 -16.5t-16.5 -6.5t-16.5 6.5t-6.5 16.5t6.5 16.5t16.5 6.5zM125 298h22l-92 -520h-22z" />
    <glyph glyph-name="cent" unicode="&#xa2;" horiz-adv-x="580" 
d="M344 444q-93 0 -162.5 -63.5t-86.5 -155.5q-16 -92 31.5 -155.5t140.5 -63.5q67 0 121 34.5t78 91.5h23q-27 -66 -88.5 -106t-137.5 -40h-4l-22 -127h-21l23 128q-91 9 -137 76.5t-29 161.5t87 161.5t163 76.5l24 136h21l-24 -135h4q76 0 122.5 -39.5t51.5 -106.5h-23
q-5 57 -46.5 91.5t-108.5 34.5z" />
    <glyph glyph-name="sterling" unicode="&#xa3;" horiz-adv-x="645" 
d="M439 695q93 0 143.5 -51.5t43.5 -138.5h-22q5 78 -40.5 124t-128.5 46q-91 0 -155.5 -55t-80.5 -145l-29 -165h272l-4 -20h-271l-48 -270h419l-4 -20h-528l4 20h87l48 270h-88l4 20h87l29 165q17 99 89 159.5t173 60.5z" />
    <glyph glyph-name="yen" unicode="&#xa5;" horiz-adv-x="640" 
d="M328 234h197l-4 -21h-197l-14 -84h196l-4 -21h-196l-19 -108h-22l19 108h-190l4 21h190l14 84h-189l4 21h189l4 23l-214 423h25l202 -400l346 400h27l-364 -423z" />
    <glyph glyph-name="brokenbar" unicode="&#xa6;" horiz-adv-x="253" 
d="M157 336h-22l69 394h22zM69 -160h-22l70 394h22z" />
    <glyph glyph-name="section" unicode="&#xa7;" horiz-adv-x="539" 
d="M343 690q79 0 124 -40t42 -110h-20q2 61 -38 95.5t-110 34.5q-76 0 -126.5 -37.5t-50.5 -102.5q0 -36 30 -63t99 -62l84 -43q53 -28 79.5 -57t26.5 -68q0 -58 -42.5 -94.5t-99.5 -45.5q56 -41 56 -93q0 -73 -56 -117.5t-144 -44.5q-79 0 -124.5 40t-42.5 110h20
q-2 -61 38 -95.5t110 -34.5q77 0 127.5 37t50.5 102q0 38 -26.5 62.5t-103.5 63.5l-84 43q-106 53 -106 125q0 59 43 95.5t100 45.5q-57 40 -57 92q0 73 56.5 117.5t144.5 44.5zM364 346l-78 41q-9 5 -19 10t-22 11.5t-18 9.5q-62 -2 -105.5 -34t-43.5 -88q0 -31 22 -57
t75 -53l78 -40q60 -31 61 -32q61 3 104 34.5t43 86.5q0 31 -22.5 57.5t-74.5 53.5z" />
    <glyph glyph-name="dieresis" unicode="&#xa8;" 
d="M237 624q11 0 18 -7t7 -18t-7 -18t-18 -7t-18 7t-7 18t7 18t18 7zM403 624q11 0 18 -7t7 -18t-7 -18t-18 -7t-18 7t-7 18t7 18t18 7z" />
    <glyph glyph-name="copyright" unicode="&#xa9;" horiz-adv-x="878" 
d="M459 695q150 0 257 -102t107 -253t-107 -253t-257 -102t-257 102t-107 253t107 253t257 102zM458 4q140 0 242 97.5t102 238.5t-102 238.5t-242 97.5t-241.5 -97.5t-101.5 -238.5t101.5 -238.5t241.5 -97.5zM458 519q-71 0 -122 -52.5t-51 -126.5t51 -126.5t122 -52.5
q57 0 100.5 32t57.5 82h21q-15 -58 -65 -95t-114 -37q-79 0 -136 58t-57 139t57 139t136 58q64 0 114 -37t65 -95h-21q-14 50 -57.5 82t-100.5 32z" />
    <glyph glyph-name="ordfeminine" unicode="&#xaa;" horiz-adv-x="354" 
d="M264 686q56 0 83.5 -38.5t16.5 -100.5l-29 -166h-19l7 39q-63 -49 -139 -49q-48 0 -76.5 21.5t-28.5 58.5q0 42 33.5 69t98.5 27h134q10 55 -13 88.5t-71 33.5q-38 0 -71 -17.5t-44 -45.5h-21q12 36 52.5 58t86.5 22zM190 391q78 0 137 52l15 86h-134q-56 0 -82.5 -21
t-26.5 -54q0 -30 24.5 -46.5t66.5 -16.5z" />
    <glyph glyph-name="guillemotleft" unicode="&#xab;" horiz-adv-x="404" 
d="M218 396l-147 -146l96 -142h-25l-97 144l147 144h26zM358 396l-147 -146l96 -142h-25l-97 144l147 144h26z" />
    <glyph glyph-name="registered" unicode="&#xae;" horiz-adv-x="542" 
d="M321 695q91 0 156 -62t65 -153t-65 -153t-156 -62t-156 62t-65 153t65 153t156 62zM321 282q82 0 142 57.5t60 140.5t-60 140.5t-142 57.5t-142 -57.5t-60 -140.5t60 -140.5t142 -57.5zM334 454l88 -92h-23l-87 92h-55v-92h-17v239h95q34 0 58 -21t24 -53t-23.5 -52.5
t-58.5 -20.5h-1zM257 470h78q26 0 45 16t19 41q0 26 -19 42t-45 16h-78v-115z" />
    <glyph glyph-name="macron" unicode="&#xaf;" 
d="M454 608l-4 -18h-276l4 18h276z" />
    <glyph glyph-name="degree" unicode="&#xb0;" horiz-adv-x="502" 
d="M306 695q68 0 114.5 -45.5t46.5 -112.5q0 -66 -46.5 -111.5t-114.5 -45.5t-114.5 45.5t-46.5 111.5q0 67 46.5 112.5t114.5 45.5zM306 401q58 0 98.5 39.5t40.5 96.5q0 58 -40.5 98t-98.5 40t-98.5 -40t-40.5 -98q0 -57 40.5 -96.5t98.5 -39.5z" />
    <glyph glyph-name="plusminus" unicode="&#xb1;" horiz-adv-x="683" 
d="M580 325h-209l-32 -180h-23l32 180h-210l4 21h210l32 181h23l-32 -181h209zM536 76l-4 -21h-442l4 21h442z" />
    <glyph glyph-name="twosuperior" unicode="&#xb2;" horiz-adv-x="353" 
d="M113 342h206l-3 -19h-245l2 12l147 118q45 36 64.5 53.5t34.5 41.5t15 50q0 33 -22.5 53.5t-62.5 20.5q-42 0 -72 -22t-41 -59h-21q12 46 48 73t88 27q49 0 76.5 -25t27.5 -65t-25.5 -72.5t-93.5 -87.5z" />
    <glyph glyph-name="threesuperior" unicode="&#xb3;" horiz-adv-x="364" 
d="M283 505q56 -19 56 -75q0 -50 -40 -81.5t-104 -31.5q-56 0 -88.5 24.5t-29.5 64.5h22q-2 -32 24.5 -51t72.5 -19q53 0 87.5 25.5t34.5 66.5q0 31 -23.5 49.5t-63.5 18.5h-33l4 18h33v-1v1q44 0 73.5 25.5t29.5 64.5q0 31 -23 49.5t-63 18.5q-41 0 -69.5 -18.5
t-39.5 -50.5h-21q12 40 47.5 64t85.5 24q48 0 75.5 -23t27.5 -61q0 -36 -20 -63t-55 -39z" />
    <glyph glyph-name="acute" unicode="&#xb4;" 
d="M436 706l-112 -136h-24l111 136h25z" />
    <glyph glyph-name="paragraph" unicode="&#xb6;" horiz-adv-x="711" 
d="M611 680v-840h-22v820h-178v-820h-22v410h-106q-99 0 -166 60t-67 155t67 155t166 60h328zM389 660h-106q-89 0 -149.5 -54.5t-60.5 -140.5t60.5 -140.5t149.5 -54.5h106v390z" />
    <glyph glyph-name="periodcentered" unicode="&#xb7;" horiz-adv-x="146" 
d="M78 235q-10 0 -16.5 6.5t-6.5 16.5t6.5 16.5t16.5 6.5t16.5 -6.5t6.5 -16.5t-6.5 -16.5t-16.5 -6.5z" />
    <glyph glyph-name="cedilla" unicode="&#xb8;" 
d="M199 -219h-23l72 133h24z" />
    <glyph glyph-name="onesuperior" unicode="&#xb9;" horiz-adv-x="288" 
d="M285 342l-4 -19h-238l4 19h113l56 317l-112 -38l3 20l124 42h11l-61 -341h104z" />
    <glyph glyph-name="ordmasculine" unicode="&#xba;" horiz-adv-x="389" 
d="M282 686q59 0 97 -39t38 -97q0 -74 -58.5 -129t-132.5 -55q-59 0 -96.5 39.5t-37.5 97.5q0 74 57.5 128.5t132.5 54.5zM229 385q65 0 115.5 48.5t50.5 113.5q0 51 -33 85.5t-83 34.5q-66 0 -115.5 -48t-49.5 -114q0 -51 32 -85.5t83 -34.5z" />
    <glyph glyph-name="guillemotright" unicode="&#xbb;" horiz-adv-x="404" 
d="M56 108l147 146l-96 142h25l97 -144l-147 -144h-26zM196 108l147 146l-96 142h25l97 -144l-147 -144h-26z" />
    <glyph glyph-name="onequarter" unicode="&#xbc;" horiz-adv-x="827" 
d="M43 322l4 19h113l56 317l-112 -38l3 20l124 42h11l-61 -341h104l-4 -19h-238zM640 680l-444 -680h-24l444 680h24zM754 83h-67l-14 -83h-20l14 83h-211l3 14l167 263h22l-161 -257h184l21 122h20l-21 -122h67z" />
    <glyph glyph-name="onehalf" unicode="&#xbd;" horiz-adv-x="833" 
d="M43 322l4 19h113l56 317l-112 -38l3 20l124 42h11l-61 -341h104l-4 -19h-238zM640 680l-444 -680h-24l444 680h24zM538 19h206l-3 -19h-245l2 12l147 118q45 36 64.5 53.5t34.5 41.5t15 50q0 33 -22.5 53.5t-62.5 20.5q-42 0 -72 -22t-41 -59h-21q12 46 48 73t88 27
q49 0 76.5 -25t27.5 -65t-25.5 -72.5t-93.5 -87.5z" />
    <glyph glyph-name="threequarters" unicode="&#xbe;" horiz-adv-x="829" 
d="M339 433q0 -50 -40 -81.5t-104 -31.5q-56 0 -88.5 24.5t-29.5 64.5h22q-2 -32 24.5 -51t72.5 -19q53 0 87.5 25.5t34.5 66.5q0 31 -23.5 49.5t-63.5 18.5h-33l4 18h33v-1v1q44 0 73.5 25.5t29.5 64.5q0 31 -23 49.5t-63 18.5q-41 0 -69.5 -18.5t-39.5 -50.5h-21
q12 40 47.5 64t85.5 24q48 0 75.5 -23t27.5 -61q0 -36 -20 -63t-55 -39q56 -19 56 -75zM642 680l-444 -680h-24l444 680h24zM754 83h-67l-14 -83h-20l14 83h-211l3 14l167 263h22l-161 -257h184l21 122h20l-21 -122h67z" />
    <glyph glyph-name="questiondown" unicode="&#xbf;" 
d="M369 503q-10 0 -16.5 6.5t-6.5 16.5t6.5 16.5t16.5 6.5t16.5 -6.5t6.5 -16.5t-6.5 -16.5t-16.5 -6.5zM236 -154q-83 0 -133 50t-50 125q0 96 75 165.5t183 69.5l20 114h20l-20 -134h-23q-96 0 -164.5 -63t-68.5 -148q0 -68 45.5 -113.5t119.5 -45.5q62 0 119 37t81 96h22
q-27 -69 -91 -111t-135 -42z" />
    <glyph glyph-name="Agrave" unicode="&#xc0;" horiz-adv-x="741" 
d="M444 760l-88 136h25l87 -136h-24zM566 244h-385l-156 -244h-26l439 685h23l199 -685h-23zM560 264l-114 394l-252 -394h366z" />
    <glyph glyph-name="Aacute" unicode="&#xc1;" horiz-adv-x="741" 
d="M473 760h-24l111 136h25zM566 244h-385l-156 -244h-26l439 685h23l199 -685h-23zM560 264l-114 394l-252 -394h366z" />
    <glyph glyph-name="Acircumflex" unicode="&#xc2;" horiz-adv-x="741" 
d="M352 764h-31l153 136h36l101 -136h-26l-94 122zM566 244h-385l-156 -244h-26l439 685h23l199 -685h-23zM560 264l-114 394l-252 -394h366z" />
    <glyph glyph-name="Atilde" unicode="&#xc3;" horiz-adv-x="741" 
d="M473 815l-38 27q-29 23 -61 13.5t-32 -48.5h-19q0 35 21 53t49.5 16.5t51.5 -18.5l37 -26q34 -25 64 -15t30 50h19q0 -54 -41 -68.5t-81 16.5zM566 244h-385l-156 -244h-26l439 685h23l199 -685h-23zM560 264l-114 394l-252 -394h366z" />
    <glyph glyph-name="Adieresis" unicode="&#xc4;" horiz-adv-x="741" 
d="M386 784q-10 0 -17.5 7t-7.5 18t7.5 18t17.5 7t17.5 -7t7.5 -18t-7.5 -18t-17.5 -7zM552 784q-10 0 -17.5 7t-7.5 18t7.5 18t17.5 7t17.5 -7t7.5 -18t-7.5 -18t-17.5 -7zM566 244h-385l-156 -244h-26l439 685h23l199 -685h-23zM560 264l-114 394l-252 -394h366z" />
    <glyph glyph-name="Aring" unicode="&#xc5;" horiz-adv-x="741" 
d="M469 777q-37 0 -62 24.5t-25 61.5t25 61.5t62 24.5t62 -24.5t25 -61.5t-25 -61.5t-62 -24.5zM469 931q-28 0 -48 -20t-20 -48q0 -29 19.5 -48.5t48.5 -19.5t48.5 19.5t19.5 48.5q0 28 -20 48t-48 20zM566 244h-385l-156 -244h-26l439 685h23l199 -685h-23zM560 264
l-114 394l-252 -394h366z" />
    <glyph glyph-name="AE" unicode="&#xc6;" horiz-adv-x="1143" 
d="M709 660l-54 -310h390l-4 -20h-390l-54 -310h430l-4 -20h-452l43 244h-351l-255 -244h-29l708 680h456l-4 -20h-430zM618 264l68 385l-402 -385h334z" />
    <glyph glyph-name="Ccedilla" unicode="&#xc7;" horiz-adv-x="809" 
d="M502 673q-138 0 -251.5 -97.5t-138.5 -235.5q-24 -138 55 -235.5t217 -97.5q110 0 199.5 57.5t129.5 149.5h24q-43 -101 -140 -164.5t-216 -63.5q-147 0 -232 103.5t-59 250.5t147.5 250.5t268.5 103.5q119 0 193 -63.5t82 -164.5h-24q-8 92 -76.5 149.5t-178.5 57.5z
M344 -86h24l-73 -133h-23z" />
    <glyph glyph-name="Egrave" unicode="&#xc8;" horiz-adv-x="667" 
d="M416 760l-88 136h25l87 -136h-24zM213 660l-54 -310h390l-4 -20h-390l-54 -310h430l-4 -20h-452l120 680h452l-4 -20h-430z" />
    <glyph glyph-name="Eacute" unicode="&#xc9;" horiz-adv-x="667" 
d="M445 760h-24l111 136h25zM213 660l-54 -310h390l-4 -20h-390l-54 -310h430l-4 -20h-452l120 680h452l-4 -20h-430z" />
    <glyph glyph-name="Ecircumflex" unicode="&#xca;" horiz-adv-x="667" 
d="M324 764h-31l153 136h36l101 -136h-26l-94 122zM213 660l-54 -310h390l-4 -20h-390l-54 -310h430l-4 -20h-452l120 680h452l-4 -20h-430z" />
    <glyph glyph-name="Edieresis" unicode="&#xcb;" horiz-adv-x="667" 
d="M358 784q-10 0 -17.5 7t-7.5 18t7.5 18t17.5 7t17.5 -7t7.5 -18t-7.5 -18t-17.5 -7zM524 784q-10 0 -17.5 7t-7.5 18t7.5 18t17.5 7t17.5 -7t7.5 -18t-7.5 -18t-17.5 -7zM213 660l-54 -310h390l-4 -20h-390l-54 -310h430l-4 -20h-452l120 680h452l-4 -20h-430z" />
    <glyph glyph-name="Igrave" unicode="&#xcc;" horiz-adv-x="252" 
d="M225 760h-24l-88 136h25zM97 0h-22l120 680h22z" />
    <glyph glyph-name="Iacute" unicode="&#xcd;" horiz-adv-x="252" 
d="M342 896l-112 -136h-24l111 136h25zM97 0h-22l120 680h22z" />
    <glyph glyph-name="Icircumflex" unicode="&#xce;" horiz-adv-x="252" 
d="M248 886l-139 -122h-31l153 136h36l101 -136h-26zM97 0h-22l120 680h22z" />
    <glyph glyph-name="Idieresis" unicode="&#xcf;" horiz-adv-x="252" 
d="M143 834q11 0 18 -7t7 -18t-7 -18t-18 -7t-18 7t-7 18t7 18t18 7zM309 834q11 0 18 -7t7 -18t-7 -18t-18 -7t-18 7t-7 18t7 18t18 7zM97 0h-22l120 680h22z" />
    <glyph glyph-name="Eth" unicode="&#xd0;" horiz-adv-x="761" 
d="M195 680h218q139 0 220 -76t81 -202q0 -174 -120 -288t-301 -114h-218l58 330h-96l4 20h96zM101 20h196q169 0 281 107.5t112 271.5q0 118 -75.5 189.5t-204.5 71.5h-197l-54 -310h199l-4 -20h-199z" />
    <glyph glyph-name="Ntilde" unicode="&#xd1;" horiz-adv-x="782" 
d="M505 815l-38 27q-29 23 -61 13.5t-32 -48.5h-19q0 35 21 53t49.5 16.5t51.5 -18.5l37 -26q34 -25 64 -15t30 50h19q0 -54 -41 -68.5t-81 16.5zM747 680l-120 -680h-26l-389 651l-115 -651h-22l120 680h25l390 -651l115 651h22z" />
    <glyph glyph-name="Ograve" unicode="&#xd2;" horiz-adv-x="852" 
d="M533 760h-24l-88 136h25zM508 694q130 0 214 -87t84 -216q0 -107 -60 -201t-157.5 -149t-204.5 -55q-130 0 -214 87t-84 216q0 107 60 201t157.5 149t204.5 55zM387 7q101 0 192.5 51.5t147.5 140.5t56 189q0 121 -78.5 203t-199.5 82q-101 0 -192.5 -51.5t-147.5 -140.5
t-56 -189q0 -121 78.5 -203t199.5 -82z" />
    <glyph glyph-name="Oacute" unicode="&#xd3;" horiz-adv-x="852" 
d="M650 896l-112 -136h-24l111 136h25zM508 694q130 0 214 -87t84 -216q0 -107 -60 -201t-157.5 -149t-204.5 -55q-130 0 -214 87t-84 216q0 107 60 201t157.5 149t204.5 55zM387 7q101 0 192.5 51.5t147.5 140.5t56 189q0 121 -78.5 203t-199.5 82q-101 0 -192.5 -51.5
t-147.5 -140.5t-56 -189q0 -121 78.5 -203t199.5 -82z" />
    <glyph glyph-name="Ocircumflex" unicode="&#xd4;" horiz-adv-x="852" 
d="M556 886l-139 -122h-31l153 136h36l101 -136h-26zM508 694q130 0 214 -87t84 -216q0 -107 -60 -201t-157.5 -149t-204.5 -55q-130 0 -214 87t-84 216q0 107 60 201t157.5 149t204.5 55zM387 7q101 0 192.5 51.5t147.5 140.5t56 189q0 121 -78.5 203t-199.5 82
q-101 0 -192.5 -51.5t-147.5 -140.5t-56 -189q0 -121 78.5 -203t199.5 -82z" />
    <glyph glyph-name="Otilde" unicode="&#xd5;" horiz-adv-x="852" 
d="M641 867h19q0 -54 -41 -68.5t-81 16.5l-38 27q-29 23 -61 13.5t-32 -48.5h-19q0 35 21 53t49.5 16.5t51.5 -18.5l37 -26q35 -25 64.5 -15t29.5 50zM508 694q130 0 214 -87t84 -216q0 -107 -60 -201t-157.5 -149t-204.5 -55q-130 0 -214 87t-84 216q0 107 60 201
t157.5 149t204.5 55zM387 7q101 0 192.5 51.5t147.5 140.5t56 189q0 121 -78.5 203t-199.5 82q-101 0 -192.5 -51.5t-147.5 -140.5t-56 -189q0 -121 78.5 -203t199.5 -82z" />
    <glyph glyph-name="Odieresis" unicode="&#xd6;" horiz-adv-x="858" 
d="M466 834q10 0 17.5 -7t7.5 -18t-7.5 -18t-17.5 -7t-17.5 7t-7.5 18t7.5 18t17.5 7zM632 834q10 0 17.5 -7t7.5 -18t-7.5 -18t-17.5 -7t-17.5 7t-7.5 18t7.5 18t17.5 7zM508 694q130 0 214 -87t84 -216q0 -107 -60 -201t-157.5 -149t-204.5 -55q-130 0 -214 87t-84 216
q0 107 60 201t157.5 149t204.5 55zM387 7q101 0 192.5 51.5t147.5 140.5t56 189q0 121 -78.5 203t-199.5 82q-101 0 -192.5 -51.5t-147.5 -140.5t-56 -189q0 -121 78.5 -203t199.5 -82z" />
    <glyph glyph-name="multiply" unicode="&#xd7;" horiz-adv-x="650" 
d="M480 145l-18 -15l-140 170l-200 -170l-16 18l200 170l-136 167l18 15l136 -167l200 170l16 -18l-200 -170z" />
    <glyph glyph-name="Oslash" unicode="&#xd8;" horiz-adv-x="858" 
d="M797 685l-77 -76q86 -88 86 -218q0 -107 -60 -201t-157.5 -149t-204.5 -55q-127 0 -211 84l-77 -75l-15 14l78 76q-73 86 -73 204q0 107 60 201t157.5 149t204.5 55q117 0 197 -71l77 76zM109 292q0 -112 67 -190l512 505q-76 66 -183 66q-101 0 -192.5 -51.5
t-147.5 -140.5t-56 -189zM387 7q101 0 192.5 51.5t147.5 140.5t56 189q0 123 -80 205l-514 -506q78 -80 198 -80z" />
    <glyph glyph-name="Ugrave" unicode="&#xd9;" horiz-adv-x="771" 
d="M472 760h-24l-88 136h25zM741 680l-71 -404q-22 -125 -113.5 -208t-214.5 -83t-186.5 83.5t-41.5 207.5l71 404h22l-71 -404q-21 -115 36.5 -193t170.5 -78q114 0 199 78t106 193l71 404h22z" />
    <glyph glyph-name="Uacute" unicode="&#xda;" horiz-adv-x="771" 
d="M589 896l-112 -136h-24l111 136h25zM741 680l-71 -404q-22 -125 -113.5 -208t-214.5 -83t-186.5 83.5t-41.5 207.5l71 404h22l-71 -404q-21 -115 36.5 -193t170.5 -78q114 0 199 78t106 193l71 404h22z" />
    <glyph glyph-name="Ucircumflex" unicode="&#xdb;" horiz-adv-x="771" 
d="M495 886l-139 -122h-31l153 136h36l101 -136h-26zM741 680l-71 -404q-22 -125 -113.5 -208t-214.5 -83t-186.5 83.5t-41.5 207.5l71 404h22l-71 -404q-21 -115 36.5 -193t170.5 -78q114 0 199 78t106 193l71 404h22z" />
    <glyph glyph-name="Udieresis" unicode="&#xdc;" horiz-adv-x="771" 
d="M390 834q10 0 17.5 -7t7.5 -18t-7.5 -18t-17.5 -7t-17.5 7t-7.5 18t7.5 18t17.5 7zM556 834q10 0 17.5 -7t7.5 -18t-7.5 -18t-17.5 -7t-17.5 7t-7.5 18t7.5 18t17.5 7zM741 680l-71 -404q-22 -125 -113.5 -208t-214.5 -83t-186.5 83.5t-41.5 207.5l71 404h22l-71 -404
q-21 -115 36.5 -193t170.5 -78q114 0 199 78t106 193l71 404h22z" />
    <glyph glyph-name="Yacute" unicode="&#xdd;" horiz-adv-x="640" 
d="M400 760h-24l111 136h25zM332 257l-45 -257h-22l45 257l-214 423h25l202 -400l346 400h27z" />
    <glyph glyph-name="Thorn" unicode="&#xde;" horiz-adv-x="667" 
d="M196 560h196q100 0 159 -50t59 -132q0 -109 -83 -178.5t-211 -69.5h-196l-23 -130h-22l120 680h22zM123 150h196q116 0 192 63t76 162q0 75 -53.5 120t-145.5 45h-196z" />
    <glyph glyph-name="germandbls" unicode="&#xdf;" horiz-adv-x="589" 
d="M556 434l-271 -265h31q87 0 140.5 -40.5t53.5 -114.5q0 -94 -73 -161.5t-198 -67.5q-87 0 -166 40l4 22q75 -42 168 -42q114 0 178.5 62t64.5 144q0 67 -48.5 102.5t-126.5 35.5h-67l2 11l276 270h-382l-76 -430h-21l109 619q11 61 55 98.5t106 37.5l-3 -20
q-52 0 -89.5 -31.5t-47.5 -84.5l-30 -169h414z" />
    <glyph glyph-name="agrave" unicode="&#xe0;" horiz-adv-x="625" 
d="M355 550l-88 136h25l87 -136h-24zM565 450l-80 -450h-21l13 75q-90 -90 -205 -90q-88 0 -145 59t-57 146q0 110 87 192t199 82q116 0 174 -90l14 76h21zM275 5q120 0 208 104l41 231q-51 104 -171 104q-101 0 -180.5 -75.5t-79.5 -175.5q0 -80 51 -134t131 -54z" />
    <glyph glyph-name="aacute" unicode="&#xe1;" horiz-adv-x="625" 
d="M383 549h-24l111 136h25zM565 450l-80 -450h-21l13 75q-90 -90 -205 -90q-88 0 -145 59t-57 146q0 110 87 192t199 82q116 0 174 -90l14 76h21zM275 5q120 0 208 104l41 231q-51 104 -171 104q-101 0 -180.5 -75.5t-79.5 -175.5q0 -80 51 -134t131 -54z" />
    <glyph glyph-name="acircumflex" unicode="&#xe2;" horiz-adv-x="625" 
d="M280 544h-31l153 136h36l101 -136h-26l-94 122zM565 450l-80 -450h-21l13 75q-90 -90 -205 -90q-88 0 -145 59t-57 146q0 110 87 192t199 82q116 0 174 -90l14 76h21zM275 5q120 0 208 104l41 231q-51 104 -171 104q-101 0 -180.5 -75.5t-79.5 -175.5q0 -80 51 -134
t131 -54z" />
    <glyph glyph-name="atilde" unicode="&#xe3;" horiz-adv-x="625" 
d="M408 605l-38 27q-29 23 -61 13.5t-32 -48.5h-19q0 35 21 53t49.5 16.5t51.5 -18.5l37 -26q35 -25 64.5 -15t29.5 50h19q0 -54 -41 -68.5t-81 16.5zM565 450l-80 -450h-21l13 75q-90 -90 -205 -90q-88 0 -145 59t-57 146q0 110 87 192t199 82q116 0 174 -90l14 76h21z
M275 5q120 0 208 104l41 231q-51 104 -171 104q-101 0 -180.5 -75.5t-79.5 -175.5q0 -80 51 -134t131 -54z" />
    <glyph glyph-name="adieresis" unicode="&#xe4;" horiz-adv-x="625" 
d="M297 594q-11 0 -18 7t-7 18t7 18t18 7t18 -7t7 -18t-7 -18t-18 -7zM463 594q-11 0 -18 7t-7 18t7 18t18 7t18 -7t7 -18t-7 -18t-18 -7zM565 450l-80 -450h-21l13 75q-90 -90 -205 -90q-88 0 -145 59t-57 146q0 110 87 192t199 82q116 0 174 -90l14 76h21zM275 5
q120 0 208 104l41 231q-51 104 -171 104q-101 0 -180.5 -75.5t-79.5 -175.5q0 -80 51 -134t131 -54z" />
    <glyph glyph-name="aring" unicode="&#xe5;" horiz-adv-x="625" 
d="M380 547q-37 0 -62 24.5t-25 61.5t25 61.5t62 24.5t62 -24.5t25 -61.5t-25 -61.5t-62 -24.5zM380 701q-28 0 -48 -20t-20 -48q0 -29 20 -48.5t48 -19.5t48 19.5t20 48.5q0 28 -20 48t-48 20zM565 450l-80 -450h-21l13 75q-90 -90 -205 -90q-88 0 -145 59t-57 146
q0 110 87 192t199 82q116 0 174 -90l14 76h21zM275 5q120 0 208 104l41 231q-51 104 -171 104q-101 0 -180.5 -75.5t-79.5 -175.5q0 -80 51 -134t131 -54z" />
    <glyph glyph-name="ae" unicode="&#xe6;" horiz-adv-x="972" 
d="M718 464q97 0 145 -69t31 -174q0 -3 -1 -4h-426q-13 -88 35 -149.5t135 -61.5q61 0 112 26t77 70h24q-29 -53 -87 -84.5t-129 -31.5q-63 0 -109 30t-67 81q-109 -112 -253 -112q-73 0 -116 32.5t-43 87.5q0 60 46.5 96t134.5 36h221q2 8 6 22q9 83 -26.5 130t-117.5 47
q-61 0 -106.5 -26t-63.5 -70h-24q22 53 74.5 84.5t123.5 31.5q76 0 117.5 -37t46.5 -104q37 67 101.5 108t138.5 41zM473 237h401q11 90 -32.5 148.5t-127.5 58.5q-81 0 -147 -53t-91 -133zM211 7q139 0 240 109q-15 50 -6 101h-222q-76 0 -115.5 -29t-39.5 -79
q0 -47 39 -74.5t104 -27.5z" />
    <glyph glyph-name="ccedilla" unicode="&#xe7;" horiz-adv-x="579" 
d="M344 444q-93 0 -162.5 -63.5t-86.5 -155.5q-16 -92 31.5 -155.5t140.5 -63.5q67 0 121 34.5t78 91.5h23q-27 -66 -88.5 -106t-137.5 -40q-102 0 -155 69t-35 170t95.5 170t179.5 69q76 0 122.5 -39.5t51.5 -106.5h-23q-5 57 -46.5 91.5t-108.5 34.5zM218 -86h24l-73 -133
h-23z" />
    <glyph glyph-name="egrave" unicode="&#xe8;" horiz-adv-x="596" 
d="M342 550l-88 136h25l87 -136h-24zM345 464q97 0 145 -69t31 -174q0 -3 -1 -4h-426q-13 -88 35 -149.5t135 -61.5q61 0 112 26t77 70h24q-29 -53 -87 -84.5t-129 -31.5q-99 0 -152 69.5t-36 169.5t95 169.5t177 69.5zM97 237h404q11 90 -32.5 148.5t-127.5 58.5
q-86 0 -155 -59.5t-89 -147.5z" />
    <glyph glyph-name="eacute" unicode="&#xe9;" horiz-adv-x="596" 
d="M370 549h-24l111 136h25zM345 464q97 0 145 -69t31 -174q0 -3 -1 -4h-426q-13 -88 35 -149.5t135 -61.5q61 0 112 26t77 70h24q-29 -53 -87 -84.5t-129 -31.5q-99 0 -152 69.5t-36 169.5t95 169.5t177 69.5zM97 237h404q11 90 -32.5 148.5t-127.5 58.5q-86 0 -155 -59.5
t-89 -147.5z" />
    <glyph glyph-name="ecircumflex" unicode="&#xea;" horiz-adv-x="596" 
d="M267 544h-31l153 136h36l101 -136h-26l-94 122zM345 464q97 0 145 -69t31 -174q0 -3 -1 -4h-426q-13 -88 35 -149.5t135 -61.5q61 0 112 26t77 70h24q-29 -53 -87 -84.5t-129 -31.5q-99 0 -152 69.5t-36 169.5t95 169.5t177 69.5zM97 237h404q11 90 -32.5 148.5
t-127.5 58.5q-86 0 -155 -59.5t-89 -147.5z" />
    <glyph glyph-name="edieresis" unicode="&#xeb;" horiz-adv-x="596" 
d="M284 594q-10 0 -17.5 7t-7.5 18t7.5 18t17.5 7t17.5 -7t7.5 -18t-7.5 -18t-17.5 -7zM450 594q-10 0 -17.5 7t-7.5 18t7.5 18t17.5 7t17.5 -7t7.5 -18t-7.5 -18t-17.5 -7zM345 464q97 0 145 -69t31 -174q0 -3 -1 -4h-426q-13 -88 35 -149.5t135 -61.5q61 0 112 26t77 70
h24q-29 -53 -87 -84.5t-129 -31.5q-99 0 -152 69.5t-36 169.5t95 169.5t177 69.5zM97 237h404q11 90 -32.5 148.5t-127.5 58.5q-86 0 -155 -59.5t-89 -147.5z" />
    <glyph glyph-name="igrave" unicode="&#xec;" horiz-adv-x="221" 
d="M170 550h-24l-88 136h25zM161 450l-80 -450h-21l80 450h21z" />
    <glyph glyph-name="iacute" unicode="&#xed;" horiz-adv-x="221" 
d="M286 685l-112 -136h-24l111 136h25zM161 450l-80 -450h-21l80 450h21z" />
    <glyph glyph-name="icircumflex" unicode="&#xee;" horiz-adv-x="221" 
d="M210 666l-139 -122h-31l153 136h36l101 -136h-26zM161 450l-80 -450h-21l80 450h21z" />
    <glyph glyph-name="idieresis" unicode="&#xef;" horiz-adv-x="221" 
d="M88 644q10 0 17.5 -7t7.5 -18t-7.5 -18t-17.5 -7t-17.5 7t-7.5 18t7.5 18t17.5 7zM254 644q10 0 17.5 -7t7.5 -18t-7.5 -18t-17.5 -7t-17.5 7t-7.5 18t7.5 18t17.5 7zM161 450l-80 -450h-21l80 450h21z" />
    <glyph glyph-name="eth" unicode="&#xf0;" horiz-adv-x="627" 
d="M498 639l-65 -23q59 -53 93.5 -136.5t34.5 -171.5q0 -143 -86.5 -233t-200.5 -90q-91 0 -147.5 58.5t-56.5 145.5q0 110 87 192.5t198 82.5q66 0 116 -33t71 -90q-11 163 -129 268l-190 -67l-3 19l176 62q-56 43 -128 62l30 10q70 -24 120 -64l77 27zM275 5
q99 0 180.5 79.5t81.5 186.5q0 75 -51.5 124t-135.5 49q-100 0 -179 -75.5t-79 -175.5q0 -80 52 -134t131 -54z" />
    <glyph glyph-name="ntilde" unicode="&#xf1;" horiz-adv-x="572" 
d="M362 605l-38 27q-29 23 -61 13.5t-32 -48.5h-19q0 35 21 53t49.5 16.5t51.5 -18.5l37 -26q35 -25 64.5 -15t29.5 50h19q0 -54 -41 -68.5t-81 16.5zM351 465q83 0 125.5 -51.5t26.5 -141.5l-48 -272h-21l48 272q15 81 -23 127t-111 46q-61 0 -118.5 -27t-94.5 -74
l-61 -344h-21l80 450h21l-13 -72q39 41 94.5 64t115.5 23z" />
    <glyph glyph-name="ograve" unicode="&#xf2;" horiz-adv-x="629" 
d="M373 550h-24l-88 136h25zM356 464q88 0 144.5 -59t56.5 -146q0 -110 -87 -192t-198 -82q-88 0 -145 59t-57 146q0 110 87 192t199 82zM275 5q101 0 180 75.5t79 175.5q0 79 -51 133.5t-130 54.5q-101 0 -180.5 -75.5t-79.5 -175.5q0 -80 51 -134t131 -54z" />
    <glyph glyph-name="oacute" unicode="&#xf3;" horiz-adv-x="629" 
d="M489 685l-112 -136h-24l111 136h25zM356 464q88 0 144.5 -59t56.5 -146q0 -110 -87 -192t-198 -82q-88 0 -145 59t-57 146q0 110 87 192t199 82zM275 5q101 0 180 75.5t79 175.5q0 79 -51 133.5t-130 54.5q-101 0 -180.5 -75.5t-79.5 -175.5q0 -80 51 -134t131 -54z" />
    <glyph glyph-name="ocircumflex" unicode="&#xf4;" horiz-adv-x="629" 
d="M413 666l-139 -122h-31l153 136h36l101 -136h-26zM356 464q88 0 144.5 -59t56.5 -146q0 -110 -87 -192t-198 -82q-88 0 -145 59t-57 146q0 110 87 192t199 82zM275 5q101 0 180 75.5t79 175.5q0 79 -51 133.5t-130 54.5q-101 0 -180.5 -75.5t-79.5 -175.5q0 -80 51 -134
t131 -54z" />
    <glyph glyph-name="otilde" unicode="&#xf5;" horiz-adv-x="629" 
d="M505 657h19q0 -54 -41 -68.5t-81 16.5l-38 27q-29 23 -61 13.5t-32 -48.5h-19q0 35 21 53t49.5 16.5t51.5 -18.5l37 -26q35 -25 64.5 -15t29.5 50zM356 464q88 0 144.5 -59t56.5 -146q0 -110 -87 -192t-198 -82q-88 0 -145 59t-57 146q0 110 87 192t199 82zM275 5
q101 0 180 75.5t79 175.5q0 79 -51 133.5t-130 54.5q-101 0 -180.5 -75.5t-79.5 -175.5q0 -80 51 -134t131 -54z" />
    <glyph glyph-name="odieresis" unicode="&#xf6;" horiz-adv-x="629" 
d="M301 644q11 0 18 -7t7 -18t-7 -18t-18 -7t-18 7t-7 18t7 18t18 7zM467 644q11 0 18 -7t7 -18t-7 -18t-18 -7t-18 7t-7 18t7 18t18 7zM356 464q88 0 144.5 -59t56.5 -146q0 -110 -87 -192t-198 -82q-88 0 -145 59t-57 146q0 110 87 192t199 82zM275 5q101 0 180 75.5
t79 175.5q0 79 -51 133.5t-130 54.5q-101 0 -180.5 -75.5t-79.5 -175.5q0 -80 51 -134t131 -54z" />
    <glyph glyph-name="divide" unicode="&#xf7;" horiz-adv-x="682" 
d="M387 473q-10 0 -16.5 6.5t-6.5 16.5t6.5 16.5t16.5 6.5t16.5 -6.5t6.5 -16.5t-6.5 -16.5t-16.5 -6.5zM138 326h442l-4 -21h-442zM324 111q-10 0 -16.5 6.5t-6.5 16.5t6.5 16.5t16.5 6.5t16.5 -6.5t6.5 -16.5t-6.5 -16.5t-16.5 -6.5z" />
    <glyph glyph-name="oslash" unicode="&#xf8;" horiz-adv-x="629" 
d="M548 456l-50 -49q59 -59 59 -148q0 -110 -87 -192t-198 -82q-85 0 -144 57l-58 -57l-13 14l58 58q-45 56 -45 133q0 110 87 192t199 82q75 0 128 -44l51 50zM93 193q0 -70 39 -120l336 331q-48 40 -115 40q-101 0 -180.5 -75.5t-79.5 -175.5zM275 5q101 0 180 75.5
t79 175.5q0 81 -52 135l-337 -333q51 -53 130 -53z" />
    <glyph glyph-name="ugrave" unicode="&#xf9;" horiz-adv-x="572" 
d="M316 550l-88 136h25l87 -136h-24zM519 450l-79 -450h-21l13 72q-39 -41 -95 -64t-116 -23q-83 0 -125 51.5t-27 141.5l48 272h21l-48 -272q-14 -81 24 -127t111 -46q61 0 118.5 27t94.5 74l60 344h21z" />
    <glyph glyph-name="uacute" unicode="&#xfa;" horiz-adv-x="584" 
d="M336 549h-24l111 136h25zM519 450l-79 -450h-21l13 72q-39 -41 -95 -64t-116 -23q-83 0 -125 51.5t-27 141.5l48 272h21l-48 -272q-14 -81 24 -127t111 -46q61 0 118.5 27t94.5 74l60 344h21z" />
    <glyph glyph-name="ucircumflex" unicode="&#xfb;" horiz-adv-x="572" 
d="M206 544h-31l153 136h36l101 -136h-26l-94 122zM519 450l-79 -450h-21l13 72q-39 -41 -95 -64t-116 -23q-83 0 -125 51.5t-27 141.5l48 272h21l-48 -272q-14 -81 24 -127t111 -46q61 0 118.5 27t94.5 74l60 344h21z" />
    <glyph glyph-name="udieresis" unicode="&#xfc;" horiz-adv-x="572" 
d="M248 594q-10 0 -17.5 7t-7.5 18t7.5 18t17.5 7t17.5 -7t7.5 -18t-7.5 -18t-17.5 -7zM414 594q-10 0 -17.5 7t-7.5 18t7.5 18t17.5 7t17.5 -7t7.5 -18t-7.5 -18t-17.5 -7zM519 450l-79 -450h-21l13 72q-39 -41 -95 -64t-116 -23q-83 0 -125 51.5t-27 141.5l48 272h21
l-48 -272q-14 -81 24 -127t111 -46q61 0 118.5 27t94.5 74l60 344h21z" />
    <glyph glyph-name="yacute" unicode="&#xfd;" horiz-adv-x="561" 
d="M321 549h-24l111 136h25zM564 450l-462 -710h-27l150 230l-152 480h24l144 -455l296 455h27z" />
    <glyph glyph-name="thorn" unicode="&#xfe;" horiz-adv-x="620" 
d="M346 464q88 0 145 -59t57 -146q0 -110 -87 -192t-199 -82q-116 0 -175 90l-59 -335h-21l166 940h21l-54 -307q89 91 206 91zM265 5q101 0 180.5 75.5t79.5 175.5q0 79 -51.5 133.5t-130.5 54.5q-119 0 -209 -105l-41 -230q53 -104 172 -104z" />
    <glyph glyph-name="ydieresis" unicode="&#xff;" horiz-adv-x="561" 
d="M235 594q-11 0 -18 7t-7 18t7 18t18 7t18 -7t7 -18t-7 -18t-18 -7zM401 594q-11 0 -18 7t-7 18t7 18t18 7t18 -7t7 -18t-7 -18t-18 -7zM564 450l-462 -710h-27l150 230l-152 480h24l144 -455l296 455h27z" />
    <glyph glyph-name="Amacron" unicode="&#x100;" horiz-adv-x="741" 
d="M599 780h-276l4 18h276zM566 244h-385l-156 -244h-26l439 685h23l199 -685h-23zM560 264l-114 394l-252 -394h366z" />
    <glyph glyph-name="amacron" unicode="&#x101;" horiz-adv-x="625" 
d="M533 570h-276l4 18h276zM565 450l-80 -450h-21l13 75q-90 -90 -205 -90q-88 0 -145 59t-57 146q0 110 87 192t199 82q116 0 174 -90l14 76h21zM275 5q120 0 208 104l41 231q-51 104 -171 104q-101 0 -180.5 -75.5t-79.5 -175.5q0 -80 51 -134t131 -54z" />
    <glyph glyph-name="Abreve" unicode="&#x102;" horiz-adv-x="741" 
d="M466 771q-52 0 -86 33t-24 91h20q-8 -50 20.5 -77.5t70.5 -27.5q41 0 80 28t47 77h22q-10 -59 -54 -91.5t-96 -32.5zM566 244h-385l-156 -244h-26l439 685h23l199 -685h-23zM560 264l-114 394l-252 -394h366z" />
    <glyph glyph-name="abreve" unicode="&#x103;" horiz-adv-x="626" 
d="M383 541q-52 0 -86 33t-24 91h20q-8 -50 20.5 -77.5t70.5 -27.5q41 0 80 28t47 77h22q-10 -59 -54 -91.5t-96 -32.5zM565 450l-80 -450h-21l13 75q-90 -90 -205 -90q-88 0 -145 59t-57 146q0 110 87 192t199 82q116 0 174 -90l14 76h21zM275 5q120 0 208 104l41 231
q-51 104 -171 104q-101 0 -180.5 -75.5t-79.5 -175.5q0 -80 51 -134t131 -54z" />
    <glyph glyph-name="Aogonek" unicode="&#x104;" horiz-adv-x="741" 
d="M683 -181l2 -21q-14 -3 -33 -3q-51 0 -82.5 26.5t-31.5 69.5q0 69 96 120l-68 233h-385l-156 -244h-26l439 685h23l199 -685q-22 -10 -36 -18.5t-30.5 -21.5t-25 -30t-8.5 -37q0 -35 26 -55.5t69 -20.5q12 0 28 2zM560 264l-114 394l-252 -394h366z" />
    <glyph glyph-name="aogonek" unicode="&#x105;" horiz-adv-x="625" 
d="M480 -183q12 0 28 2l2 -21q-14 -3 -33 -3q-51 0 -82.5 26.5t-31.5 69.5q0 71 104 124l10 60q-90 -90 -205 -90q-88 0 -145 59t-57 146q0 110 87 192t199 82q116 0 174 -90l14 76h21l-80 -450q-22 -10 -36 -18.5t-30.5 -21.5t-25 -30t-8.5 -37q0 -35 26 -55.5t69 -20.5z
M275 5q120 0 208 104l41 231q-51 104 -171 104q-101 0 -180.5 -75.5t-79.5 -175.5q0 -80 51 -134t131 -54z" />
    <glyph glyph-name="Cacute" unicode="&#x106;" horiz-adv-x="809" 
d="M529 760h-24l111 136h25zM502 673q-138 0 -251.5 -97.5t-138.5 -235.5q-24 -138 55 -235.5t217 -97.5q110 0 199.5 57.5t129.5 149.5h24q-43 -101 -140 -164.5t-216 -63.5q-147 0 -232 103.5t-59 250.5t147.5 250.5t268.5 103.5q119 0 193 -63.5t82 -164.5h-24
q-8 92 -76.5 149.5t-178.5 57.5z" />
    <glyph glyph-name="cacute" unicode="&#x107;" horiz-adv-x="579" 
d="M377 549h-24l111 136h25zM344 444q-93 0 -162.5 -63.5t-86.5 -155.5q-16 -92 31.5 -155.5t140.5 -63.5q67 0 121 34.5t78 91.5h23q-27 -66 -88.5 -106t-137.5 -40q-102 0 -155 69t-35 170t95.5 170t179.5 69q76 0 122.5 -39.5t51.5 -106.5h-23q-5 57 -46.5 91.5
t-108.5 34.5z" />
    <glyph glyph-name="Cdotaccent" unicode="&#x10a;" horiz-adv-x="809" 
d="M535 784q-11 0 -18 7t-7 18t7 18t18 7t18 -7t7 -18t-7 -18t-18 -7zM502 673q-138 0 -251.5 -97.5t-138.5 -235.5q-24 -138 55 -235.5t217 -97.5q110 0 199.5 57.5t129.5 149.5h24q-43 -101 -140 -164.5t-216 -63.5q-147 0 -232 103.5t-59 250.5t147.5 250.5t268.5 103.5
q119 0 193 -63.5t82 -164.5h-24q-8 92 -76.5 149.5t-178.5 57.5z" />
    <glyph glyph-name="cdotaccent" unicode="&#x10b;" horiz-adv-x="579" 
d="M374 594q-10 0 -17.5 7t-7.5 18t7.5 18t17.5 7t17.5 -7t7.5 -18t-7.5 -18t-17.5 -7zM344 444q-93 0 -162.5 -63.5t-86.5 -155.5q-16 -92 31.5 -155.5t140.5 -63.5q67 0 121 34.5t78 91.5h23q-27 -66 -88.5 -106t-137.5 -40q-102 0 -155 69t-35 170t95.5 170t179.5 69
q76 0 122.5 -39.5t51.5 -106.5h-23q-5 57 -46.5 91.5t-108.5 34.5z" />
    <glyph glyph-name="Ccaron" unicode="&#x10c;" horiz-adv-x="809" 
d="M535 764l-103 136h26l95 -122l138 122h30l-151 -136h-35zM502 673q-138 0 -251.5 -97.5t-138.5 -235.5q-24 -138 55 -235.5t217 -97.5q110 0 199.5 57.5t129.5 149.5h24q-43 -101 -140 -164.5t-216 -63.5q-147 0 -232 103.5t-59 250.5t147.5 250.5t268.5 103.5
q119 0 193 -63.5t82 -164.5h-24q-8 92 -76.5 149.5t-178.5 57.5z" />
    <glyph glyph-name="ccaron" unicode="&#x10d;" horiz-adv-x="579" 
d="M355 544l-103 136h26l95 -122l138 122h30l-151 -136h-35zM348 464q76 0 122.5 -39.5t51.5 -106.5h-23q-5 57 -46.5 91.5t-108.5 34.5q-93 0 -162.5 -63.5t-86.5 -155.5q-16 -92 31.5 -155.5t140.5 -63.5q67 0 121 34.5t78 91.5h23q-27 -66 -88.5 -106t-137.5 -40
q-102 0 -155 69t-35 170t95.5 170t179.5 69z" />
    <glyph glyph-name="Dcaron" unicode="&#x10e;" horiz-adv-x="760" 
d="M431 764l-103 136h26l95 -122l138 122h30l-151 -136h-35zM195 680h218q139 0 220 -76t81 -202q0 -174 -120 -288t-301 -114h-218zM101 20h196q169 0 281 107.5t112 271.5q0 118 -75.5 189.5t-204.5 71.5h-197z" />
    <glyph glyph-name="dcaron" unicode="&#x10f;" horiz-adv-x="625" 
d="M590 710h21l-126 -710h-21l14 76q-92 -90 -206 -90q-88 0 -145 59t-57 146q0 110 87 192t199 82q116 0 175 -90zM745 710l-47 -170h-19l44 170h22zM275 6q119 0 209 104l41 231q-53 104 -172 104q-101 0 -180.5 -75.5t-79.5 -175.5q0 -79 51.5 -133.5t130.5 -54.5z" />
    <glyph glyph-name="Dcroat" unicode="&#x110;" horiz-adv-x="761" 
d="M195 680h218q139 0 220 -76t81 -202q0 -174 -120 -288t-301 -114h-218l58 330h-96l4 20h96zM101 20h196q169 0 281 107.5t112 271.5q0 118 -75.5 189.5t-204.5 71.5h-197l-54 -310h199l-4 -20h-199z" />
    <glyph glyph-name="dcroat" unicode="&#x111;" horiz-adv-x="625" 
d="M668 597h-77l-106 -597h-21l14 76q-92 -90 -206 -90q-88 0 -145 59t-57 146q0 110 87 192t199 82q116 0 175 -90l39 222h-189l3 19h189l17 94h21l-17 -94h77zM275 6q119 0 209 104l41 231q-53 104 -172 104q-101 0 -180.5 -75.5t-79.5 -175.5q0 -79 51.5 -133.5
t130.5 -54.5z" />
    <glyph glyph-name="Emacron" unicode="&#x112;" horiz-adv-x="667" 
d="M571 780h-276l4 18h276zM213 660l-54 -310h390l-4 -20h-390l-54 -310h430l-4 -20h-452l120 680h452l-4 -20h-430z" />
    <glyph glyph-name="emacron" unicode="&#x113;" horiz-adv-x="596" 
d="M520 570h-276l4 18h276zM345 464q97 0 145 -69t31 -174q0 -3 -1 -4h-426q-13 -88 35 -149.5t135 -61.5q61 0 112 26t77 70h24q-29 -53 -87 -84.5t-129 -31.5q-99 0 -152 69.5t-36 169.5t95 169.5t177 69.5zM97 237h404q11 90 -32.5 148.5t-127.5 58.5q-86 0 -155 -59.5
t-89 -147.5z" />
    <glyph glyph-name="Edotaccent" unicode="&#x116;" horiz-adv-x="647" 
d="M421 784q-11 0 -18 7t-7 18t7 18t18 7t18 -7t7 -18t-7 -18t-18 -7zM213 660l-54 -310h390l-4 -20h-390l-54 -310h430l-4 -20h-452l120 680h452l-4 -20h-430z" />
    <glyph glyph-name="edotaccent" unicode="&#x117;" horiz-adv-x="599" 
d="M390 594q-10 0 -17.5 7t-7.5 18t7.5 18t17.5 7t17.5 -7t7.5 -18t-7.5 -18t-17.5 -7zM345 464q97 0 145 -69t31 -174q0 -3 -1 -4h-426q-13 -88 35 -149.5t135 -61.5q61 0 112 26t77 70h24q-29 -53 -87 -84.5t-129 -31.5q-99 0 -152 69.5t-36 169.5t95 169.5t177 69.5z
M97 237h404q11 90 -32.5 148.5t-127.5 58.5q-86 0 -155 -59.5t-89 -147.5z" />
    <glyph glyph-name="Eogonek" unicode="&#x118;" horiz-adv-x="667" 
d="M213 660l-54 -310h390l-4 -20h-390l-54 -310h430l-4 -20q-22 -10 -36 -18.5t-30.5 -21.5t-25 -30t-8.5 -37q0 -35 26 -55.5t69 -20.5q12 0 28 2l2 -21q-14 -3 -33 -3q-51 0 -82.5 26.5t-31.5 69.5q0 63 76 109h-406l120 680h452l-4 -20h-430z" />
    <glyph glyph-name="eogonek" unicode="&#x119;" horiz-adv-x="595" 
d="M342 464q97 0 145 -69t31 -174q0 -3 -1 -4h-426q-13 -88 35 -149.5t135 -61.5q61 0 112 26t77 70h24q-14 -25 -33 -44q-7 -8 -24.5 -26t-24 -26.5t-13 -25t-6.5 -36.5q0 -35 26 -55.5t69 -20.5q12 0 28 2l2 -21q-14 -3 -33 -3q-51 0 -82.5 26.5t-31.5 69.5q0 39 21 68
q-54 -24 -114 -24q-99 0 -152 69.5t-36 169.5t95 169.5t177 69.5zM94 237h404q11 90 -32.5 148.5t-127.5 58.5q-86 0 -155 -59.5t-89 -147.5z" />
    <glyph glyph-name="Ecaron" unicode="&#x11a;" horiz-adv-x="667" 
d="M451 764l-103 136h26l95 -122l138 122h30l-151 -136h-35zM213 660l-54 -310h390l-4 -20h-390l-54 -310h430l-4 -20h-452l120 680h452l-4 -20h-430z" />
    <glyph glyph-name="ecaron" unicode="&#x11b;" horiz-adv-x="596" 
d="M348 544l-103 136h26l95 -122l138 122h30l-151 -136h-35zM345 464q97 0 145 -69t31 -174q0 -3 -1 -4h-426q-13 -88 35 -149.5t135 -61.5q61 0 112 26t77 70h24q-29 -53 -87 -84.5t-129 -31.5q-99 0 -152 69.5t-36 169.5t95 169.5t177 69.5zM97 237h404q11 90 -32.5 148.5
t-127.5 58.5q-86 0 -155 -59.5t-89 -147.5z" />
    <glyph glyph-name="Gbreve" unicode="&#x11e;" horiz-adv-x="827" 
d="M522 771q-52 0 -86 33t-24 91h20q-8 -50 20.5 -77.5t70.5 -27.5q41 0 80 28t47 77h22q-10 -59 -54 -91.5t-96 -32.5zM503 673q-138 0 -252 -97.5t-139 -235.5q-24 -139 53.5 -236t214.5 -97q129 0 225 89t125 224h-297l3 20h320v-3l-60 -337h-22l35 201
q-50 -98 -137.5 -156.5t-194.5 -58.5q-146 0 -229.5 103t-57.5 251q26 147 148 250.5t269 103.5q113 0 189.5 -64t84.5 -164h-22q-7 91 -79.5 149t-176.5 58z" />
    <glyph glyph-name="gbreve" unicode="&#x11f;" horiz-adv-x="625" 
d="M355 541q-52 0 -86 33t-24 91h20q-8 -50 20.5 -77.5t70.5 -27.5q41 0 80 28t47 77h22q-10 -59 -54 -91.5t-96 -32.5zM565 450l-85 -480q-17 -99 -87 -159t-170 -60q-81 0 -131.5 40t-55.5 106h23q5 -57 50 -91.5t117 -34.5q90 0 153.5 54.5t79.5 144.5l19 106
q-93 -91 -216 -91q-86 0 -139 57.5t-53 144.5q0 112 82 194.5t194 82.5q123 0 184 -90l14 76h21zM265 5q60 0 118 27.5t101 76.5l40 231q-25 49 -73 76.5t-108 27.5q-102 0 -176.5 -76t-74.5 -178q0 -79 47.5 -132t125.5 -53z" />
    <glyph glyph-name="Gdotaccent" unicode="&#x120;" horiz-adv-x="833" 
d="M520 784q-10 0 -17.5 7t-7.5 18t7.5 18t17.5 7t17.5 -7t7.5 -18t-7.5 -18t-17.5 -7zM503 673q-138 0 -252 -97.5t-139 -235.5q-24 -139 53.5 -236t214.5 -97q129 0 225 89t125 224h-297l3 20h320v-3l-60 -337h-22l35 201q-50 -98 -137.5 -156.5t-194.5 -58.5
q-146 0 -229.5 103t-57.5 251q26 147 148 250.5t269 103.5q113 0 189.5 -64t84.5 -164h-22q-7 91 -79.5 149t-176.5 58z" />
    <glyph glyph-name="gdotaccent" unicode="&#x121;" horiz-adv-x="625" 
d="M387 594q-11 0 -18 7t-7 18t7 18t18 7t18 -7t7 -18t-7 -18t-18 -7zM565 450l-85 -480q-17 -99 -87 -159t-170 -60q-81 0 -131.5 40t-55.5 106h23q5 -57 50 -91.5t117 -34.5q90 0 153.5 54.5t79.5 144.5l19 106q-93 -91 -216 -91q-86 0 -139 57.5t-53 144.5
q0 112 82 194.5t194 82.5q123 0 184 -90l14 76h21zM265 5q60 0 118 27.5t101 76.5l40 231q-25 49 -73 76.5t-108 27.5q-102 0 -176.5 -76t-74.5 -178q0 -79 47.5 -132t125.5 -53z" />
    <glyph glyph-name="Gcommaaccent" unicode="&#x122;" horiz-adv-x="827" 
d="M503 673q-138 0 -252 -97.5t-139 -235.5q-24 -139 53.5 -236t214.5 -97q129 0 225 89t125 224h-297l3 20h320v-3l-60 -337h-22l35 201q-50 -98 -137.5 -156.5t-194.5 -58.5q-146 0 -229.5 103t-57.5 251q26 147 148 250.5t269 103.5q113 0 189.5 -64t84.5 -164h-22
q-7 91 -79.5 149t-176.5 58zM347 -81q9 0 17 -6.5t8 -20.5q0 -10 -9 -27t-54 -92h-18l57 98q-26 0 -26 23q0 11 7 18t18 7z" />
    <glyph glyph-name="gcommaaccent" unicode="&#x123;" horiz-adv-x="626" 
d="M372 581q-9 0 -17 6.5t-8 20.5q0 10 9 27t54 92h18l-57 -98q26 0 26 -23q0 -11 -7 -18t-18 -7zM565 450l-85 -480q-17 -99 -87 -159t-170 -60q-81 0 -131.5 40t-55.5 106h23q5 -57 50 -91.5t117 -34.5q90 0 153.5 54.5t79.5 144.5l19 106q-93 -91 -216 -91
q-86 0 -139 57.5t-53 144.5q0 112 82 194.5t194 82.5q123 0 184 -90l14 76h21zM265 5q60 0 118 27.5t101 76.5l40 231q-25 49 -73 76.5t-108 27.5q-102 0 -176.5 -76t-74.5 -178q0 -79 47.5 -132t125.5 -53z" />
    <glyph glyph-name="Hbar" unicode="&#x126;" horiz-adv-x="759" 
d="M742 520h-46l-92 -520h-22l58 331h-485l-58 -331h-22l92 520h-52l4 20h51l25 140h22l-25 -140h485l25 140h22l-25 -140h47zM674 520h-485l-30 -170h485z" />
    <glyph glyph-name="hbar" unicode="&#x127;" horiz-adv-x="572" 
d="M351 465q83 0 125.5 -51.5t26.5 -141.5l-48 -272h-21l48 272q15 81 -23 127t-111 46q-61 0 -119 -27.5t-95 -74.5l-60 -343h-21l104 588h-88l4 20h87l18 102h21l-18 -102h190l-4 -20h-189l-38 -211q39 41 94.5 64.5t116.5 23.5z" />
    <glyph glyph-name="Imacron" unicode="&#x12a;" horiz-adv-x="252" 
d="M360 798l-4 -18h-276l4 18h276zM97 0h-22l120 680h22z" />
    <glyph glyph-name="imacron" unicode="&#x12b;" horiz-adv-x="221" 
d="M311 588l-4 -18h-276l4 18h276zM161 450l-80 -450h-21l80 450h21z" />
    <glyph glyph-name="Iogonek" unicode="&#x12e;" horiz-adv-x="252" 
d="M92 -183q12 0 28 2l2 -21q-13 -3 -33 -3q-51 0 -82.5 26.5t-31.5 69.5q0 73 103 123l117 666h22l-120 -680q-22 -10 -36 -18.5t-30.5 -21.5t-25 -30t-8.5 -37q0 -35 26 -55.5t69 -20.5z" />
    <glyph glyph-name="iogonek" unicode="&#x12f;" horiz-adv-x="247" 
d="M195 652q10 0 16.5 -6.5t6.5 -16.5t-6.5 -16.5t-16.5 -6.5t-16.5 6.5t-6.5 16.5t6.5 16.5t16.5 6.5zM173 450l-79 -450q-22 -10 -36 -18.5t-30.5 -21.5t-25 -30t-8.5 -37q0 -35 26 -55.5t69 -20.5q12 0 28 2l2 -21q-13 -3 -33 -3q-51 0 -82.5 26.5t-31.5 69.5
q0 71 104 124l76 435h21z" />
    <glyph glyph-name="Idotaccent" unicode="&#x130;" horiz-adv-x="252" 
d="M236 784q-10 0 -17.5 7t-7.5 18t7.5 18t17.5 7t17.5 -7t7.5 -18t-7.5 -18t-17.5 -7zM97 0h-22l120 680h22z" />
    <glyph glyph-name="dotlessi" unicode="&#x131;" horiz-adv-x="221" 
d="M161 450l-80 -450h-21l80 450h21z" />
    <glyph glyph-name="IJ" unicode="&#x132;" horiz-adv-x="871" 
d="M97 0h-22l120 680h22zM841 680l-79 -444q-20 -115 -94.5 -183t-177.5 -68q-91 0 -143 51t-54 136h22q3 -77 49.5 -122t130.5 -45q93 0 159.5 62t85.5 169l79 444h22z" />
    <glyph glyph-name="ij" unicode="&#x133;" horiz-adv-x="501" 
d="M195 606q-10 0 -16.5 6.5t-6.5 16.5t6.5 16.5t16.5 6.5t16.5 -6.5t6.5 -16.5t-6.5 -16.5t-16.5 -6.5zM450 606q-10 0 -16.5 6.5t-6.5 16.5t6.5 16.5t16.5 6.5t16.5 -6.5t6.5 -16.5t-6.5 -16.5t-16.5 -6.5zM173 450l-79 -450h-21l79 450h21zM434 450l-81 -460
q-16 -90 -54 -128t-112 -38l3 20q63 0 96 33.5t46 112.5l81 460h21z" />
    <glyph glyph-name="Kcommaaccent" unicode="&#x136;" horiz-adv-x="717" 
d="M328 363l295 -363h-30l-283 347l-178 -151l-35 -196h-22l120 680h22l-80 -452l533 452h31zM297 -81q9 0 17 -6.5t8 -20.5q0 -10 -9 -27t-54 -92h-18l57 98q-26 0 -26 23q0 11 7 18t18 7z" />
    <glyph glyph-name="kcommaaccent" unicode="&#x137;" horiz-adv-x="552" 
d="M249 260l218 -260h-28l-207 247l-130 -99l-26 -148h-21l125 710h21l-94 -532l358 272h32zM244 -81q9 0 17 -6.5t8 -20.5q0 -10 -9 -27t-54 -92h-18l57 98q-26 0 -26 23q0 11 7 18t18 7z" />
    <glyph glyph-name="Lacute" unicode="&#x139;" horiz-adv-x="597" 
d="M233 760h-24l111 136h25zM501 20l-4 -20h-422l120 680h22l-116 -660h400z" />
    <glyph glyph-name="lacute" unicode="&#x13a;" horiz-adv-x="221" 
d="M350 945l-112 -136h-24l111 136h25zM207 710l-126 -710h-21l126 710h21z" />
    <glyph glyph-name="Lcommaaccent" unicode="&#x13b;" horiz-adv-x="597" 
d="M501 20l-4 -20h-422l120 680h22l-116 -660h400zM277 -81q9 0 17 -6.5t8 -20.5q0 -10 -9 -27t-54 -92h-18l57 98q-26 0 -26 23q0 11 7 18t18 7z" />
    <glyph glyph-name="lcommaaccent" unicode="&#x13c;" horiz-adv-x="221" 
d="M207 710l-126 -710h-21l126 710h21zM-2 -227l57 98q-26 0 -26 23q0 11 7 18t18 7q9 0 17 -6.5t8 -20.5q0 -10 -9 -27t-54 -92h-18z" />
    <glyph glyph-name="Lcaron" unicode="&#x13d;" horiz-adv-x="597" 
d="M501 20l-4 -20h-422l120 680h22l-116 -660h400zM366 510h-19l44 170h22z" />
    <glyph glyph-name="lcaron" unicode="&#x13e;" horiz-adv-x="221" 
d="M207 710l-126 -710h-21l126 710h21zM319 710l-47 -170h-19l44 170h22z" />
    <glyph glyph-name="Ldot" unicode="&#x13f;" horiz-adv-x="597" 
d="M501 20l-4 -20h-422l120 680h22l-116 -660h400zM365 276q-11 0 -18 7t-7 18t7 18t18 7t18 -7t7 -18t-7 -18t-18 -7z" />
    <glyph glyph-name="ldot" unicode="&#x140;" horiz-adv-x="281" 
d="M207 710l-126 -710h-21l126 710h21zM241 280q-11 0 -18 7t-7 18t7 18t18 7t18 -7t7 -18t-7 -18t-18 -7z" />
    <glyph glyph-name="Lslash" unicode="&#x141;" horiz-adv-x="597" 
d="M501 20l-4 -20h-422l45 255l-88 -48l4 25l88 48l71 400h22l-68 -387l183 99l-5 -25l-183 -99l-43 -248h400z" />
    <glyph glyph-name="lslash" unicode="&#x142;" horiz-adv-x="221" 
d="M233 393l-91 -50l-61 -343h-21l59 330l-85 -46l5 25l84 46l63 355h21l-61 -342l92 50z" />
    <glyph glyph-name="Nacute" unicode="&#x143;" horiz-adv-x="782" 
d="M475 760h-24l111 136h25zM747 680l-120 -680h-26l-389 651l-115 -651h-22l120 680h25l390 -651l115 651h22z" />
    <glyph glyph-name="nacute" unicode="&#x144;" horiz-adv-x="572" 
d="M347 549h-24l111 136h25zM351 465q83 0 125.5 -51.5t26.5 -141.5l-48 -272h-21l48 272q15 81 -23 127t-111 46q-61 0 -118.5 -27t-94.5 -74l-61 -344h-21l80 450h21l-13 -72q39 41 94.5 64t115.5 23z" />
    <glyph glyph-name="Ncommaaccent" unicode="&#x145;" horiz-adv-x="782" 
d="M747 680l-120 -680h-26l-389 651l-115 -651h-22l120 680h25l390 -651l115 651h22zM335 -81q9 0 17 -6.5t8 -20.5q0 -10 -9 -27t-54 -92h-18l57 98q-26 0 -26 23q0 11 7 18t18 7z" />
    <glyph glyph-name="ncommaaccent" unicode="&#x146;" horiz-adv-x="572" 
d="M351 465q83 0 125.5 -51.5t26.5 -141.5l-48 -272h-21l48 272q15 81 -23 127t-111 46q-61 0 -118.5 -27t-94.5 -74l-61 -344h-21l80 450h21l-13 -72q39 41 94.5 64t115.5 23zM236 -81q9 0 17 -6.5t8 -20.5q0 -10 -9 -27t-54 -92h-18l57 98q-26 0 -26 23q0 11 7 18t18 7z
" />
    <glyph glyph-name="Ncaron" unicode="&#x147;" horiz-adv-x="782" 
d="M481 764l-103 136h26l95 -122l138 122h30l-151 -136h-35zM747 680l-120 -680h-26l-389 651l-115 -651h-22l120 680h25l390 -651l115 651h22z" />
    <glyph glyph-name="ncaron" unicode="&#x148;" horiz-adv-x="572" 
d="M325 544l-103 136h26l95 -122l138 122h30l-151 -136h-35zM351 465q83 0 125.5 -51.5t26.5 -141.5l-48 -272h-21l48 272q15 81 -23 127t-111 46q-61 0 -118.5 -27t-94.5 -74l-61 -344h-21l80 450h21l-13 -72q39 41 94.5 64t115.5 23z" />
    <glyph glyph-name="Omacron" unicode="&#x14c;" horiz-adv-x="852" 
d="M668 798l-4 -18h-276l4 18h276zM508 694q130 0 214 -87t84 -216q0 -107 -60 -201t-157.5 -149t-204.5 -55q-130 0 -214 87t-84 216q0 107 60 201t157.5 149t204.5 55zM387 7q101 0 192.5 51.5t147.5 140.5t56 189q0 121 -78.5 203t-199.5 82q-101 0 -192.5 -51.5
t-147.5 -140.5t-56 -189q0 -121 78.5 -203t199.5 -82z" />
    <glyph glyph-name="omacron" unicode="&#x14d;" horiz-adv-x="629" 
d="M531 588l-4 -18h-276l4 18h276zM356 464q88 0 144.5 -59t56.5 -146q0 -110 -87 -192t-198 -82q-88 0 -145 59t-57 146q0 110 87 192t199 82zM275 5q101 0 180 75.5t79 175.5q0 79 -51 133.5t-130 54.5q-101 0 -180.5 -75.5t-79.5 -175.5q0 -80 51 -134t131 -54z" />
    <glyph glyph-name="Ohungarumlaut" unicode="&#x150;" horiz-adv-x="852" 
d="M537 896l-86 -136h-24l86 136h24zM661 896l-87 -136h-23l86 136h24zM508 694q130 0 214 -87t84 -216q0 -107 -60 -201t-157.5 -149t-204.5 -55q-130 0 -214 87t-84 216q0 107 60 201t157.5 149t204.5 55zM387 7q101 0 192.5 51.5t147.5 140.5t56 189q0 121 -78.5 203
t-199.5 82q-101 0 -192.5 -51.5t-147.5 -140.5t-56 -189q0 -121 78.5 -203t199.5 -82z" />
    <glyph glyph-name="ohungarumlaut" unicode="&#x151;" horiz-adv-x="629" 
d="M407 686l-86 -136h-24l86 136h24zM531 686l-87 -136h-23l86 136h24zM356 464q88 0 144.5 -59t56.5 -146q0 -110 -87 -192t-198 -82q-88 0 -145 59t-57 146q0 110 87 192t199 82zM275 5q101 0 180 75.5t79 175.5q0 79 -51 133.5t-130 54.5q-101 0 -180.5 -75.5
t-79.5 -175.5q0 -80 51 -134t131 -54z" />
    <glyph glyph-name="OE" unicode="&#x152;" horiz-adv-x="1068" 
d="M614 660l-54 -310h390l-4 -20h-390l-54 -310h430l-4 -20h-521q-150 0 -240 81t-90 209q0 165 130.5 277.5t319.5 112.5h521l-4 -20h-430zM592 658l-69 1q-179 0 -301 -105.5t-122 -260.5q0 -120 84.5 -196t225.5 -76l70 1z" />
    <glyph glyph-name="oe" unicode="&#x153;" horiz-adv-x="1056" 
d="M802 464q97 0 145 -69t31 -174q0 -3 -1 -4h-424q-1 -3 -2 -10t-2 -11q-5 -81 42.5 -135.5t129.5 -54.5q61 0 112 26t77 70h24q-29 -53 -87 -84.5t-129 -31.5q-77 0 -127.5 44t-61.5 115q-36 -71 -107 -115.5t-150 -44.5q-88 0 -145 59t-57 146q0 110 87 192t199 82
q77 0 131 -46.5t67 -118.5q34 73 101.5 119t146.5 46zM275 5q85 0 157.5 56.5t94.5 138.5q1 4 2 12.5t1 12.5l4 17v14q0 79 -51 133.5t-130 54.5q-101 0 -180.5 -75.5t-79.5 -175.5q0 -80 51 -134t131 -54zM556 237h402q11 90 -32.5 148.5t-127.5 58.5t-151.5 -56.5
t-89.5 -141.5z" />
    <glyph glyph-name="Racute" unicode="&#x154;" horiz-adv-x="695" 
d="M397 760h-24l111 136h25zM643 507q0 -101 -72.5 -164.5t-191.5 -71.5l196 -271h-29l-194 270h-2h-205l-48 -270h-22l120 680h228q102 0 161 -46t59 -127zM148 290h206q118 0 192 58t74 156q0 73 -54 114.5t-147 41.5h-206z" />
    <glyph glyph-name="racute" unicode="&#x155;" horiz-adv-x="328" 
d="M243 549h-24l111 136h25zM154 450l-18 -103q39 54 95.5 86t114.5 32l-3 -20q-59 0 -117.5 -38.5t-97.5 -102.5l-54 -304h-21l80 450h21z" />
    <glyph glyph-name="Rcommaaccent" unicode="&#x156;" horiz-adv-x="695" 
d="M643 507q0 -101 -72.5 -164.5t-191.5 -71.5l196 -271h-29l-194 270h-2h-205l-48 -270h-22l120 680h228q102 0 161 -46t59 -127zM148 290h206q118 0 192 58t74 156q0 73 -54 114.5t-147 41.5h-206zM271 -81q9 0 17 -6.5t8 -20.5q0 -10 -9 -27t-54 -92h-18l57 98
q-26 0 -26 23q0 11 7 18t18 7z" />
    <glyph glyph-name="rcommaaccent" unicode="&#x157;" horiz-adv-x="328" 
d="M154 450l-18 -103q39 54 95.5 86t114.5 32l-3 -20q-59 0 -117.5 -38.5t-97.5 -102.5l-54 -304h-21l80 450h21zM46 -81q9 0 17 -6.5t8 -20.5q0 -10 -9 -27t-54 -92h-18l57 98q-26 0 -26 23q0 11 7 18t18 7z" />
    <glyph glyph-name="Rcaron" unicode="&#x158;" horiz-adv-x="695" 
d="M403 764l-103 136h26l95 -122l138 122h30l-151 -136h-35zM643 507q0 -101 -72.5 -164.5t-191.5 -71.5l196 -271h-29l-194 270h-2h-205l-48 -270h-22l120 680h228q102 0 161 -46t59 -127zM148 290h206q118 0 192 58t74 156q0 73 -54 114.5t-147 41.5h-206z" />
    <glyph glyph-name="rcaron" unicode="&#x159;" horiz-adv-x="328" 
d="M221 544l-103 136h26l95 -122l138 122h30l-151 -136h-35zM154 450l-18 -103q39 54 95.5 86t114.5 32l-3 -20q-59 0 -117.5 -38.5t-97.5 -102.5l-54 -304h-21l80 450h21z" />
    <glyph glyph-name="Sacute" unicode="&#x15a;" horiz-adv-x="653" 
d="M523 896l-112 -136h-24l111 136h25zM403 695q111 0 167 -49.5t55 -132.5h-22q-2 77 -53 119.5t-150 42.5q-103 0 -169.5 -50.5t-66.5 -127.5q0 -46 37.5 -78.5t107.5 -45.5l117 -23q71 -13 109 -50.5t38 -92.5q0 -96 -80 -159t-202 -63q-119 0 -178.5 58t-55.5 169h22
q-2 -101 52 -154t164 -53t182.5 56t72.5 141q0 50 -34.5 83t-98.5 45l-120 24q-75 14 -115.5 51t-40.5 91q0 86 74 142.5t188 56.5z" />
    <glyph glyph-name="sacute" unicode="&#x15b;" horiz-adv-x="545" 
d="M445 685l-112 -136h-24l111 136h25zM57 126h22q5 -56 48.5 -88.5t121.5 -32.5q80 0 128.5 33t48.5 89q0 72 -88 87l-104 17q-58 10 -87 32.5t-29 65.5q0 61 54 98.5t137 37.5t130.5 -37.5t41.5 -98.5h-20q3 55 -36 85.5t-116 30.5q-78 0 -124 -30.5t-46 -81.5
q0 -34 23 -53t76 -29l95 -16q52 -9 83 -31.5t31 -73.5q0 -67 -55.5 -106t-142.5 -39q-86 0 -137 38t-55 103z" />
    <glyph glyph-name="Scedilla" unicode="&#x15e;" horiz-adv-x="653" 
d="M403 695q111 0 167 -49.5t55 -132.5h-22q-2 77 -53 119.5t-150 42.5q-103 0 -169.5 -50.5t-66.5 -127.5q0 -46 37.5 -78.5t107.5 -45.5l117 -23q71 -13 109 -50.5t38 -92.5q0 -96 -80 -159t-202 -63q-119 0 -178.5 58t-55.5 169h22q-2 -101 52 -154t164 -53t182.5 56
t72.5 141q0 50 -34.5 83t-98.5 45l-120 24q-75 14 -115.5 51t-40.5 91q0 86 74 142.5t188 56.5zM187 -219h-23l72 133h24z" />
    <glyph glyph-name="scedilla" unicode="&#x15f;" horiz-adv-x="545" 
d="M57 126h22q5 -56 48.5 -88.5t121.5 -32.5q80 0 128.5 33t48.5 89q0 72 -88 87l-104 17q-58 10 -87 32.5t-29 65.5q0 61 54 98.5t137 37.5t130.5 -37.5t41.5 -98.5h-20q3 55 -36 85.5t-116 30.5q-78 0 -124 -30.5t-46 -81.5q0 -34 23 -53t76 -29l95 -16q52 -9 83 -31.5
t31 -73.5q0 -67 -55.5 -106t-142.5 -39q-86 0 -137 38t-55 103zM160 -219h-23l72 133h24z" />
    <glyph glyph-name="Scaron" unicode="&#x160;" horiz-adv-x="653" 
d="M603 900l-151 -136h-35l-103 136h26l95 -122l138 122h30zM403 695q111 0 167 -49.5t55 -132.5h-22q-2 77 -53 119.5t-150 42.5q-103 0 -169.5 -50.5t-66.5 -127.5q0 -46 37.5 -78.5t107.5 -45.5l117 -23q71 -13 109 -50.5t38 -92.5q0 -96 -80 -159t-202 -63
q-119 0 -178.5 58t-55.5 169h22q-2 -101 52 -154t164 -53t182.5 56t72.5 141q0 50 -34.5 83t-98.5 45l-120 24q-75 14 -115.5 51t-40.5 91q0 86 74 142.5t188 56.5z" />
    <glyph glyph-name="scaron" unicode="&#x161;" horiz-adv-x="545" 
d="M497 680l-151 -136h-35l-103 136h26l95 -122l138 122h30zM57 126h22q5 -56 48.5 -88.5t121.5 -32.5q80 0 128.5 33t48.5 89q0 72 -88 87l-104 17q-58 10 -87 32.5t-29 65.5q0 61 54 98.5t137 37.5t130.5 -37.5t41.5 -98.5h-20q3 55 -36 85.5t-116 30.5q-78 0 -124 -30.5
t-46 -81.5q0 -34 23 -53t76 -29l95 -16q52 -9 83 -31.5t31 -73.5q0 -67 -55.5 -106t-142.5 -39q-86 0 -137 38t-55 103z" />
    <glyph glyph-name="Tcedilla" unicode="&#x162;" horiz-adv-x="622" 
d="M668 660h-270l-116 -660h-22l116 660h-270l4 20h562zM250 -86h24l-73 -133h-23z" />
    <glyph glyph-name="tcedilla" unicode="&#x163;" horiz-adv-x="413" 
d="M204 430l-49 -279q-12 -66 12.5 -106t77.5 -40q33 0 78 10l1 -18q-48 -12 -83 -12q-62 0 -91 45.5t-16 120.5l49 279h-140l3 20h140l30 170h21l-30 -170h174l-3 -20h-174zM173 -86h24l-73 -133h-23z" />
    <glyph glyph-name="Tcaron" unicode="&#x164;" horiz-adv-x="622" 
d="M391 764l-103 136h26l95 -122l138 122h30l-151 -136h-35zM668 660h-270l-116 -660h-22l116 660h-270l4 20h562z" />
    <glyph glyph-name="tcaron" unicode="&#x165;" horiz-adv-x="413" 
d="M323 542h-19l44 170h22zM204 430l-49 -279q-12 -66 12.5 -106t77.5 -40q33 0 78 10l1 -18q-48 -12 -83 -12q-62 0 -91 45.5t-16 120.5l49 279h-140l3 20h140l30 170h21l-30 -170h174l-3 -20h-174z" />
    <glyph glyph-name="Umacron" unicode="&#x16a;" horiz-adv-x="771" 
d="M607 798l-4 -18h-276l4 18h276zM741 680l-71 -404q-22 -125 -113.5 -208t-214.5 -83t-186.5 83.5t-41.5 207.5l71 404h22l-71 -404q-21 -115 36.5 -193t170.5 -78q114 0 199 78t106 193l71 404h22z" />
    <glyph glyph-name="umacron" unicode="&#x16b;" horiz-adv-x="584" 
d="M486 570h-276l4 18h276zM519 450l-79 -450h-21l13 72q-39 -41 -95 -64t-116 -23q-83 0 -125 51.5t-27 141.5l48 272h21l-48 -272q-14 -81 24 -127t111 -46q61 0 118.5 27t94.5 74l60 344h21z" />
    <glyph glyph-name="Uring" unicode="&#x16e;" horiz-adv-x="771" 
d="M473 949q37 0 62 -24.5t25 -61.5t-25 -61.5t-62 -24.5t-62 24.5t-25 61.5t25 61.5t62 24.5zM473 795q29 0 48.5 19.5t19.5 48.5q0 28 -20 48t-48 20t-48 -20t-20 -48q0 -29 19.5 -48.5t48.5 -19.5zM741 680l-71 -404q-22 -125 -113.5 -208t-214.5 -83t-186.5 83.5
t-41.5 207.5l71 404h22l-71 -404q-21 -115 36.5 -193t170.5 -78q114 0 199 78t106 193l71 404h22z" />
    <glyph glyph-name="uring" unicode="&#x16f;" horiz-adv-x="584" 
d="M333 547q-37 0 -62 24.5t-25 61.5t25 61.5t62 24.5t62 -24.5t25 -61.5t-25 -61.5t-62 -24.5zM333 701q-28 0 -48 -20t-20 -48q0 -29 19.5 -48.5t48.5 -19.5t48.5 19.5t19.5 48.5q0 28 -20 48t-48 20zM519 450l-79 -450h-21l13 72q-39 -41 -95 -64t-116 -23
q-83 0 -125 51.5t-27 141.5l48 272h21l-48 -272q-14 -81 24 -127t111 -46q61 0 118.5 27t94.5 74l60 344h21z" />
    <glyph glyph-name="Uhungarumlaut" unicode="&#x170;" horiz-adv-x="771" 
d="M496 896l-86 -136h-24l86 136h24zM620 896l-87 -136h-23l86 136h24zM741 680l-71 -404q-22 -125 -113.5 -208t-214.5 -83t-186.5 83.5t-41.5 207.5l71 404h22l-71 -404q-21 -115 36.5 -193t170.5 -78q114 0 199 78t106 193l71 404h22z" />
    <glyph glyph-name="uhungarumlaut" unicode="&#x171;" horiz-adv-x="572" 
d="M258 550h-24l86 136h24zM381 550h-23l86 136h24zM519 450l-79 -450h-21l13 72q-39 -41 -95 -64t-116 -23q-83 0 -125 51.5t-27 141.5l48 272h21l-48 -272q-14 -81 24 -127t111 -46q61 0 118.5 27t94.5 74l60 344h21z" />
    <glyph glyph-name="Uogonek" unicode="&#x172;" horiz-adv-x="771" 
d="M741 680l-71 -404q-17 -91 -72 -162.5t-136 -104.5q-77 -41 -77 -97q0 -35 26 -55.5t69 -20.5q12 0 28 2l2 -21q-14 -3 -33 -3q-51 0 -82.5 26.5t-31.5 69.5q0 45 38 80q-32 -5 -59 -5q-123 0 -186.5 83.5t-41.5 207.5l71 404h22l-71 -404q-21 -115 36.5 -193t170.5 -78
q114 0 199 78t106 193l71 404h22z" />
    <glyph glyph-name="uogonek" unicode="&#x173;" horiz-adv-x="584" 
d="M434 -183q12 0 28 2l2 -21q-14 -3 -33 -3q-51 0 -82.5 26.5t-31.5 69.5q0 73 105 124l10 57q-39 -41 -95 -64t-116 -23q-83 0 -125 51.5t-27 141.5l48 272h21l-48 -272q-14 -81 24 -127t111 -46q61 0 118.5 27t94.5 74l60 344h21l-79 -450h-1q-22 -10 -36 -18.5
t-30.5 -21.5t-25 -30t-8.5 -37q0 -35 26 -55.5t69 -20.5z" />
    <glyph glyph-name="Wcircumflex" unicode="&#x174;" horiz-adv-x="1054" 
d="M506 764h-31l153 136h36l101 -136h-26l-94 122zM1080 680l-360 -685h-21l-101 653l-333 -653h-21l-118 685h22l111 -652l333 652h22l101 -651l341 651h24z" />
    <glyph glyph-name="wcircumflex" unicode="&#x175;" horiz-adv-x="767" 
d="M344 544h-31l153 136h36l101 -136h-26l-94 122zM757 450l-250 -450h-23l-67 415l-212 -415h-23l-92 450h22l85 -418l215 418h21l67 -420l234 420h23z" />
    <glyph glyph-name="Ycircumflex" unicode="&#x176;" horiz-adv-x="640" 
d="M279 764h-31l153 136h36l101 -136h-26l-94 122zM332 257l-45 -257h-22l45 257l-214 423h25l202 -400l346 400h27z" />
    <glyph glyph-name="ycircumflex" unicode="&#x177;" horiz-adv-x="561" 
d="M214 544h-31l153 136h36l101 -136h-26l-94 122zM564 450l-462 -710h-27l150 230l-152 480h24l144 -455l296 455h27z" />
    <glyph glyph-name="Ydieresis" unicode="&#x178;" horiz-adv-x="640" 
d="M313 784q-11 0 -18 7t-7 18t7 18t18 7t18 -7t7 -18t-7 -18t-18 -7zM479 784q-11 0 -18 7t-7 18t7 18t18 7t18 -7t7 -18t-7 -18t-18 -7zM332 257l-45 -257h-22l45 257l-214 423h25l202 -400l346 400h27z" />
    <glyph glyph-name="Zacute" unicode="&#x179;" horiz-adv-x="655" 
d="M411 760h-24l111 136h25zM651 663l-581 -643h468l-4 -20h-500l3 17l584 643h-461l4 20h490z" />
    <glyph glyph-name="zacute" unicode="&#x17a;" horiz-adv-x="489" 
d="M308 549h-24l111 136h25zM466 433l-413 -413h340l-4 -20h-369l3 17l412 413h-325l4 20h355z" />
    <glyph glyph-name="Zdotaccent" unicode="&#x17b;" horiz-adv-x="655" 
d="M417 784q-11 0 -18 7t-7 18t7 18t18 7t18 -7t7 -18t-7 -18t-18 -7zM651 663l-581 -643h468l-4 -20h-500l3 17l584 643h-461l4 20h490z" />
    <glyph glyph-name="zdotaccent" unicode="&#x17c;" horiz-adv-x="489" 
d="M305 594q-11 0 -18 7t-7 18t7 18t18 7t18 -7t7 -18t-7 -18t-18 -7zM466 433l-413 -413h340l-4 -20h-369l3 17l412 413h-325l4 20h355z" />
    <glyph glyph-name="Zcaron" unicode="&#x17d;" horiz-adv-x="655" 
d="M417 764l-103 136h26l95 -122l138 122h30l-151 -136h-35zM651 663l-581 -643h468l-4 -20h-500l3 17l584 643h-461l4 20h490z" />
    <glyph glyph-name="zcaron" unicode="&#x17e;" horiz-adv-x="489" 
d="M286 544l-103 136h26l95 -122l138 122h30l-151 -136h-35zM114 450h355l-3 -17l-413 -413h340l-4 -20h-369l3 17l412 413h-325z" />
    <glyph glyph-name="florin" unicode="&#x192;" horiz-adv-x="425" 
d="M434 685q34 0 79 -12l-8 -18q-42 10 -74 10q-99 0 -139 -126l-56 -179h172l-4 -20h-174l-78 -259q-45 -146 -163 -146q-34 0 -79 12l8 18q42 -10 74 -10q99 0 139 126l78 259h-130l4 20h132l56 179q47 146 163 146z" />
    <glyph glyph-name="Acaron" unicode="&#x1cd;" horiz-adv-x="741" 
d="M449 764l-103 136h26l95 -122l138 122h30l-151 -136h-35zM566 244h-385l-156 -244h-26l439 685h23l199 -685h-23zM560 264l-114 394l-252 -394h366z" />
    <glyph glyph-name="acaron" unicode="&#x1ce;" horiz-adv-x="625" 
d="M361 544l-103 136h26l95 -122l138 122h30l-151 -136h-35zM565 450l-80 -450h-21l13 75q-90 -90 -205 -90q-88 0 -145 59t-57 146q0 110 87 192t199 82q116 0 174 -90l14 76h21zM275 5q120 0 208 104l41 231q-51 104 -171 104q-101 0 -180.5 -75.5t-79.5 -175.5
q0 -80 51 -134t131 -54z" />
    <glyph glyph-name="Scommaaccent" unicode="&#x218;" horiz-adv-x="653" 
d="M403 695q111 0 167 -49.5t55 -132.5h-22q-2 77 -53 119.5t-150 42.5q-103 0 -169.5 -50.5t-66.5 -127.5q0 -46 37.5 -78.5t107.5 -45.5l117 -23q71 -13 109 -50.5t38 -92.5q0 -96 -80 -159t-202 -63q-119 0 -178.5 58t-55.5 169h22q-2 -101 52 -154t164 -53t182.5 56
t72.5 141q0 50 -34.5 83t-98.5 45l-120 24q-75 14 -115.5 51t-40.5 91q0 86 74 142.5t188 56.5zM229 -227l57 98q-26 0 -26 23q0 11 7 18t18 7q9 0 17 -6.5t8 -20.5q0 -10 -9 -27t-54 -92h-18z" />
    <glyph glyph-name="scommaaccent" unicode="&#x219;" horiz-adv-x="545" 
d="M57 126h22q5 -56 48.5 -88.5t121.5 -32.5q80 0 128.5 33t48.5 89q0 72 -88 87l-104 17q-58 10 -87 32.5t-29 65.5q0 61 54 98.5t137 37.5t130.5 -37.5t41.5 -98.5h-20q3 55 -36 85.5t-116 30.5q-78 0 -124 -30.5t-46 -81.5q0 -34 23 -53t76 -29l95 -16q52 -9 83 -31.5
t31 -73.5q0 -67 -55.5 -106t-142.5 -39q-86 0 -137 38t-55 103zM182 -227l57 98q-26 0 -26 23q0 11 7 18t18 7q9 0 17 -6.5t8 -20.5q0 -10 -9 -27t-54 -92h-18z" />
    <glyph glyph-name="uni021A" unicode="&#x21a;" horiz-adv-x="622" 
d="M668 660h-270l-116 -660h-22l116 660h-270l4 20h562zM250 -81q9 0 17 -6.5t8 -20.5q0 -10 -9 -27t-54 -92h-18l57 98q-26 0 -26 23q0 11 7 18t18 7z" />
    <glyph glyph-name="uni021B" unicode="&#x21b;" horiz-adv-x="413" 
d="M204 430l-49 -279q-12 -66 12.5 -106t77.5 -40q33 0 78 10l1 -18q-48 -12 -83 -12q-62 0 -91 45.5t-16 120.5l49 279h-140l3 20h140l30 170h21l-30 -170h174l-3 -20h-174zM202 -81q9 0 17 -6.5t8 -20.5q0 -10 -9 -27t-54 -92h-18l57 98q-26 0 -26 23q0 11 7 18t18 7z" />
    <glyph glyph-name="circumflex" unicode="&#x2c6;" 
d="M342 696l-139 -122h-31l153 136h36l101 -136h-26z" />
    <glyph glyph-name="caron" unicode="&#x2c7;" 
d="M516 710l-151 -136h-35l-103 136h26l95 -122l138 122h30z" />
    <glyph glyph-name="breve" unicode="&#x2d8;" 
d="M445 685h22q-10 -59 -54 -91.5t-96 -32.5t-86 33t-24 91h20q-8 -50 20.5 -77.5t70.5 -27.5q41 0 80 28t47 77z" />
    <glyph glyph-name="dotaccent" unicode="&#x2d9;" 
d="M330 574q-10 0 -17.5 7t-7.5 18t7.5 18t17.5 7t17.5 -7t7.5 -18t-7.5 -18t-17.5 -7z" />
    <glyph glyph-name="ring" unicode="&#x2da;" 
d="M320 739q37 0 62 -24.5t25 -61.5t-25 -61.5t-62 -24.5t-62 24.5t-25 61.5t25 61.5t62 24.5zM320 585q28 0 48 19.5t20 48.5q0 28 -20 48t-48 20t-48 -20t-20 -48q0 -29 20 -48.5t48 -19.5z" />
    <glyph glyph-name="ogonek" unicode="&#x2db;" 
d="M350 12l10 -19q-22 -10 -36 -18.5t-30.5 -21.5t-25 -30t-8.5 -37q0 -35 26 -55.5t69 -20.5q12 0 28 2l2 -21q-14 -3 -33 -3q-51 0 -82.5 26.5t-31.5 69.5q0 24 10.5 45t29.5 37t34.5 25.5t37.5 20.5z" />
    <glyph glyph-name="tilde" unicode="&#x2dc;" 
d="M427 677h19q0 -54 -41 -68.5t-81 16.5l-38 27q-29 23 -61 13.5t-32 -48.5h-19q0 35 21 53t49.5 16.5t51.5 -18.5l37 -26q35 -25 64.5 -15t29.5 50z" />
    <glyph glyph-name="hungarumlaut" unicode="&#x2dd;" 
d="M333 706l-86 -136h-24l86 136h24zM457 706l-87 -136h-23l86 136h24z" />
    <glyph glyph-name="uni0326" unicode="&#x326;" horiz-adv-x="0" 
d="M227 -227l57 98q-26 0 -26 23q0 11 7 18t18 7q9 0 17 -6.5t8 -20.5q0 -10 -9 -27t-54 -92h-18z" />
    <glyph glyph-name="Wgrave" unicode="&#x1e80;" horiz-adv-x="1054" 
d="M598 760l-88 136h25l87 -136h-24zM1080 680l-360 -685h-21l-101 653l-333 -653h-21l-118 685h22l111 -652l333 652h22l101 -651l341 651h24z" />
    <glyph glyph-name="wgrave" unicode="&#x1e81;" horiz-adv-x="767" 
d="M419 550l-88 136h25l87 -136h-24zM757 450l-250 -450h-23l-67 415l-212 -415h-23l-92 450h22l85 -418l215 418h21l67 -420l234 420h23z" />
    <glyph glyph-name="Wacute" unicode="&#x1e82;" horiz-adv-x="1054" 
d="M627 760h-24l111 136h25zM1080 680l-360 -685h-21l-101 653l-333 -653h-21l-118 685h22l111 -652l333 652h22l101 -651l341 651h24z" />
    <glyph glyph-name="wacute" unicode="&#x1e83;" horiz-adv-x="767" 
d="M447 549h-24l111 136h25zM757 450l-250 -450h-23l-67 415l-212 -415h-23l-92 450h22l85 -418l215 418h21l67 -420l234 420h23z" />
    <glyph glyph-name="Wdieresis" unicode="&#x1e84;" horiz-adv-x="1054" 
d="M540 784q-10 0 -17.5 7t-7.5 18t7.5 18t17.5 7t17.5 -7t7.5 -18t-7.5 -18t-17.5 -7zM706 784q-10 0 -17.5 7t-7.5 18t7.5 18t17.5 7t17.5 -7t7.5 -18t-7.5 -18t-17.5 -7zM1080 680l-360 -685h-21l-101 653l-333 -653h-21l-118 685h22l111 -652l333 652h22l101 -651
l341 651h24z" />
    <glyph glyph-name="wdieresis" unicode="&#x1e85;" horiz-adv-x="767" 
d="M361 594q-11 0 -18 7t-7 18t7 18t18 7t18 -7t7 -18t-7 -18t-18 -7zM527 594q-11 0 -18 7t-7 18t7 18t18 7t18 -7t7 -18t-7 -18t-18 -7zM757 450l-250 -450h-23l-67 415l-212 -415h-23l-92 450h22l85 -418l215 418h21l67 -420l234 420h23z" />
    <glyph glyph-name="Ygrave" unicode="&#x1ef2;" horiz-adv-x="640" 
d="M371 760l-88 136h25l87 -136h-24zM332 257l-45 -257h-22l45 257l-214 423h25l202 -400l346 400h27z" />
    <glyph glyph-name="ygrave" unicode="&#x1ef3;" horiz-adv-x="561" 
d="M323 550l-88 136h25l87 -136h-24zM564 450l-462 -710h-27l150 230l-152 480h24l144 -455l296 455h27z" />
    <glyph glyph-name="endash" unicode="&#x2013;" horiz-adv-x="737" 
d="M629 291l-4 -21h-497l4 21h497z" />
    <glyph glyph-name="emdash" unicode="&#x2014;" horiz-adv-x="950" 
d="M842 291l-4 -21h-710l4 21h710z" />
    <glyph glyph-name="quoteleft" unicode="&#x2018;" horiz-adv-x="158" 
d="M203 680l-80 -155q18 -3 18 -20q0 -10 -6.5 -16.5t-16.5 -6.5t-16.5 6.5t-6.5 16.5q0 9 17 41l73 134h18z" />
    <glyph glyph-name="quoteright" unicode="&#x2019;" horiz-adv-x="178" 
d="M94 485l80 155q-18 3 -18 20q0 10 6.5 16.5t16.5 6.5t16.5 -6.5t6.5 -16.5q0 -9 -17 -41l-73 -134h-18z" />
    <glyph glyph-name="quotesinglbase" unicode="&#x201a;" horiz-adv-x="178" 
d="M-28 -160l80 155q-18 3 -18 20q0 10 6.5 16.5t16.5 6.5t16.5 -6.5t6.5 -16.5q0 -9 -17 -41l-73 -134h-18z" />
    <glyph glyph-name="quotedblleft" unicode="&#x201c;" horiz-adv-x="318" 
d="M208 680l-80 -155q18 -3 18 -20q0 -10 -6.5 -16.5t-16.5 -6.5t-16.5 6.5t-6.5 16.5q0 9 17 41l73 134h18zM348 680l-80 -155q18 -3 18 -20q0 -10 -6.5 -16.5t-16.5 -6.5t-16.5 6.5t-6.5 16.5q0 9 17 41l73 134h18z" />
    <glyph glyph-name="quotedblright" unicode="&#x201d;" horiz-adv-x="319" 
d="M86 485l80 155q-18 3 -18 20q0 10 6.5 16.5t16.5 6.5t16.5 -6.5t6.5 -16.5q0 -9 -17 -41l-73 -134h-18zM227 485l80 155q-18 3 -18 20q0 10 6.5 16.5t16.5 6.5t16.5 -6.5t6.5 -16.5q0 -9 -17 -41l-73 -134h-18z" />
    <glyph glyph-name="quotedblbase" unicode="&#x201e;" horiz-adv-x="319" 
d="M-28 -160l80 155q-18 3 -18 20q0 10 6.5 16.5t16.5 6.5t16.5 -6.5t6.5 -16.5q0 -9 -17 -41l-73 -134h-18zM113 -160l80 155q-18 3 -18 20q0 10 6.5 16.5t16.5 6.5t16.5 -6.5t6.5 -16.5q0 -9 -17 -41l-73 -134h-18z" />
    <glyph glyph-name="dagger" unicode="&#x2020;" horiz-adv-x="404" 
d="M270 576l-39 -222h-21l39 222h-131l4 21h131l23 131h21l-23 -131h132l-4 -21h-132z" />
    <glyph glyph-name="daggerdbl" unicode="&#x2021;" horiz-adv-x="404" 
d="M258 497h132l-3 -21h-132l-22 -122h-21l22 122h-131l3 21h131l18 99h-131l3 21h131l20 111h21l-20 -111h132l-3 -21h-132z" />
    <glyph glyph-name="bullet" unicode="&#x2022;" horiz-adv-x="305" 
d="M167 200q-39 0 -68 29t-29 68t29 68t68 29q40 0 69 -29t29 -68t-29 -68t-69 -29z" />
    <glyph glyph-name="ellipsis" unicode="&#x2026;" horiz-adv-x="489" 
d="M36 -8q-10 0 -16.5 6.5t-6.5 16.5t6.5 16.5t16.5 6.5t16.5 -6.5t6.5 -16.5t-6.5 -16.5t-16.5 -6.5zM211 -8q-10 0 -16.5 6.5t-6.5 16.5t6.5 16.5t16.5 6.5t16.5 -6.5t6.5 -16.5t-6.5 -16.5t-16.5 -6.5zM379 -8q-10 0 -16.5 6.5t-6.5 16.5t6.5 16.5t16.5 6.5t16.5 -6.5
t6.5 -16.5t-6.5 -16.5t-16.5 -6.5z" />
    <glyph glyph-name="perthousand" unicode="&#x2030;" horiz-adv-x="1574" 
d="M353 695q66 0 107.5 -44t41.5 -111q0 -88 -64 -150.5t-150 -62.5q-67 0 -108.5 44t-41.5 111q0 88 64.5 150.5t150.5 62.5zM360 0h-24l444 680h24zM349 674q-75 0 -132.5 -55.5t-57.5 -132.5q0 -59 37.5 -98t95.5 -39q75 0 132 55t57 132q0 60 -37 99t-95 39zM877 353
q66 0 108 -44t42 -111q0 -88 -64 -150.5t-151 -62.5q-66 0 -107.5 44t-41.5 111q0 88 64 150.5t150 62.5zM1326 353q67 0 108.5 -44t41.5 -111q0 -88 -64 -150.5t-151 -62.5q-66 0 -107.5 44t-41.5 111q0 88 64 150.5t150 62.5zM874 332q-75 0 -132.5 -55t-57.5 -133
q0 -59 37 -98t95 -39q75 0 132.5 55t57.5 132q0 60 -37 99t-95 39zM1323 332q-75 0 -132.5 -55t-57.5 -133q0 -59 37 -98t95 -39q75 0 132.5 55t57.5 132q0 60 -37 99t-95 39z" />
    <glyph glyph-name="guilsinglleft" unicode="&#x2039;" horiz-adv-x="264" 
d="M218 396l-147 -146l96 -142h-25l-97 144l147 144h26z" />
    <glyph glyph-name="guilsinglright" unicode="&#x203a;" horiz-adv-x="264" 
d="M56 108l147 146l-96 142h25l97 -144l-147 -144h-26z" />
    <glyph glyph-name="fraction" unicode="&#x2044;" horiz-adv-x="408" 
d="M-6 0h-24l444 680h24z" />
    <glyph glyph-name="zerosuperior" unicode="&#x2070;" horiz-adv-x="422" 
d="M292 691q63 0 97.5 -41.5t34.5 -108.5q0 -95 -55.5 -160.5t-142.5 -65.5q-63 0 -97.5 42t-34.5 109q0 93 56 159t142 66zM229 335q76 0 124.5 59.5t48.5 143.5q0 59 -29.5 96.5t-83.5 37.5q-75 0 -124 -60t-49 -143q0 -60 29.5 -97t83.5 -37z" />
    <glyph glyph-name="foursuperior" unicode="&#x2074;" horiz-adv-x="388" 
d="M373 406h-67l-14 -83h-20l14 83h-211l3 14l167 263h22l-161 -257h184l21 122h20l-21 -122h67z" />
    <glyph glyph-name="fivesuperior" unicode="&#x2075;" horiz-adv-x="365" 
d="M175 664l-26 -144h-20l29 163h219l-3 -19h-199zM334 445q0 34 -25.5 55t-69.5 21l-90 -1l4 20h91q52 0 81.5 -25t29.5 -67q0 -55 -45 -94t-111 -39q-58 0 -89.5 27.5t-33.5 75.5h22q2 -40 28.5 -62t75.5 -22q55 0 93.5 33t38.5 78z" />
    <glyph glyph-name="sixsuperior" unicode="&#x2076;" horiz-adv-x="358" 
d="M239 561q52 0 84 -28t32 -75q0 -61 -46.5 -102t-113.5 -41q-52 0 -84.5 29t-32.5 76q0 49 44 98l159 165h26l-125 -132q28 10 57 10zM198 334q55 0 95 34t40 85q0 39 -27.5 63.5t-70.5 24.5q-58 0 -92 -31l-5 -5q-38 -34 -38 -83q0 -39 27 -63.5t71 -24.5z" />
    <glyph glyph-name="sevensuperior" unicode="&#x2077;" horiz-adv-x="291" 
d="M361 683l-3 -13l-248 -347h-26l243 340h-226l4 20h256z" />
    <glyph glyph-name="eightsuperior" unicode="&#x2078;" horiz-adv-x="377" 
d="M300 513q69 -21 69 -79q0 -52 -44.5 -85.5t-114.5 -33.5q-56 0 -88.5 25t-32.5 66q0 40 28 68.5t75 39.5q-55 19 -55 69q0 45 41 76.5t98 31.5q48 0 78 -23.5t30 -59.5q0 -35 -23 -59.5t-61 -35.5zM159 585q0 -30 24 -47.5t64 -17.5q50 0 82.5 23.5t32.5 61.5
q0 29 -24 48.5t-64 19.5q-47 0 -81 -25.5t-34 -62.5zM213 334q58 0 95.5 28t37.5 71q0 32 -27.5 52t-74.5 20q-57 0 -94 -26.5t-37 -68.5q0 -34 27 -55t73 -21z" />
    <glyph glyph-name="ninesuperior" unicode="&#x2079;" horiz-adv-x="358" 
d="M267 699q52 0 84.5 -29t32.5 -76q0 -49 -44 -98l-159 -165h-26l125 132q-28 -10 -57 -10q-52 0 -84 28t-32 75q0 61 46.5 102t113.5 41zM319 504l5 5q38 34 38 83q0 39 -27 63.5t-71 24.5q-55 0 -95 -34t-40 -85q0 -39 27.5 -63.5t70.5 -24.5q58 0 92 31z" />
    <glyph glyph-name="zeroinferior" unicode="&#x2080;" horiz-adv-x="422" 
d="M207 188q63 0 97.5 -41.5t34.5 -108.5q0 -95 -55.5 -160.5t-142.5 -65.5q-63 0 -97.5 42t-34.5 109q0 93 56 159t142 66zM144 -168q76 0 124.5 59.5t48.5 143.5q0 59 -29.5 96.5t-83.5 37.5q-75 0 -124 -60t-49 -143q0 -60 29.5 -97t83.5 -37z" />
    <glyph glyph-name="oneinferior" unicode="&#x2081;" horiz-adv-x="288" 
d="M200 -161l-4 -19h-238l4 19h113l56 317l-112 -38l3 20l124 42h11l-61 -341h104z" />
    <glyph glyph-name="twoinferior" unicode="&#x2082;" horiz-adv-x="353" 
d="M28 -161h206l-3 -19h-245l2 12l147 118q45 36 64.5 53.5t34.5 41.5t15 50q0 33 -22.5 53.5t-62.5 20.5q-42 0 -72 -22t-41 -59h-21q12 46 48 73t88 27q49 0 76.5 -25t27.5 -65t-25.5 -72.5t-93.5 -87.5z" />
    <glyph glyph-name="threeinferior" unicode="&#x2083;" horiz-adv-x="364" 
d="M198 2q56 -19 56 -75q0 -50 -40 -81.5t-104 -31.5q-56 0 -88.5 24.5t-29.5 64.5h22q-2 -32 24.5 -51t72.5 -19q53 0 87.5 25.5t34.5 66.5q0 31 -23.5 49.5t-63.5 18.5h-33l4 18h33v-1v1q44 0 73.5 25.5t29.5 64.5q0 31 -23 49.5t-63 18.5q-41 0 -69.5 -18.5t-39.5 -50.5
h-21q12 40 47.5 64t85.5 24q48 0 75.5 -23t27.5 -61q0 -36 -20 -63t-55 -39z" />
    <glyph glyph-name="fourinferior" unicode="&#x2084;" horiz-adv-x="388" 
d="M293 -97h-67l-14 -83h-20l14 83h-211l3 14l167 263h22l-161 -257h184l21 122h20l-21 -122h67z" />
    <glyph glyph-name="fiveinferior" unicode="&#x2085;" horiz-adv-x="365" 
d="M90 161l-26 -144h-20l29 163h219l-3 -19h-199zM249 -58q0 34 -25.5 55t-69.5 21l-90 -1l4 20h91q52 0 81.5 -25t29.5 -67q0 -55 -45 -94t-111 -39q-58 0 -89.5 27.5t-33.5 75.5h22q2 -40 28.5 -62t75.5 -22q55 0 93.5 33t38.5 78z" />
    <glyph glyph-name="sixinferior" unicode="&#x2086;" horiz-adv-x="358" 
d="M149 58q52 0 84 -28t32 -75q0 -61 -46.5 -102t-113.5 -41q-52 0 -84.5 29t-32.5 76q0 49 44 98l159 165h26l-125 -132q28 10 57 10zM108 -169q55 0 95 34t40 85q0 39 -27.5 63.5t-70.5 24.5q-58 0 -92 -31l-5 -5q-38 -34 -38 -83q0 -39 27 -63.5t71 -24.5z" />
    <glyph glyph-name="seveninferior" unicode="&#x2087;" horiz-adv-x="291" 
d="M271 180l-3 -13l-248 -347h-26l243 340h-226l4 20h256z" />
    <glyph glyph-name="eightinferior" unicode="&#x2088;" horiz-adv-x="377" 
d="M205 10q69 -21 69 -79q0 -52 -44.5 -85.5t-114.5 -33.5q-56 0 -88.5 25t-32.5 66q0 40 28 68.5t75 39.5q-55 19 -55 69q0 45 41 76.5t98 31.5q48 0 78 -23.5t30 -59.5q0 -35 -23 -59.5t-61 -35.5zM64 82q0 -30 24 -47.5t64 -17.5q50 0 82.5 23.5t32.5 61.5q0 29 -24 48.5
t-64 19.5q-47 0 -81 -25.5t-34 -62.5zM118 -169q58 0 95.5 28t37.5 71q0 32 -27.5 52t-74.5 20q-57 0 -94 -26.5t-37 -68.5q0 -34 27 -55t73 -21z" />
    <glyph glyph-name="nineinferior" unicode="&#x2089;" horiz-adv-x="358" 
d="M174 189q52 0 84.5 -29t32.5 -76q0 -49 -44 -98l-159 -165h-26l125 132q-28 -10 -57 -10q-52 0 -84 28t-32 75q0 61 46.5 102t113.5 41zM226 -6l5 5q38 34 38 83q0 39 -27 63.5t-71 24.5q-55 0 -95 -34t-40 -85q0 -39 27.5 -63.5t70.5 -24.5q58 0 92 31z" />
    <glyph glyph-name="Euro" unicode="&#x20ac;" horiz-adv-x="904" 
d="M587 673q-117 0 -219.5 -72.5t-148.5 -184.5h371l-9 -20h-369q-10 -27 -15 -56q-6 -40 -5 -74h333l-8 -20h-323q12 -105 87.5 -172t187.5 -67q110 0 199.5 57.5t129.5 149.5h24q-43 -101 -140 -164.5t-216 -63.5q-121 0 -202.5 73t-92.5 187h-139l3 20h135q-1 34 5 74
q4 27 14 56h-131l4 20h135q47 120 157.5 199t236.5 79q119 0 193 -63.5t82 -164.5h-24q-8 92 -76.5 149.5t-178.5 57.5z" />
    <glyph glyph-name="uni2116" unicode="&#x2116;" horiz-adv-x="1403" 
d="M725 680h22l-120 -680h-26l-389 651l-115 -651h-22l120 680h25l390 -651zM1019 125q-88 0 -145 59t-57 146q0 110 87 192t199 82q88 0 144.5 -59t56.5 -146q0 -110 -87 -192t-198 -82zM1100 584q-101 0 -180.5 -75.5t-79.5 -175.5q0 -80 51 -134t131 -54q101 0 180 75.5
t79 175.5q0 79 -51 133.5t-130 54.5zM784 20h454l-4 -20h-454z" />
    <glyph glyph-name="uni2117" unicode="&#x2117;" horiz-adv-x="878" 
d="M459 695q150 0 257 -102t107 -253t-107 -253t-257 -102t-257 102t-107 253t107 253t257 102zM459 676q-140 0 -241.5 -97.5t-101.5 -238.5t101.5 -238.5t241.5 -97.5t242 97.5t102 238.5t-102 238.5t-242 97.5zM346 537h132q68 0 110 -33.5t42 -88.5t-42 -88t-110 -33
h-112v-151h-20v394zM366 519v-207h112q59 0 95.5 28.5t36.5 74.5q0 47 -36.5 75.5t-95.5 28.5h-112z" />
    <glyph glyph-name="trademark" unicode="&#x2122;" horiz-adv-x="671" 
d="M341 679l-2 -16h-117l-48 -276h-18l48 276h-115l2 16h250zM687 679l-51 -292h-18l46 258l-161 -214h-8l-88 217l-45 -261h-18l51 292h17l90 -221l166 221h19z" />
    <glyph glyph-name="oneeighth" unicode="&#x215b;" horiz-adv-x="848" 
d="M43 322l4 19h113l56 317l-112 -38l3 20l124 42h11l-61 -341h104l-4 -19h-238zM640 680l-444 -680h-24l444 680h24zM706 190q69 -21 69 -79q0 -52 -44.5 -85.5t-114.5 -33.5q-56 0 -88.5 25t-32.5 66q0 40 28 68.5t75 39.5q-55 19 -55 69q0 45 41 76.5t98 31.5
q48 0 78 -23.5t30 -59.5q0 -35 -23 -59.5t-61 -35.5zM565 262q0 -30 24 -47.5t64 -17.5q50 0 82.5 23.5t32.5 61.5q0 29 -24 48.5t-64 19.5q-47 0 -81 -25.5t-34 -62.5zM619 11q58 0 95.5 28t37.5 71q0 32 -27.5 52t-74.5 20q-57 0 -94 -26.5t-37 -68.5q0 -34 27 -55t73 -21
z" />
    <glyph glyph-name="threeeighths" unicode="&#x215c;" horiz-adv-x="850" 
d="M339 433q0 -50 -40 -81.5t-104 -31.5q-56 0 -88.5 24.5t-29.5 64.5h22q-2 -32 24.5 -51t72.5 -19q53 0 87.5 25.5t34.5 66.5q0 31 -23.5 49.5t-63.5 18.5h-33l4 18h33v-1v1q44 0 73.5 25.5t29.5 64.5q0 31 -23 49.5t-63 18.5q-41 0 -69.5 -18.5t-39.5 -50.5h-21
q12 40 47.5 64t85.5 24q48 0 75.5 -23t27.5 -61q0 -36 -20 -63t-55 -39q56 -19 56 -75zM642 680l-444 -680h-24l444 680h24zM708 190q69 -21 69 -79q0 -52 -44.5 -85.5t-114.5 -33.5q-56 0 -88.5 25t-32.5 66q0 40 28 68.5t75 39.5q-55 19 -55 69q0 45 41 76.5t98 31.5
q48 0 78 -23.5t30 -59.5q0 -35 -23 -59.5t-61 -35.5zM567 262q0 -30 24 -47.5t64 -17.5q50 0 82.5 23.5t32.5 61.5q0 29 -24 48.5t-64 19.5q-47 0 -81 -25.5t-34 -62.5zM621 11q58 0 95.5 28t37.5 71q0 32 -27.5 52t-74.5 20q-57 0 -94 -26.5t-37 -68.5q0 -34 27 -55t73 -21
z" />
    <glyph glyph-name="fiveeighths" unicode="&#x215d;" horiz-adv-x="850" 
d="M170 663l-26 -144h-20l29 163h219l-3 -19h-199zM642 680l-444 -680h-24l444 680h24zM350 447q0 -55 -45 -94t-111 -39q-58 0 -89.5 27.5t-33.5 75.5h22q2 -40 28.5 -62t75.5 -22q55 0 93.5 33t38.5 78q0 34 -25.5 55t-69.5 21l-90 -1l4 20h91q52 0 81.5 -25t29.5 -67z
M708 190q69 -21 69 -79q0 -52 -44.5 -85.5t-114.5 -33.5q-56 0 -88.5 25t-32.5 66q0 40 28 68.5t75 39.5q-55 19 -55 69q0 45 41 76.5t98 31.5q48 0 78 -23.5t30 -59.5q0 -35 -23 -59.5t-61 -35.5zM567 262q0 -30 24 -47.5t64 -17.5q50 0 82.5 23.5t32.5 61.5q0 29 -24 48.5
t-64 19.5q-47 0 -81 -25.5t-34 -62.5zM621 11q58 0 95.5 28t37.5 71q0 32 -27.5 52t-74.5 20q-57 0 -94 -26.5t-37 -68.5q0 -34 27 -55t73 -21z" />
    <glyph glyph-name="seveneighths" unicode="&#x215e;" horiz-adv-x="760" 
d="M139 322l243 340h-226l4 20h256l-3 -13l-248 -347h-26zM572 680l-444 -680h-24l444 680h24zM638 190q69 -21 69 -79q0 -52 -44.5 -85.5t-114.5 -33.5q-56 0 -88.5 25t-32.5 66q0 40 28 68.5t75 39.5q-55 19 -55 69q0 45 41 76.5t98 31.5q48 0 78 -23.5t30 -59.5
q0 -35 -23 -59.5t-61 -35.5zM497 262q0 -30 24 -47.5t64 -17.5q50 0 82.5 23.5t32.5 61.5q0 29 -24 48.5t-64 19.5q-47 0 -81 -25.5t-34 -62.5zM551 11q58 0 95.5 28t37.5 71q0 32 -27.5 52t-74.5 20q-57 0 -94 -26.5t-37 -68.5q0 -34 27 -55t73 -21z" />
    <glyph glyph-name="arrowleft" unicode="&#x2190;" horiz-adv-x="766" 
d="M73 332l324 -324l-15 -14l-348 348l348 348l15 -14l-324 -324h653v-20h-653z" />
    <glyph glyph-name="arrowup" unicode="&#x2191;" horiz-adv-x="786" 
d="M383 653l-324 -324l-14 15l348 348l348 -348l-14 -15l-324 324v-653h-20v653z" />
    <glyph glyph-name="arrowright" unicode="&#x2192;" horiz-adv-x="766" 
d="M40 352h653l-324 324l15 14l348 -348l-348 -348l-15 14l324 324h-653v20z" />
    <glyph glyph-name="arrowdown" unicode="&#x2193;" horiz-adv-x="786" 
d="M403 680v-653l324 324l14 -15l-348 -348l-348 348l14 15l324 -324v653h20z" />
    <glyph glyph-name="arrowupleft" unicode="&#x2196;" horiz-adv-x="823" 
d="M759 -3l-648 648v-458l-21 1v492h492l1 -21h-458l648 -648z" />
    <glyph glyph-name="arrowupright" unicode="&#x2197;" horiz-adv-x="863" 
d="M738 659h-458l1 21h492v-492l-21 -1v458l-648 -648l-14 14z" />
    <glyph glyph-name="arrowdownright" unicode="&#x2198;" horiz-adv-x="823" 
d="M64 683l648 -648v458l21 -1v-492h-492l-1 21h458l-648 648z" />
    <glyph glyph-name="arrowdownleft" unicode="&#x2199;" horiz-adv-x="798" 
d="M125 21h458l-1 -21h-492v492l21 1v-458l648 648l14 -14z" />
    <glyph glyph-name="minus" unicode="&#x2212;" horiz-adv-x="682" 
d="M138 326h442l-4 -21h-442z" />
    <glyph glyph-name="R.ss02" horiz-adv-x="701" 
d="M643 502q0 -104 -82 -168t-211 -64h-122l353 -270h-38l-352 270h-46l-48 -270h-22l120 680h228q103 0 161.5 -46t58.5 -132zM148 291h205q117 0 192 57.5t75 150.5q0 78 -51 119.5t-145 41.5h-211z" />
    <glyph glyph-name="Racute.ss02" horiz-adv-x="701" 
d="M410 760h-24l111 136h25zM643 502q0 -104 -82 -168t-211 -64h-122l353 -270h-38l-352 270h-46l-48 -270h-22l120 680h228q103 0 161.5 -46t58.5 -132zM148 291h205q117 0 192 57.5t75 150.5q0 78 -51 119.5t-145 41.5h-211z" />
    <glyph glyph-name="Rcaron.ss02" horiz-adv-x="701" 
d="M416 764l-103 136h26l95 -122l138 122h30l-151 -136h-35zM643 502q0 -104 -82 -168t-211 -64h-122l353 -270h-38l-352 270h-46l-48 -270h-22l120 680h228q103 0 161.5 -46t58.5 -132zM148 291h205q117 0 192 57.5t75 150.5q0 78 -51 119.5t-145 41.5h-211z" />
    <glyph glyph-name="Rcommaaccent.ss02" horiz-adv-x="701" 
d="M643 502q0 -104 -82 -168t-211 -64h-122l353 -270h-38l-352 270h-46l-48 -270h-22l120 680h228q103 0 161.5 -46t58.5 -132zM148 291h205q117 0 192 57.5t75 150.5q0 78 -51 119.5t-145 41.5h-211zM284 -81q9 0 17 -6.5t8 -20.5q0 -10 -9 -27t-54 -92h-18l57 98
q-26 0 -26 23q0 11 7 18t18 7z" />
    <glyph glyph-name="Q.ss03" horiz-adv-x="852" 
d="M508 694q130 0 214 -87t84 -216q0 -107 -60 -201t-157.5 -149t-204.5 -55q-130 0 -214 87t-84 216q0 107 60 201t157.5 149t204.5 55zM387 7q101 0 192.5 51.5t147.5 140.5t56 189q0 121 -78.5 203t-199.5 82q-101 0 -192.5 -51.5t-147.5 -140.5t-56 -189
q0 -121 78.5 -203t199.5 -82zM707 -186l-5 -23q-123 32 -323 93l4 17z" />
    <glyph glyph-name="i.loclTRK" horiz-adv-x="247" 
d="M195 606q-10 0 -16.5 6.5t-6.5 16.5t6.5 16.5t16.5 6.5t16.5 -6.5t6.5 -16.5t-6.5 -16.5t-16.5 -6.5zM173 450l-79 -450h-21l79 450h21z" />
    <glyph glyph-name="germandbls.case" horiz-adv-x="1306" 
d="M403 695q111 0 167 -49.5t55 -132.5h-22q-2 77 -53 119.5t-150 42.5q-103 0 -169.5 -50.5t-66.5 -127.5q0 -46 37.5 -78.5t107.5 -45.5l117 -23q71 -13 109 -50.5t38 -92.5q0 -96 -80 -159t-202 -63q-119 0 -178.5 58t-55.5 169h22q-2 -101 52 -154t164 -53t182.5 56
t72.5 141q0 50 -34.5 83t-98.5 45l-120 24q-75 14 -115.5 51t-40.5 91q0 86 74 142.5t188 56.5zM1056 695q111 0 167 -49.5t55 -132.5h-22q-2 77 -53 119.5t-150 42.5q-103 0 -169.5 -50.5t-66.5 -127.5q0 -46 37.5 -78.5t107.5 -45.5l117 -23q71 -13 109 -50.5t38 -92.5
q0 -96 -80 -159t-202 -63q-119 0 -178.5 58t-55.5 169h22q-2 -101 52 -154t164 -53t182.5 56t72.5 141q0 50 -34.5 83t-98.5 45l-120 24q-75 14 -115.5 51t-40.5 91q0 86 74 142.5t188 56.5z" />
    <glyph glyph-name="l.ss01" horiz-adv-x="333" 
d="M207 710l-106 -599q-19 -106 67 -106q28 0 79 11l1 -19q-50 -12 -83 -12q-107 0 -85 126l106 599h21z" />
    <glyph glyph-name="lacute.ss01" horiz-adv-x="333" 
d="M340 945l-112 -136h-24l111 136h25zM207 710l-106 -599q-19 -106 67 -106q28 0 79 11l1 -19q-50 -12 -83 -12q-107 0 -85 126l106 599h21z" />
    <glyph glyph-name="lcaron.ss01" horiz-adv-x="333" 
d="M207 710l-106 -599q-19 -106 67 -106q28 0 79 11l1 -19q-50 -12 -83 -12q-107 0 -85 126l106 599h21zM329 710l-47 -170h-19l44 170h22z" />
    <glyph glyph-name="lcommaaccent.ss01" horiz-adv-x="333" 
d="M207 710l-106 -599q-19 -106 67 -106q28 0 79 11l1 -19q-50 -12 -83 -12q-107 0 -85 126l106 599h21zM86 -227l57 98q-26 0 -26 23q0 11 7 18t18 7q9 0 17 -6.5t8 -20.5q0 -10 -9 -27t-54 -92h-18z" />
    <glyph glyph-name="ldot.ss01" horiz-adv-x="348" 
d="M207 710l-106 -599q-19 -106 67 -106q28 0 79 11l1 -19q-50 -12 -83 -12q-107 0 -85 126l106 599h21zM242 280q-10 0 -17.5 7t-7.5 18t7.5 18t17.5 7t17.5 -7t7.5 -18t-7.5 -18t-17.5 -7z" />
    <glyph glyph-name="lslash.ss01" horiz-adv-x="333" 
d="M168 5q28 0 79 11l1 -19q-50 -12 -83 -12q-107 0 -85 126l37 211l-69 -38l5 25l69 38l64 363h21l-62 -351l107 59l-5 -25l-106 -58l-40 -224q-19 -106 67 -106z" />
    <glyph glyph-name="y.ss04" horiz-adv-x="595" 
d="M530 450l-88 -500q-17 -92 -81 -145.5t-157 -53.5q-81 0 -129.5 40.5t-53.5 105.5h23q5 -56 48 -91t115 -35q84 0 141.5 48t72.5 131l22 123q-39 -42 -94 -65t-109 -23q-90 0 -133 51t-27 142l48 272h21l-48 -272q-15 -82 23.5 -127.5t118.5 -45.5q57 0 113.5 27.5
t92.5 74.5l60 343h21z" />
    <glyph glyph-name="yacute.ss04" horiz-adv-x="595" 
d="M345 549h-24l111 136h25zM530 450l-88 -500q-17 -92 -81 -145.5t-157 -53.5q-81 0 -129.5 40.5t-53.5 105.5h23q5 -56 48 -91t115 -35q84 0 141.5 48t72.5 131l22 123q-39 -42 -94 -65t-109 -23q-90 0 -133 51t-27 142l48 272h21l-48 -272q-15 -82 23.5 -127.5
t118.5 -45.5q57 0 113.5 27.5t92.5 74.5l60 343h21z" />
    <glyph glyph-name="ycircumflex.ss04" horiz-adv-x="595" 
d="M242 544h-31l153 136h36l101 -136h-26l-94 122zM530 450l-88 -500q-17 -92 -81 -145.5t-157 -53.5q-81 0 -129.5 40.5t-53.5 105.5h23q5 -56 48 -91t115 -35q84 0 141.5 48t72.5 131l22 123q-39 -42 -94 -65t-109 -23q-90 0 -133 51t-27 142l48 272h21l-48 -272
q-15 -82 23.5 -127.5t118.5 -45.5q57 0 113.5 27.5t92.5 74.5l60 343h21z" />
    <glyph glyph-name="ydieresis.ss04" horiz-adv-x="595" 
d="M259 594q-11 0 -18 7t-7 18t7 18t18 7t18 -7t7 -18t-7 -18t-18 -7zM425 594q-11 0 -18 7t-7 18t7 18t18 7t18 -7t7 -18t-7 -18t-18 -7zM530 450l-88 -500q-17 -92 -81 -145.5t-157 -53.5q-81 0 -129.5 40.5t-53.5 105.5h23q5 -56 48 -91t115 -35q84 0 141.5 48t72.5 131
l22 123q-39 -42 -94 -65t-109 -23q-90 0 -133 51t-27 142l48 272h21l-48 -272q-15 -82 23.5 -127.5t118.5 -45.5q57 0 113.5 27.5t92.5 74.5l60 343h21z" />
    <glyph glyph-name="ygrave.ss04" horiz-adv-x="595" 
d="M317 550l-88 136h25l87 -136h-24zM530 450l-88 -500q-17 -92 -81 -145.5t-157 -53.5q-81 0 -129.5 40.5t-53.5 105.5h23q5 -56 48 -91t115 -35q84 0 141.5 48t72.5 131l22 123q-39 -42 -94 -65t-109 -23q-90 0 -133 51t-27 142l48 272h21l-48 -272q-15 -82 23.5 -127.5
t118.5 -45.5q57 0 113.5 27.5t92.5 74.5l60 343h21z" />
    <glyph glyph-name="a.ss06" horiz-adv-x="545" 
d="M314 456q89 0 133.5 -57.5t27.5 -151.5l-43 -247h-22l11 63q-97 -78 -215 -78q-74 0 -117 32.5t-43 87.5q0 61 49 103t134 39h224q15 85 -24 137t-118 52q-61 0 -106.5 -26t-63.5 -70h-24q21 53 73.5 84.5t123.5 31.5zM212 7q118 0 214 84l24 136h-224q-75 0 -116 -34
t-41 -84q0 -47 39 -74.5t104 -27.5z" />
    <glyph glyph-name="aacute.ss06" horiz-adv-x="545" 
d="M350 549h-24l111 136h25zM314 456q89 0 133.5 -57.5t27.5 -151.5l-43 -247h-22l11 63q-97 -78 -215 -78q-74 0 -117 32.5t-43 87.5q0 61 49 103t134 39h224q15 85 -24 137t-118 52q-61 0 -106.5 -26t-63.5 -70h-24q21 53 73.5 84.5t123.5 31.5zM212 7q118 0 214 84
l24 136h-224q-75 0 -116 -34t-41 -84q0 -47 39 -74.5t104 -27.5z" />
    <glyph glyph-name="abreve.ss06" horiz-adv-x="545" 
d="M315 541q-52 0 -86 33t-24 91h20q-8 -50 20.5 -77.5t70.5 -27.5q41 0 80 28t47 77h22q-10 -59 -54 -91.5t-96 -32.5zM314 456q89 0 133.5 -57.5t27.5 -151.5l-43 -247h-22l11 63q-97 -78 -215 -78q-74 0 -117 32.5t-43 87.5q0 61 49 103t134 39h224q15 85 -24 137
t-118 52q-61 0 -106.5 -26t-63.5 -70h-24q21 53 73.5 84.5t123.5 31.5zM212 7q118 0 214 84l24 136h-224q-75 0 -116 -34t-41 -84q0 -47 39 -74.5t104 -27.5z" />
    <glyph glyph-name="acaron.ss06" horiz-adv-x="545" 
d="M328 544l-103 136h26l95 -122l138 122h30l-151 -136h-35zM314 456q89 0 133.5 -57.5t27.5 -151.5l-43 -247h-22l11 63q-97 -78 -215 -78q-74 0 -117 32.5t-43 87.5q0 61 49 103t134 39h224q15 85 -24 137t-118 52q-61 0 -106.5 -26t-63.5 -70h-24q21 53 73.5 84.5
t123.5 31.5zM212 7q118 0 214 84l24 136h-224q-75 0 -116 -34t-41 -84q0 -47 39 -74.5t104 -27.5z" />
    <glyph glyph-name="acircumflex.ss06" horiz-adv-x="545" 
d="M227 544h-31l153 136h36l101 -136h-26l-94 122zM314 456q89 0 133.5 -57.5t27.5 -151.5l-43 -247h-22l11 63q-97 -78 -215 -78q-74 0 -117 32.5t-43 87.5q0 61 49 103t134 39h224q15 85 -24 137t-118 52q-61 0 -106.5 -26t-63.5 -70h-24q21 53 73.5 84.5t123.5 31.5z
M212 7q118 0 214 84l24 136h-224q-75 0 -116 -34t-41 -84q0 -47 39 -74.5t104 -27.5z" />
    <glyph glyph-name="adieresis.ss06" horiz-adv-x="545" 
d="M264 594q-10 0 -17.5 7t-7.5 18t7.5 18t17.5 7t17.5 -7t7.5 -18t-7.5 -18t-17.5 -7zM430 594q-10 0 -17.5 7t-7.5 18t7.5 18t17.5 7t17.5 -7t7.5 -18t-7.5 -18t-17.5 -7zM314 456q89 0 133.5 -57.5t27.5 -151.5l-43 -247h-22l11 63q-97 -78 -215 -78q-74 0 -117 32.5
t-43 87.5q0 61 49 103t134 39h224q15 85 -24 137t-118 52q-61 0 -106.5 -26t-63.5 -70h-24q21 53 73.5 84.5t123.5 31.5zM212 7q118 0 214 84l24 136h-224q-75 0 -116 -34t-41 -84q0 -47 39 -74.5t104 -27.5z" />
    <glyph glyph-name="agrave.ss06" horiz-adv-x="545" 
d="M322 550l-88 136h25l87 -136h-24zM314 456q89 0 133.5 -57.5t27.5 -151.5l-43 -247h-22l11 63q-97 -78 -215 -78q-74 0 -117 32.5t-43 87.5q0 61 49 103t134 39h224q15 85 -24 137t-118 52q-61 0 -106.5 -26t-63.5 -70h-24q21 53 73.5 84.5t123.5 31.5zM212 7
q118 0 214 84l24 136h-224q-75 0 -116 -34t-41 -84q0 -47 39 -74.5t104 -27.5z" />
    <glyph glyph-name="amacron.ss06" horiz-adv-x="545" 
d="M484 588l-4 -18h-276l4 18h276zM314 456q89 0 133.5 -57.5t27.5 -151.5l-43 -247h-22l11 63q-97 -78 -215 -78q-74 0 -117 32.5t-43 87.5q0 61 49 103t134 39h224q15 85 -24 137t-118 52q-61 0 -106.5 -26t-63.5 -70h-24q21 53 73.5 84.5t123.5 31.5zM212 7q118 0 214 84
l24 136h-224q-75 0 -116 -34t-41 -84q0 -47 39 -74.5t104 -27.5z" />
    <glyph glyph-name="aogonek.ss06" horiz-adv-x="545" 
d="M475 247l-43 -247q-22 -10 -36 -18.5t-30.5 -21.5t-25 -30t-8.5 -37q0 -35 26 -55.5t69 -20.5q12 0 28 2l2 -21q-14 -3 -33 -3q-51 0 -82.5 26.5t-31.5 69.5q0 72 102 123l9 49q-97 -78 -215 -78q-74 0 -117 32.5t-43 87.5q0 61 49 103t134 39h224q15 85 -24 137t-118 52
q-61 0 -106.5 -26t-63.5 -70h-24q21 53 73.5 84.5t123.5 31.5q89 0 133.5 -57.5t27.5 -151.5zM212 7q118 0 214 84l24 136h-224q-75 0 -116 -34t-41 -84q0 -47 39 -74.5t104 -27.5z" />
    <glyph glyph-name="aring.ss06" horiz-adv-x="545" 
d="M337 547q-37 0 -62 24.5t-25 61.5t25 61.5t62 24.5t62 -24.5t25 -61.5t-25 -61.5t-62 -24.5zM337 701q-28 0 -48 -20t-20 -48q0 -29 19.5 -48.5t48.5 -19.5t48.5 19.5t19.5 48.5q0 28 -20 48t-48 20zM314 456q89 0 133.5 -57.5t27.5 -151.5l-43 -247h-22l11 63
q-97 -78 -215 -78q-74 0 -117 32.5t-43 87.5q0 61 49 103t134 39h224q15 85 -24 137t-118 52q-61 0 -106.5 -26t-63.5 -70h-24q21 53 73.5 84.5t123.5 31.5zM212 7q118 0 214 84l24 136h-224q-75 0 -116 -34t-41 -84q0 -47 39 -74.5t104 -27.5z" />
    <glyph glyph-name="atilde.ss06" horiz-adv-x="545" 
d="M355 605l-38 27q-29 23 -61 13.5t-32 -48.5h-19q0 35 21 53t49.5 16.5t51.5 -18.5l37 -26q34 -25 64 -15t30 50h19q0 -54 -41 -68.5t-81 16.5zM314 456q89 0 133.5 -57.5t27.5 -151.5l-43 -247h-22l11 63q-97 -78 -215 -78q-74 0 -117 32.5t-43 87.5q0 61 49 103t134 39
h224q15 85 -24 137t-118 52q-61 0 -106.5 -26t-63.5 -70h-24q21 53 73.5 84.5t123.5 31.5zM212 7q118 0 214 84l24 136h-224q-75 0 -116 -34t-41 -84q0 -47 39 -74.5t104 -27.5z" />
    <glyph glyph-name="zero.osf" horiz-adv-x="689" 
d="M400 546q102 0 163.5 -62t61.5 -167q0 -144 -94 -236.5t-229 -92.5q-102 0 -163.5 62t-61.5 167q0 144 94 236.5t229 92.5zM305 8q124 0 210 86t86 220q0 97 -55.5 154.5t-148.5 57.5q-124 0 -210 -86t-86 -220q0 -97 55.5 -154.5t148.5 -57.5z" />
    <glyph glyph-name="one.osf" horiz-adv-x="496" 
d="M429 20l-4 -20h-421l4 20h210l88 504l-208 -77l4 23l220 80h10l-93 -530h190z" />
    <glyph glyph-name="two.osf" horiz-adv-x="547" 
d="M79 20h379l-3 -20h-428l2 13l190 117q138 85 177 118q89 72 89 153q0 64 -42 99t-115 35q-81 0 -142.5 -44.5t-83.5 -117.5h-21q21 82 89 132t160 50q83 0 130 -39.5t47 -111.5q0 -29 -7.5 -54.5t-27 -50t-38.5 -44t-56 -45.5t-65 -44t-79 -50z" />
    <glyph glyph-name="three.osf" horiz-adv-x="564" 
d="M374 205q52 -16 81 -54t29 -91q0 -93 -72 -152t-186 -59q-100 0 -158 44.5t-51 116.5h22q-4 -64 47.5 -102.5t139.5 -38.5q103 0 169.5 52.5t66.5 135.5q0 63 -43.5 100.5t-118.5 37.5h-59l3 20h59q86 0 142.5 51.5t56.5 131.5q0 62 -43.5 99.5t-120.5 37.5t-133.5 -37.5
t-76.5 -100.5h-23q20 72 83.5 115t150.5 43t136 -41.5t49 -112.5q0 -70 -41 -122.5t-109 -73.5z" />
    <glyph glyph-name="four.osf" horiz-adv-x="646" 
d="M543 2h-124l-29 -162h-21l29 162h-381l3 13l309 505h23l-303 -498h352l42 238h21l-42 -238h125z" />
    <glyph glyph-name="five.osf" horiz-adv-x="580" 
d="M182 523l-49 -278h-21l53 298h385l-3 -20h-365zM488 95q0 69 -47.5 110t-132.5 41l-175 -1l4 21h176q92 0 144.5 -45.5t52.5 -122.5q0 -103 -81.5 -176.5t-198.5 -73.5q-104 0 -160 51t-58 141h23q2 -81 53 -126.5t145 -45.5q106 0 180.5 67.5t74.5 159.5z" />
    <glyph glyph-name="six.osf" horiz-adv-x="612" 
d="M338 445q92 0 148.5 -52.5t56.5 -138.5q0 -116 -83.5 -192.5t-202.5 -76.5q-92 0 -148 53.5t-56 140.5q0 97 78 183l298 318h31l-250 -263q63 28 128 28zM261 5q107 0 183 70t76 175q0 79 -51 127t-134 48q-105 0 -177 -63l-12 -13q-70 -70 -70 -167q0 -80 51 -128.5
t134 -48.5z" />
    <glyph glyph-name="seven.osf" horiz-adv-x="501" 
d="M533 540l-2 -14l-463 -666h-28l461 660h-427l3 20h456z" />
    <glyph glyph-name="eight.osf" horiz-adv-x="618" 
d="M408 359q66 -14 103 -54t37 -96q0 -97 -80 -160.5t-202 -63.5q-98 0 -155 46.5t-57 123.5q0 78 55 132.5t147 72.5q-53 15 -82.5 49t-29.5 84q0 84 73 143t174 59q82 0 133.5 -44t51.5 -111q0 -69 -46 -116.5t-122 -64.5zM165 495q0 -60 46 -94t122 -34q95 0 158 46
t63 124q0 60 -46 99.5t-120 39.5q-91 0 -157 -53t-66 -128zM269 5q111 0 183.5 57t72.5 145q0 65 -53 104.5t-142 39.5q-111 0 -182.5 -53.5t-71.5 -139.5q0 -69 52 -111t141 -42z" />
    <glyph glyph-name="nine.osf" horiz-adv-x="612" 
d="M361 539q92 0 148 -53.5t56 -140.5q0 -97 -78 -183l-298 -318h-31l250 263q-63 -28 -128 -28q-92 0 -148.5 52.5t-56.5 138.5q0 116 83.5 192.5t202.5 76.5zM460 162l12 13q70 70 70 167q0 80 -51 128.5t-134 48.5q-107 0 -183 -70t-76 -175q0 -79 51 -127t134 -48
q105 0 177 63z" />
    <glyph glyph-name="zero.tf" horiz-adv-x="580" 
d="M369 695q98 0 153.5 -74.5t55.5 -199.5q0 -186 -96.5 -311t-238.5 -125q-98 0 -153.5 74.5t-55.5 199.5q0 186 96.5 311t238.5 125zM247 5q130 0 219 119t89 295q0 117 -50.5 186.5t-139.5 69.5q-130 0 -219 -119t-89 -295q0 -117 50.5 -186.5t139.5 -69.5z" />
    <glyph glyph-name="one.tf" horiz-adv-x="580" 
d="M506 20l-4 -20h-461l4 20h217l111 634l-208 -77l4 23l220 80h10l-116 -660h223z" />
    <glyph glyph-name="two.tf" horiz-adv-x="580" 
d="M98 20h395l-4 -20h-438l3 13l267 217q63 51 96.5 81t65.5 66.5t44.5 70t12.5 73.5q0 69 -45 111.5t-123 42.5q-82 0 -145.5 -44.5t-85.5 -117.5h-21q21 82 91.5 132t162.5 50q87 0 138 -47.5t51 -123.5q0 -79 -48 -140.5t-178 -167.5z" />
    <glyph glyph-name="three.tf" horiz-adv-x="580" 
d="M400 345q52 -16 81 -54t29 -91q0 -93 -72 -152t-186 -59q-100 0 -158 44.5t-51 116.5h22q-4 -64 47.5 -102.5t139.5 -38.5q103 0 169.5 52.5t66.5 135.5q0 63 -43.5 100.5t-118.5 37.5h-59l3 20h59q86 0 142.5 51.5t56.5 131.5q0 62 -43.5 99.5t-120.5 37.5t-133.5 -37.5
t-76.5 -100.5h-23q20 72 83.5 115t150.5 43t136 -41.5t49 -112.5q0 -70 -41 -122.5t-109 -73.5z" />
    <glyph glyph-name="four.tf" horiz-adv-x="580" 
d="M546 162h-124l-29 -162h-21l29 162h-381l3 13l309 505h23l-303 -498h352l42 238h21l-42 -238h125z" />
    <glyph glyph-name="five.tf" horiz-adv-x="580" 
d="M207 660l-49 -278h-21l53 298h385l-3 -20h-365zM513 232q0 69 -47.5 110t-132.5 41l-175 -1l4 21h176q92 0 144.5 -45.5t52.5 -122.5q0 -103 -81.5 -176.5t-198.5 -73.5q-104 0 -160 51t-58 141h23q2 -81 53 -126.5t145 -45.5q106 0 180.5 67.5t74.5 159.5z" />
    <glyph glyph-name="six.tf" horiz-adv-x="580" 
d="M324 445q92 0 148.5 -52.5t56.5 -138.5q0 -116 -83.5 -192.5t-202.5 -76.5q-92 0 -148 53.5t-56 140.5q0 97 78 183l298 318h31l-250 -263q63 28 128 28zM247 5q107 0 183 70t76 175q0 79 -51 127t-134 48q-105 0 -177 -63l-12 -13q-70 -70 -70 -167q0 -80 51 -128.5
t134 -48.5z" />
    <glyph glyph-name="seven.tf" horiz-adv-x="580" 
d="M603 680l-2 -14l-463 -666h-28l461 660h-427l3 20h456z" />
    <glyph glyph-name="eight.tf" horiz-adv-x="580" 
d="M393 359q66 -14 103 -54t37 -96q0 -97 -80 -160.5t-202 -63.5q-98 0 -155 46.5t-57 123.5q0 78 55 132.5t147 72.5q-53 15 -82.5 49t-29.5 84q0 84 73 143t174 59q82 0 133.5 -44t51.5 -111q0 -69 -46 -116.5t-122 -64.5zM150 495q0 -60 46 -94t122 -34q95 0 158 46
t63 124q0 60 -46 99.5t-120 39.5q-91 0 -157 -53t-66 -128zM254 5q111 0 183.5 57t72.5 145q0 65 -53 104.5t-142 39.5q-111 0 -182.5 -53.5t-71.5 -139.5q0 -69 52 -111t141 -42z" />
    <glyph glyph-name="nine.tf" horiz-adv-x="580" 
d="M373 695q92 0 148 -53.5t56 -140.5q0 -97 -78 -183l-298 -318h-31l250 263q-63 -28 -128 -28q-92 0 -148.5 52.5t-56.5 138.5q0 116 83.5 192.5t202.5 76.5zM472 318l12 13q70 70 70 167q0 80 -51 128.5t-134 48.5q-107 0 -183 -70t-76 -175q0 -79 51 -127t134 -48
q105 0 177 63z" />
    <glyph glyph-name="zero.zero" horiz-adv-x="714" 
d="M441 695q110 0 169.5 -74.5t59.5 -200.5q0 -188 -98.5 -311.5t-256.5 -123.5q-110 0 -169.5 74.5t-59.5 200.5q0 188 98.5 311.5t256.5 123.5zM437 675q-146 0 -237 -117.5t-91 -294.5q0 -79 24 -136l476 454q-54 94 -172 94zM319 5q146 0 237 117.5t91 294.5
q0 85 -29 146l-476 -456q56 -102 177 -102z" />
    <glyph glyph-name="zero.osf.zero" horiz-adv-x="689" 
d="M400 546q102 0 163.5 -62t61.5 -167q0 -144 -94 -236.5t-229 -92.5q-102 0 -163.5 62t-61.5 167q0 144 94 236.5t229 92.5zM397 526q-124 0 -210 -86t-86 -220q0 -67 28 -117l435 343q-56 80 -167 80zM305 8q124 0 210 86t86 220q0 65 -27 116l-434 -344q55 -78 165 -78z
" />
    <glyph glyph-name="zero.dnom" horiz-adv-x="422" 
d="M237 368q63 0 97.5 -41.5t34.5 -108.5q0 -95 -55.5 -160.5t-142.5 -65.5q-63 0 -97.5 42t-34.5 109q0 93 56 159t142 66zM174 12q76 0 124.5 59.5t48.5 143.5q0 59 -29.5 96.5t-83.5 37.5q-75 0 -124 -60t-49 -143q0 -60 29.5 -97t83.5 -37z" />
    <glyph glyph-name="one.dnom" horiz-adv-x="288" 
d="M230 19l-4 -19h-238l4 19h113l56 317l-112 -38l3 20l124 42h11l-61 -341h104z" />
    <glyph glyph-name="two.dnom" horiz-adv-x="353" 
d="M58 19h206l-3 -19h-245l2 12l147 118q45 36 64.5 53.5t34.5 41.5t15 50q0 33 -22.5 53.5t-62.5 20.5q-42 0 -72 -22t-41 -59h-21q12 46 48 73t88 27q49 0 76.5 -25t27.5 -65t-25.5 -72.5t-93.5 -87.5z" />
    <glyph glyph-name="three.dnom" horiz-adv-x="364" 
d="M228 182q56 -19 56 -75q0 -50 -40 -81.5t-104 -31.5q-56 0 -88.5 24.5t-29.5 64.5h22q-2 -32 24.5 -51t72.5 -19q53 0 87.5 25.5t34.5 66.5q0 31 -23.5 49.5t-63.5 18.5h-33l4 18h33v-1v1q44 0 73.5 25.5t29.5 64.5q0 31 -23 49.5t-63 18.5q-41 0 -69.5 -18.5
t-39.5 -50.5h-21q12 40 47.5 64t85.5 24q48 0 75.5 -23t27.5 -61q0 -36 -20 -63t-55 -39z" />
    <glyph glyph-name="four.dnom" horiz-adv-x="388" 
d="M313 83h-67l-14 -83h-20l14 83h-211l3 14l167 263h22l-161 -257h184l21 122h20l-21 -122h67z" />
    <glyph glyph-name="five.dnom" horiz-adv-x="365" 
d="M115 341l-26 -144h-20l29 163h219l-3 -19h-199zM274 122q0 34 -25.5 55t-69.5 21l-90 -1l4 20h91q52 0 81.5 -25t29.5 -67q0 -55 -45 -94t-111 -39q-58 0 -89.5 27.5t-33.5 75.5h22q2 -40 28.5 -62t75.5 -22q55 0 93.5 33t38.5 78z" />
    <glyph glyph-name="six.dnom" horiz-adv-x="358" 
d="M179 238q52 0 84 -28t32 -75q0 -61 -46.5 -102t-113.5 -41q-52 0 -84.5 29t-32.5 76q0 49 44 98l159 165h26l-125 -132q28 10 57 10zM138 11q55 0 95 34t40 85q0 39 -27.5 63.5t-70.5 24.5q-58 0 -92 -31l-5 -5q-38 -34 -38 -83q0 -39 27 -63.5t71 -24.5z" />
    <glyph glyph-name="seven.dnom" horiz-adv-x="291" 
d="M301 360l-3 -13l-248 -347h-26l243 340h-226l4 20h256z" />
    <glyph glyph-name="eight.dnom" horiz-adv-x="377" 
d="M235 190q69 -21 69 -79q0 -52 -44.5 -85.5t-114.5 -33.5q-56 0 -88.5 25t-32.5 66q0 40 28 68.5t75 39.5q-55 19 -55 69q0 45 41 76.5t98 31.5q48 0 78 -23.5t30 -59.5q0 -35 -23 -59.5t-61 -35.5zM94 262q0 -30 24 -47.5t64 -17.5q50 0 82.5 23.5t32.5 61.5
q0 29 -24 48.5t-64 19.5q-47 0 -81 -25.5t-34 -62.5zM148 11q58 0 95.5 28t37.5 71q0 32 -27.5 52t-74.5 20q-57 0 -94 -26.5t-37 -68.5q0 -34 27 -55t73 -21z" />
    <glyph glyph-name="nine.dnom" horiz-adv-x="358" 
d="M207 369q52 0 84.5 -29t32.5 -76q0 -49 -44 -98l-159 -165h-26l125 132q-28 -10 -57 -10q-52 0 -84 28t-32 75q0 61 46.5 102t113.5 41zM259 174l5 5q38 34 38 83q0 39 -27 63.5t-71 24.5q-55 0 -95 -34t-40 -85q0 -39 27.5 -63.5t70.5 -24.5q58 0 92 31z" />
    <glyph glyph-name="zero.numr" horiz-adv-x="422" 
d="M292 690q63 0 97.5 -41.5t34.5 -108.5q0 -95 -55.5 -160.5t-142.5 -65.5q-63 0 -97.5 42t-34.5 109q0 93 56 159t142 66zM229 334q76 0 124.5 59.5t48.5 143.5q0 59 -29.5 96.5t-83.5 37.5q-75 0 -124 -60t-49 -143q0 -60 29.5 -97t83.5 -37z" />
    <glyph glyph-name="one.numr" horiz-adv-x="288" 
d="M285 341l-4 -19h-238l4 19h113l56 317l-112 -38l3 20l124 42h11l-61 -341h104z" />
    <glyph glyph-name="two.numr" horiz-adv-x="353" 
d="M113 341h206l-3 -19h-245l2 12l147 118q45 36 64.5 53.5t34.5 41.5t15 50q0 33 -22.5 53.5t-62.5 20.5q-42 0 -72 -22t-41 -59h-21q12 46 48 73t88 27q49 0 76.5 -25t27.5 -65t-25.5 -72.5t-93.5 -87.5z" />
    <glyph glyph-name="three.numr" horiz-adv-x="364" 
d="M283 508q56 -19 56 -75q0 -50 -40 -81.5t-104 -31.5q-56 0 -88.5 24.5t-29.5 64.5h22q-2 -32 24.5 -51t72.5 -19q53 0 87.5 25.5t34.5 66.5q0 31 -23.5 49.5t-63.5 18.5h-33l4 18h33v-1v1q44 0 73.5 25.5t29.5 64.5q0 31 -23 49.5t-63 18.5q-41 0 -69.5 -18.5
t-39.5 -50.5h-21q12 40 47.5 64t85.5 24q48 0 75.5 -23t27.5 -61q0 -36 -20 -63t-55 -39z" />
    <glyph glyph-name="four.numr" horiz-adv-x="388" 
d="M368 405h-67l-14 -83h-20l14 83h-211l3 14l167 263h22l-161 -257h184l21 122h20l-21 -122h67z" />
    <glyph glyph-name="five.numr" horiz-adv-x="365" 
d="M170 663l-26 -144h-20l29 163h219l-3 -19h-199zM329 444q0 34 -25.5 55t-69.5 21l-90 -1l4 20h91q52 0 81.5 -25t29.5 -67q0 -55 -45 -94t-111 -39q-58 0 -89.5 27.5t-33.5 75.5h22q2 -40 28.5 -62t75.5 -22q55 0 93.5 33t38.5 78z" />
    <glyph glyph-name="six.numr" horiz-adv-x="358" 
d="M234 560q52 0 84 -28t32 -75q0 -61 -46.5 -102t-113.5 -41q-52 0 -84.5 29t-32.5 76q0 49 44 98l159 165h26l-125 -132q28 10 57 10zM193 333q55 0 95 34t40 85q0 39 -27.5 63.5t-70.5 24.5q-58 0 -92 -31l-5 -5q-38 -34 -38 -83q0 -39 27 -63.5t71 -24.5z" />
    <glyph glyph-name="seven.numr" horiz-adv-x="291" 
d="M356 682l-3 -13l-248 -347h-26l243 340h-226l4 20h256z" />
    <glyph glyph-name="eight.numr" horiz-adv-x="377" 
d="M294 516q69 -21 69 -79q0 -52 -44.5 -85.5t-114.5 -33.5q-56 0 -88.5 25t-32.5 66q0 40 28 68.5t75 39.5q-55 19 -55 69q0 45 41 76.5t98 31.5q48 0 78 -23.5t30 -59.5q0 -35 -23 -59.5t-61 -35.5zM153 588q0 -30 24 -47.5t64 -17.5q50 0 82.5 23.5t32.5 61.5
q0 29 -24 48.5t-64 19.5q-47 0 -81 -25.5t-34 -62.5zM207 337q58 0 95.5 28t37.5 71q0 32 -27.5 52t-74.5 20q-57 0 -94 -26.5t-37 -68.5q0 -34 27 -55t73 -21z" />
    <glyph glyph-name="nine.numr" horiz-adv-x="358" 
d="M262 695q52 0 84.5 -29t32.5 -76q0 -49 -44 -98l-159 -165h-26l125 132q-28 -10 -57 -10q-52 0 -84 28t-32 75q0 61 46.5 102t113.5 41zM314 500l5 5q38 34 38 83q0 39 -27 63.5t-71 24.5q-55 0 -95 -34t-40 -85q0 -39 27.5 -63.5t70.5 -24.5q58 0 92 31z" />
    <glyph glyph-name="backslash.case" horiz-adv-x="367" 
d="M50 730h22l245 -777h-22z" />
    <glyph glyph-name="bullet.case" horiz-adv-x="305" 
d="M167 235q-39 0 -68 29t-29 68t29 68t68 29q40 0 69 -29t29 -68t-29 -68t-69 -29z" />
    <glyph glyph-name="exclamdown.case" horiz-adv-x="245" 
d="M200 688q10 0 16.5 -6.5t6.5 -16.5t-6.5 -16.5t-16.5 -6.5t-16.5 6.5t-6.5 16.5t6.5 16.5t16.5 6.5zM164 520h22l-92 -520h-22z" />
    <glyph glyph-name="periodcentered.case" horiz-adv-x="146" 
d="M94 310q-10 0 -16.5 6.5t-6.5 16.5t6.5 16.5t16.5 6.5t16.5 -6.5t6.5 -16.5t-6.5 -16.5t-16.5 -6.5z" />
    <glyph glyph-name="questiondown.case" 
d="M399 642q-10 0 -16.5 6.5t-6.5 16.5t6.5 16.5t16.5 6.5t16.5 -6.5t6.5 -16.5t-6.5 -16.5t-16.5 -6.5zM266 -15q-83 0 -133 50t-50 125q0 96 75 165.5t183 69.5l20 114h20l-20 -134h-23q-96 0 -164.5 -63t-68.5 -148q0 -68 45.5 -113.5t119.5 -45.5q62 0 119 37t81 96h22
q-27 -69 -91 -111t-135 -42z" />
    <glyph glyph-name="slash.case" horiz-adv-x="367" 
d="M-4 -47l381 777h22l-381 -777h-22z" />
    <glyph glyph-name="braceleft.case" horiz-adv-x="359" 
d="M242 579l-14 -79q-23 -129 -98 -156q66 -27 43 -156l-14 -79q-11 -66 13.5 -106t76.5 -40l-3 -20q-62 0 -91.5 45.5t-16.5 120.5l14 79q14 79 -6.5 112.5t-83.5 33.5l3 20q63 0 96 33.5t46 112.5l14 79q14 75 59.5 120.5t106.5 45.5l-3 -20q-51 0 -91 -43t-51 -103z" />
    <glyph glyph-name="braceright.case" horiz-adv-x="358" 
d="M158 109l14 79q23 129 98 156q-66 27 -43 156l14 79q11 66 -13.5 106t-76.5 40l3 20q62 0 91.5 -45.5t16.5 -120.5l-14 -79q-14 -79 6.5 -112.5t83.5 -33.5l-3 -20q-63 0 -96 -33.5t-46 -112.5l-14 -79q-13 -75 -59 -120.5t-107 -45.5l3 20q51 0 91 43t51 103z" />
    <glyph glyph-name="bracketleft.case" horiz-adv-x="341" 
d="M91 -30h131l-4 -20h-152l138 780h152l-4 -20h-131z" />
    <glyph glyph-name="bracketright.case" horiz-adv-x="341" 
d="M290 710h-131l4 20h152l-138 -780h-152l4 20h131z" />
    <glyph glyph-name="parenleft.case" horiz-adv-x="357" 
d="M349 723l10 -15q-106 -76 -166.5 -166.5t-83.5 -215.5q-47 -220 117 -372l-15 -15q-83 72 -115 174t-8 216q47 252 261 394z" />
    <glyph glyph-name="parenright.case" horiz-adv-x="357" 
d="M168 708l15 15q83 -72 115 -174t8 -216q-47 -252 -261 -394l-10 15q106 76 166.5 166.5t83.5 215.5q47 220 -117 372z" />
    <glyph glyph-name="emdash.case" horiz-adv-x="951" 
d="M853 352l-4 -21h-710l4 21h710z" />
    <glyph glyph-name="endash.case" horiz-adv-x="738" 
d="M640 351l-4 -21h-497l4 21h497z" />
    <glyph glyph-name="hyphen.case" horiz-adv-x="555" 
d="M457 351l-4 -21h-314l4 21h314z" />
    <glyph glyph-name="guillemotleft.case" horiz-adv-x="404" 
d="M234 486l-147 -146l96 -142h-25l-97 144l147 144h26zM374 486l-147 -146l96 -142h-25l-97 144l147 144h26z" />
    <glyph glyph-name="guillemotright.case" horiz-adv-x="404" 
d="M72 198l147 146l-96 142h25l97 -144l-147 -144h-26zM212 198l147 146l-96 142h25l97 -144l-147 -144h-26z" />
    <glyph glyph-name="guilsinglleft.case" horiz-adv-x="264" 
d="M234 486l-147 -146l96 -142h-25l-97 144l147 144h26z" />
    <glyph glyph-name="guilsinglright.case" horiz-adv-x="264" 
d="M72 198l147 146l-96 142h25l97 -144l-147 -144h-26z" />
    <glyph glyph-name="florin.tf" horiz-adv-x="580" 
d="M544 685q34 0 79 -12l-8 -18q-42 10 -74 10q-99 0 -139 -126l-56 -179h172l-4 -20h-174l-78 -259q-45 -146 -163 -146q-34 0 -79 12l8 18q42 -10 74 -10q99 0 139 126l78 259h-130l4 20h132l56 179q47 146 163 146z" />
    <glyph glyph-name="cent.tf" horiz-adv-x="580" 
d="M333 444q-93 0 -162.5 -63.5t-86.5 -155.5q-16 -92 31.5 -155.5t140.5 -63.5q67 0 121 34.5t78 91.5h23q-27 -66 -88.5 -106t-137.5 -40h-4l-22 -127h-21l23 128q-91 9 -137 76.5t-29 161.5t87 161.5t163 76.5l24 136h21l-24 -135h4q76 0 122.5 -39.5t51.5 -106.5h-23
q-5 57 -46.5 91.5t-108.5 34.5z" />
    <glyph glyph-name="dollar.tf" horiz-adv-x="580" 
d="M369 695h2q111 0 167 -49.5t55 -132.5h-22q-2 77 -53 119.5t-150 42.5q-103 0 -169.5 -50.5t-66.5 -127.5q0 -46 37.5 -78.5t107.5 -45.5l117 -23q71 -13 109 -50.5t38 -92.5q0 -96 -80 -159t-202 -63h-15l-22 -126h-21l22 127q-101 9 -151.5 66t-46.5 160h22
q-2 -101 52 -154t164 -53t182.5 56t72.5 141q0 50 -34.5 83t-98.5 45l-120 24q-75 14 -115.5 51t-40.5 91q0 82 67 137t172 61l24 135h21z" />
    <glyph glyph-name="Euro.tf" horiz-adv-x="580" 
d="M431 695q72 0 121 -30t69 -85h-27q-18 45 -61.5 70t-105.5 25q-111 0 -192 -70.5t-115 -188.5h357l-9 -20h-354q-15 -68 -15 -130h313l-8 -20h-305q4 -111 58.5 -176t151.5 -65q117 0 184 78h29q-79 -98 -216 -98q-107 0 -166.5 70t-63.5 191h-57l3 20h54q0 62 15 130
h-46l4 20h48q35 127 123.5 203t210.5 76z" />
    <glyph glyph-name="sterling.tf" horiz-adv-x="580" 
d="M399 695q93 0 143.5 -51.5t43.5 -138.5h-22q5 78 -40.5 124t-128.5 46q-91 0 -155.5 -55t-80.5 -145l-29 -165h272l-4 -20h-271l-48 -270h419l-4 -20h-528l4 20h87l48 270h-88l4 20h87l29 165q17 99 89 159.5t173 60.5z" />
    <glyph glyph-name="yen.tf" horiz-adv-x="580" 
d="M298 234h193l-4 -21h-193l-14 -84h192l-3 -21h-193l-19 -108h-22l19 108h-193l3 21h194l14 84h-193l4 21h193l4 23l-165 423h25l155 -402l295 402h25l-313 -423z" />
    <glyph glyph-name="arrowdown.ss05" horiz-adv-x="672" 
d="M572 412l-236 -236l-236 236l14 15l222 -222l222 222z" />
    <glyph glyph-name="arrowleft.ss05" horiz-adv-x="672" 
d="M558 186l-222 222l-222 -222l-14 15l236 236l236 -236z" />
    <glyph glyph-name="arrowright.ss05" horiz-adv-x="571" 
d="M169 351l222 -222l-15 -14l-236 236l236 236l15 -14z" />
    <glyph glyph-name="arrowup.ss05" horiz-adv-x="551" 
d="M411 351l-236 -236l-15 14l222 222l-222 222l15 14z" />
    <glyph glyph-name="at.case" horiz-adv-x="946" 
d="M554 695q146 0 243.5 -96t97.5 -235q0 -102 -52 -176.5t-139 -74.5q-76 0 -85 72q-72 -79 -169 -79q-69 0 -113.5 44t-44.5 115q0 93 67.5 155.5t156.5 62.5q88 0 134 -67l9 48h21l-36 -204q-11 -62 2.5 -94.5t60.5 -32.5q72 0 118.5 66t46.5 160q0 132 -92 223.5
t-229 91.5q-111 0 -214 -56t-168.5 -154.5t-65.5 -211.5q0 -136 91 -227t227 -91q140 0 262 89l11 -18q-128 -92 -276 -92q-146 0 -242.5 95t-96.5 239q0 122 69 226.5t178 163t228 58.5zM455 126q93 0 163 80q0 22 5 54l23 129q-43 74 -131 74q-81 0 -141 -55.5t-60 -139.5
q0 -63 39.5 -102.5t101.5 -39.5z" />
    <glyph glyph-name="bar.case" horiz-adv-x="252" 
d="M226 730l-137 -777h-22l137 777h22z" />
    <glyph glyph-name="brokenbar.case" horiz-adv-x="253" 
d="M167 392h-22l59 338h22zM89 -47h-22l60 337h22z" />
    <glyph glyph-name="registered.ss07" horiz-adv-x="878" 
d="M458 695q150 0 257 -102t107 -253t-107 -253t-257 -102t-257 102t-107 253t107 253t257 102zM458 4q140 0 242 97.5t102 238.5t-102 238.5t-242 97.5t-241.5 -97.5t-101.5 -238.5t101.5 -238.5t241.5 -97.5zM616 415q0 -52 -37.5 -84.5t-100.5 -36.5l147 -151h-26
l-145 151h-102v-151h-20v394h132q68 0 110 -33.5t42 -88.5zM352 312h112q59 0 95.5 28.5t36.5 74.5q0 47 -36.5 75.5t-95.5 28.5h-112v-207z" />
    <glyph glyph-name="caron.alt" 
d="M318 680l-47 -170h-19l44 170h22z" />
    <glyph glyph-name="acute.case" 
d="M436 896l-112 -136h-24l111 136h25z" />
    <glyph glyph-name="breve.case" 
d="M445 895h22q-10 -59 -54 -91.5t-96 -32.5t-86 33t-24 91h20q-8 -50 20.5 -77.5t70.5 -27.5q41 0 80 28t47 77z" />
    <glyph glyph-name="caron.case" 
d="M516 900l-151 -136h-35l-103 136h26l95 -122l138 122h30z" />
    <glyph glyph-name="circumflex.case" 
d="M342 886l-139 -122h-31l153 136h36l101 -136h-26z" />
    <glyph glyph-name="dieresis.case" 
d="M237 834q11 0 18 -7t7 -18t-7 -18t-18 -7t-18 7t-7 18t7 18t18 7zM403 834q11 0 18 -7t7 -18t-7 -18t-18 -7t-18 7t-7 18t7 18t18 7z" />
    <glyph glyph-name="dotaccent.case" 
d="M330 784q-10 0 -17.5 7t-7.5 18t7.5 18t17.5 7t17.5 -7t7.5 -18t-7.5 -18t-17.5 -7z" />
    <glyph glyph-name="grave.case" 
d="M334 760h-24l-88 136h25z" />
    <glyph glyph-name="hungarumlaut.case" 
d="M333 896l-86 -136h-24l86 136h24zM457 896l-87 -136h-23l86 136h24z" />
    <glyph glyph-name="macron.case" 
d="M454 798l-4 -18h-276l4 18h276z" />
    <glyph glyph-name="ring.case" 
d="M320 949q37 0 62 -24.5t25 -61.5t-25 -61.5t-62 -24.5t-62 24.5t-25 61.5t25 61.5t62 24.5zM320 795q28 0 48 19.5t20 48.5q0 28 -20 48t-48 20t-48 -20t-20 -48q0 -29 20 -48.5t48 -19.5z" />
    <glyph glyph-name="tilde.case" 
d="M427 867h19q0 -54 -41 -68.5t-81 16.5l-38 27q-29 23 -61 13.5t-32 -48.5h-19q0 35 21 53t49.5 16.5t51.5 -18.5l37 -26q35 -25 64.5 -15t29.5 50z" />
    </font>
</defs>
</svg>
